<?xml version="1.0" encoding="UTF-8"?>
<svg width="203px" height="133px" viewBox="0 0 203 133" version="1.1" xmlns="http://www.w3.org/2000/svg" xmlns:xlink="http://www.w3.org/1999/xlink">
    <title>Tablet Large Copy 3@1x</title>
    <g id="Tablet-Large-Copy-3" stroke="none" stroke-width="1" fill="none" fill-rule="evenodd">
        <path d="M189.302,134.064808 C189.302,134.064808 187.77,99.0618084 186.107,91.2438084 C185.954,90.5248084 185.866,90.0848084 185.856,89.9808084 L173.541,97.6698084 C173.541,97.6698084 171.079,133.611808 171.483,138.118808 C171.887,142.625808 175.841,147.103808 178.551,149.960808 C181.261,152.817808 211.142,173.435808 211.142,173.435808 L210.474,161.685808 L189.302,134.064808" id="Fill-358" fill="#F1AF92"></path>
        <path d="M154.418,44.3478084 C155.707,40.5408084 156.981,36.7048084 157.596,32.7328084 C158.211,28.7608084 158.141,24.6118084 156.787,20.8278084 C156.582,20.2538084 154.819,16.4008084 154.212,16.4528084 C153.778,16.4908084 154.849,20.0778084 154.626,20.4518084 C152.49,24.0168084 151.869,28.3288084 152.152,32.4758084 C152.435,36.6218084 153.251,40.3588084 154.418,44.3478084" id="Fill-376" fill="#132529"></path>
        <path d="M139.889,10.1208084 L138.957,10.1598084 C129.574,10.5478084 122.059,18.0718084 121.691,27.4558084 C121.349,36.1858084 121.083,45.8368084 121.333,50.5018084 C121.852,60.1608084 131.58,61.2648084 131.58,61.2648084 L131.622,70.2578084 L141.208,74.3708084 L153.887,68.0678084 L155.002,29.0188084 C155.453,18.9488084 149.968,10.2928084 139.889,10.1208084" id="Fill-377" fill="#F1AF92"></path>
        <path d="M131.58,61.2648084 C131.58,61.2648084 137.686,61.3708084 144.009,57.0248084 C144.009,57.0248084 141.282,64.4158084 131.603,63.9438084 L131.58,61.2648084" id="Fill-378" fill="#EA8C6C"></path>
        <path d="M126.636,36.0648084 C126.64,36.7948084 127.262,37.3928084 128.024,37.4028084 C128.785,37.4118084 129.4,36.8298084 129.395,36.0998084 C129.391,35.3698084 128.769,34.7708084 128.008,34.7608084 C127.246,34.7518084 126.631,35.3358084 126.636,36.0648084" id="Fill-379" fill="#132529"></path>
        <path d="M123.923,31.6388084 C124.101,31.8108084 125.114,30.9938084 126.6,30.9368084 C128.083,30.8578084 129.204,31.5768084 129.358,31.3888084 C129.433,31.3048084 129.246,30.9868084 128.757,30.6608084 C128.276,30.3368084 127.465,30.0348084 126.54,30.0768084 C125.615,30.1208084 124.851,30.4928084 124.418,30.8598084 C123.976,31.2298084 123.835,31.5608084 123.923,31.6388084" id="Fill-380" fill="#132529"></path>
        <path d="M139.827981,36.0648084 C139.833,36.7948084 140.454,37.3928084 141.217,37.4028084 C141.977,37.4118084 142.592,36.8298084 142.588019,36.0998084 C142.583,35.3698084 141.962,34.7708084 141.201,34.7608084 C140.438,34.7518084 139.824,35.3358084 139.827981,36.0648084" id="Fill-381" fill="#132529"></path>
        <path d="M138.494,31.3808084 C138.673,31.5538084 139.688,30.7378084 141.172,30.6798084 C142.655,30.6008084 143.776,31.3198084 143.93,31.1318084 C144.005,31.0478084 143.82,30.7308084 143.329,30.4048084 C142.848,30.0798084 142.037,29.7778084 141.112,29.8198084 C140.187,29.8638084 139.423,30.2358084 138.99,30.6028084 C138.549,30.9718084 138.407,31.3038084 138.494,31.3808084" id="Fill-382" fill="#132529"></path>
        <path d="M133.638,43.0128084 C133.642,42.9278084 132.712,42.8068084 131.208,42.6768084 C130.827,42.6538084 130.465,42.5928084 130.391,42.3368084 C130.29,42.0668084 130.432,41.6518084 130.598,41.2028084 C130.916,40.2698084 131.25,39.2928084 131.6,38.2688084 C132.987,34.0928084 133.975,30.6658084 133.806,30.6108084 C133.638,30.5568084 132.376,33.8968084 130.989,38.0728084 C130.656,39.1028084 130.337,40.0838084 130.034,41.0218084 C129.909,41.4588084 129.682,41.9578084 129.899,42.5188084 C130.013,42.7978084 130.3,42.9918084 130.545,43.0468084 C130.792,43.1118084 131.005,43.1068084 131.193,43.1108084 C132.702,43.1288084 133.636,43.0978084 133.638,43.0128084" id="Fill-383" fill="#132529"></path>
        <path d="M137.822,26.7558084 C138.039,27.1268084 139.464,26.6678084 141.217,26.5578084 C142.967,26.4128084 144.443,26.6588084 144.605,26.2608084 C144.675,26.0718084 144.364,25.7418084 143.734,25.4608084 C143.109,25.1788084 142.157,24.9778084 141.107,25.0528084 C140.057,25.1308084 139.144,25.4688084 138.567,25.8378084 C137.984,26.2078084 137.725,26.5788084 137.822,26.7558084" id="Fill-384" fill="#132529"></path>
        <path d="M123.674,27.2748084 C123.992,27.6038084 125.192,27.2218084 126.647,27.1668084 C128.099,27.0688084 129.339,27.3228084 129.613,26.9618084 C129.733,26.7878084 129.53,26.4548084 128.984,26.1498084 C128.445,25.8448084 127.551,25.6088084 126.552,25.6608084 C125.553,25.7138084 124.695,26.0418084 124.198,26.4008084 C123.693,26.7618084 123.533,27.1138084 123.674,27.2748084" id="Fill-385" fill="#132529"></path>
        <path d="M154.508,36.2078084 C154.67,36.1298084 161.067,33.9688084 161.129,40.5848084 C161.191,47.1998084 154.536,45.8978084 154.523,45.7078084 C154.51,45.5188084 154.508,36.2078084 154.508,36.2078084" id="Fill-386" fill="#F1AF92"></path>
        <path d="M156.521,43.1828084 C156.549,43.1618084 156.637,43.2628084 156.832,43.3498084 C157.023,43.4348084 157.35,43.4918084 157.694,43.3598084 C158.39,43.0968084 158.968,41.9818084 158.989,40.7888084 C159.001,40.1868084 158.869,39.6148084 158.651,39.1418084 C158.445,38.6598084 158.129,38.3248084 157.776,38.2648084 C157.425,38.1878084 157.178,38.4008084 157.099,38.5878084 C157.012,38.7738084 157.055,38.9048084 157.02,38.9168084 C157.002,38.9338084 156.877,38.8068084 156.928,38.5338084 C156.954,38.4018084 157.03,38.2448084 157.184,38.1168084 C157.342,37.9858084 157.575,37.9178084 157.82,37.9418084 C158.331,37.9728084 158.794,38.4378084 159.034,38.9568084 C159.301,39.4778084 159.463,40.1208084 159.45,40.7968084 C159.421,42.1298084 158.75,43.3838084 157.796,43.6698084 C157.332,43.7958084 156.942,43.6588084 156.74,43.5038084 C156.534,43.3428084 156.498,43.1958084 156.521,43.1828084" id="Fill-387" fill="#EA8C6C"></path>
        <path d="M125.966,16.4938084 C124.895,15.9028084 128.106,12.4338084 130.737,11.2388084 C134.713,9.43280842 140.785,8.31780842 144.452,9.35580842 C148.867,10.6058084 152.536,12.7998084 154.754,16.8168084 C156.973,20.8328084 157.809,25.5138084 157.683,30.1018084 C157.644,31.5008084 157.499,32.9598084 156.753,34.1438084 C155.829,35.6068084 154.057,36.5288084 154.136,38.5468084 C154.164,39.2838084 153.954,40.0288084 153.45,40.5668084 C152.24,41.8558084 150.758,40.6458084 150.077,39.4338084 C148.621,36.8428084 148.457,33.7498084 148.328,30.7808084 C148.236,28.6708084 148.149,26.5158084 148.743,24.4888084 C149.066,23.3858084 149.585,22.3428084 149.847,21.2238084 C150.108,20.1048084 150.074,18.8348084 149.376,17.9218084 C149.263,17.7728084 149.076,17.5858084 148.839,17.3778084 C146.964,15.7368084 144.341,15.2468084 141.993,16.0788084 C138.268,17.3988084 131.907,19.3708084 130.244,18.1078084 C127.853,16.2898084 127.281,15.1038084 127.281,15.1038084 L125.966,16.4938084" id="Fill-388" fill="#132529"></path>
        <path d="M138.303,43.9328084 C138.075,43.9178084 138.066,45.4368084 136.761,46.5098084 C135.458,47.5858084 133.839,47.4078084 133.826,47.6198084 C133.805,47.7158084 134.185,47.9168084 134.869,47.9388084 C135.539,47.9648084 136.519,47.7538084 137.318,47.0978084 C138.114,46.4398084 138.459,45.5588084 138.514,44.9358084 C138.575,44.3008084 138.407,43.9238084 138.303,43.9328084" id="Fill-389" fill="#132529"></path>
        <path d="M106.575,86.5148084 C106.575,86.5148084 102.598,86.2138084 99.147,93.3008084 C94.852,102.122808 94.45,134.461808 94.45,134.461808 L92.41,172.059808 L102.291,180.106808 C102.291,180.106808 107.032,145.804808 108.917,140.778808 C110.801,135.753808 110.565,106.053808 110.565,106.053808 L106.575,86.5148084" id="Fill-391" fill="#F1AF92"></path>
        <path d="M184.174,81.2558084 C181.957,75.6808084 176.717,73.7268084 174.605,72.8518084 C169.68,70.2668084 159.948,65.3968084 156.46,64.2768084 L154.696,60.6248084 L141.27,71.7088084 L130.991,63.3368084 L128.996,67.1648084 L109.513,74.0718084 C109.338,74.1338084 109.158,74.2028084 108.975,74.2788084 C105.782,75.5998084 103.31,78.2308084 101.986,81.4218084 L93.059,110.785808 L106.257,117.043808 L106.138,125.587808 L104.118,160.814808 C104.118,160.814808 104.346,161.095808 103.119,164.162808 C101.893,167.229808 101.364,178.484808 101.364,178.484808 C101.459,178.514808 101.555,178.540808 101.65,178.570808 C103.979,179.301808 106.33,179.876808 108.701,180.315808 C108.891,180.350808 109.08,180.390808 109.27,180.423808 C115.583,181.532808 122.036,181.669808 128.586,181.134808 C128.728,181.123808 128.87,181.110808 129.012,181.098808 C142.006,179.981808 156.479,176.568808 169.914,172.516808 L168.669,166.034808 C168.457,162.976808 167.99,159.333808 167.99,159.333808 L167.953,141.198808 L170.665,111.720808 C170.897,112.985808 170.18,115.183808 170.349,115.981808 L191.044,108.995808 C191.044,108.995808 186.697,87.6028084 184.174,81.2558084" id="Fill-392" fill="#10AC73"></path>
        <path d="M141.27,71.7088084 C141.315,71.7478084 140.867,72.3398084 140.075,73.3088084 C139.283,74.2768084 138.147,75.6208084 136.814,77.1618084 L136.627,77.3788084 L136.435,77.1648084 C135.868,76.5308084 135.265,75.8558084 134.64,75.1568084 C132.844,73.1528084 131.294,71.2538084 130.297,69.7898084 C129.289,68.3308084 128.805,67.3438084 128.859,67.3118084 C128.928,67.2708084 129.521,68.1848084 130.595,69.5728084 C131.659,70.9678084 133.235,72.8088084 135.029,74.8108084 C135.65,75.5158084 136.249,76.1958084 136.811,76.8348084 L136.433,76.8378084 C137.789,75.3168084 138.976,74.0158084 139.835,73.1038084 C140.694,72.1928084 141.225,71.6708084 141.27,71.7088084" id="Fill-393" fill="#132529"></path>
        <path d="M155.367,65.7938084 C155.419,65.8428084 154.666,66.7588084 153.405,68.2008084 C152.145,69.6428084 150.377,71.6108084 148.4,73.7618084 C147.409,74.8298084 146.465,75.8468084 145.589,76.7908084 L145.416,76.9778084 L145.243,76.7978084 C143.919,75.4288084 142.857,74.2068084 142.172,73.2858084 C141.472,72.3748084 141.217,71.7278084 141.27,71.7088084 C141.319,71.6898084 141.644,72.2558084 142.398,73.1038084 C143.137,73.9588084 144.243,75.1308084 145.582,76.4588084 L145.236,76.4668084 C146.103,75.5138084 147.036,74.4868084 148.017,73.4098084 C149.993,71.2578084 151.804,69.3298084 153.134,67.9518084 C154.464,66.5728084 155.314,65.7448084 155.367,65.7938084" id="Fill-394" fill="#132529"></path>
        <path d="M132.405,174.069817 C132.396,174.069817 132.391,173.980808 132.39,173.806808 C132.392,173.602808 132.394,173.348808 132.397,173.034808 C132.417,172.316808 132.443,171.325808 132.477,170.069808 C132.554,167.495808 132.698,163.771808 132.906,159.171808 C133.32,149.970808 134.02,137.263808 135.16,123.255808 C136.308,109.242808 137.727,96.5908084 138.953,87.4618084 C139.563,82.8968084 140.096,79.2078084 140.505,76.6648084 C140.707,75.4248084 140.866,74.4468084 140.981,73.7378084 C141.037,73.4288084 141.082,73.1788084 141.118,72.9778084 C141.152,72.8078084 141.173,72.7217999 141.182,72.7217999 C141.191,72.7238084 141.187,72.8128084 141.171,72.9858084 C141.148,73.1888084 141.12,73.4408084 141.085,73.7528084 C140.993,74.4658084 140.866,75.4478084 140.706,76.6938084 C140.358,79.2448084 139.881,82.9398084 139.318,87.5078084 C138.187,96.6448084 136.826,109.292808 135.679,123.297808 C134.539,137.298808 133.782,149.995808 133.273,159.189808 C133.024,163.755808 132.822,167.465808 132.679,170.078808 C132.604,171.332808 132.545,172.321808 132.502,173.039808 C132.478,173.351808 132.459,173.604808 132.443,173.808808 C132.427,173.981808 132.414,174.069817 132.405,174.069817" id="Fill-395" fill="#132529"></path>
        <path d="M147.662,98.9278084 C147.676,98.9438084 147.663,99.2678084 147.628,99.8628084 C147.585,100.510808 147.528,101.362808 147.458,102.420808 C147.289,104.662808 147.055,107.769808 146.773,111.521808 L146.697,111.340808 C148.841,113.080808 151.272,115.052808 153.893,117.178808 L153.614,117.154808 C156.034,115.795808 158.654,114.325808 161.368,112.802808 C161.844,112.536808 162.317,112.271808 162.785,112.009808 L162.653,112.210808 C163.118,107.666808 163.556,103.392808 163.94,99.6388084 L164.159,99.8918084 C159.314,99.6298084 155.234,99.4088084 152.29,99.2488084 C150.882,99.1608084 149.748,99.0908084 148.901,99.0378084 C148.111,98.9838084 147.678,98.9468084 147.662,98.9278084 C147.645,98.9088084 148.046,98.9098084 148.812,98.9248084 C149.647,98.9458084 150.766,98.9758084 152.156,99.0118084 C155.137,99.1158084 159.271,99.2598084 164.18,99.4308084 L164.423,99.4398084 L164.399,99.6848084 C164.032,103.440808 163.615,107.716808 163.171,112.262808 L163.157,112.397808 L163.039,112.463808 C162.571,112.725808 162.098,112.990808 161.622,113.256808 C158.904,114.773808 156.281,116.236808 153.857,117.589808 L153.708,117.672808 L153.577,117.564808 C150.975,115.416808 148.561,113.423808 146.431,111.665808 L146.344,111.593808 L146.355,111.484808 C146.731,107.688808 147.043,104.544808 147.268,102.275808 C147.381,101.240808 147.472,100.406808 147.541,99.7728084 C147.607,99.2038084 147.648,98.9118084 147.662,98.9278084" id="Fill-396" fill="#132529"></path>
        <path d="M105.019,86.7868084 C105.053,86.7868084 105.086,87.2388084 105.138,88.0538084 C105.202,88.9538084 105.285,90.1138084 105.385,91.5068084 C105.597,94.4228084 105.901,98.4528084 106.148,102.909808 C106.398,107.368808 106.51,111.413808 106.479,114.341808 C106.463,115.805808 106.423,116.990808 106.36,117.807808 C106.3,118.625808 106.251,119.075808 106.219,119.073815 C106.187,119.072808 106.174,118.618808 106.177,117.802808 C106.184,116.985808 106.174,115.803808 106.147,114.343808 C106.094,111.422808 105.929,107.388808 105.679,102.934808 C105.434,98.4808084 105.181,94.4488084 105.054,91.5248084 C104.987,90.0638084 104.957,88.8788084 104.955,88.0598084 C104.959,87.2398084 104.989,86.7868084 105.019,86.7868084" id="Fill-397" fill="#132529"></path>
        <path d="M173.531,87.5757404 C173.563,87.5818084 173.52,87.9828084 173.415,88.7038084 C173.292,89.5148084 173.138,90.5368084 172.954,91.7538084 C172.562,94.3278084 172.05,97.8878084 171.589,101.830808 C171.131,105.775808 170.812,109.355808 170.602,111.949808 C170.501,113.176808 170.416,114.206808 170.349,115.022808 C170.286,115.747808 170.235,116.148808 170.203,116.14781 C170.171,116.145808 170.159,115.742808 170.167,115.013808 C170.173,114.284808 170.208,113.230808 170.271,111.929808 C170.397,109.326808 170.664,105.733808 171.124,101.779808 C171.585,97.8278084 172.151,94.2678084 172.627,91.7028084 C172.864,90.4198084 173.073,89.3848084 173.235,88.6738084 C173.395,87.9608084 173.499,87.5698084 173.531,87.5757404" id="Fill-398" fill="#132529"></path>
        <path d="M23.234,89.9158084 C23.234,89.9158084 19.257,89.6148084 15.806,96.7018084 C11.511,105.522808 11.109,137.862808 11.109,137.862808 L8.439,182.646808 L18.95,183.506808 C18.95,183.506808 25.339,158.525808 27.224,153.500808 C29.109,148.474808 27.224,109.453808 27.224,109.453808 L23.234,89.9158084" id="Fill-476" fill="#004D32"></path>
        <path d="M81.975,55.1988084 C81.305,54.4168084 80.441,53.7538084 80.065,52.7948084 C79.638,51.7058084 79.936,50.4878084 80.069,49.3248084 C80.413,46.3228084 79.468,43.0608084 77.133,41.1418084 C74.798,39.2228084 71.007,39.0628084 68.863,41.1928084 L51.234,52.5518084 C48.302,56.2298084 46.979,61.1468084 47.669,65.7998084 C47.952,67.7068084 48.62,69.6608084 50.077,70.9228084 C51.535,72.1848084 53.935,72.4908084 55.354,71.1868084 C55.773,74.1528084 58.086,76.7628084 60.981,77.5358084 C63.875,78.3088084 67.181,77.1978084 69.023,74.8358084 C70.507,76.6338084 73.113,77.4158084 75.342,76.7318084 C77.571,76.0478084 79.29,73.9378084 79.509,71.6168084 C79.639,70.2428084 79.293,68.8168084 79.7,67.4988084 C80.172,65.9638084 81.552,64.9118084 82.452,63.5818084 C84.137,61.0908084 83.932,57.4818084 81.975,55.1988084" id="Fill-477" fill="#132529"></path>
        <path d="M70.2,47.1888084 C71.976,45.0958084 71.857,41.7088084 69.94,39.7378084 C71.076,38.4408084 70.759,36.3698084 69.701,35.0108084 C68.642,33.6528084 67.027,32.8388084 65.466,32.0688084 C64.736,28.1348084 60.344,25.2348084 56.33,26.0358084 C54.364,22.9908084 49.963,22.3728084 46.388,23.2578084 C45.515,23.4738084 44.64,23.7618084 43.739,23.7268084 C43.079,23.7018084 42.44,23.5038084 41.788,23.3948084 C38.205,22.7988084 34.542,25.1498084 33.02,28.3708084 C32.777,28.8868084 32.573,29.4308084 32.201,29.8668084 C31.713,30.4388084 30.992,30.7598084 30.372,31.1928084 C29.031,32.1298084 28.147,33.6618084 28.02,35.2658084 C27.912,36.6288084 28.305,38.0918084 27.671,39.3108084 C27.354,39.9218084 26.802,40.4048084 26.549,41.0438084 C25.816,42.8958084 27.876,44.8848084 27.411,46.8178084 C27.316,47.2118084 27.12,47.5758084 26.993,47.9618084 C26.733,48.7498084 26.78,49.6308084 27.122,50.3888084 C27.385,50.9738084 27.824,51.5168084 27.84,52.1558084 C27.852,52.6408084 27.615,53.0938084 27.498,53.5658084 C27.213,54.7188084 29.62,59.2878084 30.626,59.9548084 L61.359,61.2778084 C63.702,60.8958084 65.671,58.9028084 65.978,56.6038084 C66.029,56.2218084 66.05,55.8048084 66.304,55.5108084 C66.521,55.2588084 66.861,55.1518084 67.163,55.0068084 C69.179,54.0378084 69.514,51.3938084 69.384,49.2038084 C69.366,48.8968084 69.345,48.5828084 69.434,48.2888084 C69.565,47.8598084 69.909,47.5328084 70.2,47.1888084" id="Fill-478" fill="#132529"></path>
        <polyline id="Fill-479" fill="#F1AF92" points="59.891 79.9568084 59.803 79.9208084 59.891 79.9568084"></polyline>
        <path d="M29.42,43.4128084 C29.959,37.4038084 36.369,32.0678084 38.077,31.7378084 C38.077,31.7378084 41.385,29.9088084 45.381,30.5028084 C47.165,30.7688084 49.823,30.8698084 53.17,32.6238084 C58.481,35.4058084 61.674,41.6238084 61.391,46.9298084 L59.803,79.9208084 C56.229,83.8628084 46.42,87.2498084 46.42,87.2498084 C46.42,87.2498084 40.177,88.6668084 38.392,86.1728084 L39.174,74.8418084 C39.174,74.8418084 30.427,73.3438084 29.046,63.2728084 C28.359,58.2638084 28.821,50.0898084 29.42,43.4128084" id="Fill-480" fill="#F1AF92"></path>
        <path d="M34.045,52.2938084 C34.003,52.9738084 34.558,53.5678084 35.284,53.6228084 C36.008,53.6778084 36.63,53.1738084 36.672,52.4948084 C36.713,51.8168084 36.158,51.2218084 35.434,51.1658084 C34.708,51.1108084 34.086,51.6158084 34.045,52.2938084" id="Fill-481" fill="#132529"></path>
        <path d="M31.683,47.3198084 C31.843,47.4918084 32.86,46.7948084 34.278,46.8318084 C35.696,46.8488084 36.72,47.5868084 36.878,47.4208084 C36.955,47.3478084 36.796,47.0408084 36.351,46.7078084 C35.913,46.3758084 35.159,46.0468084 34.275,46.0288084 C33.392,46.0128084 32.64,46.3118084 32.205,46.6268084 C31.76,46.9428084 31.605,47.2428084 31.683,47.3198084" id="Fill-482" fill="#132529"></path>
        <path d="M39.711,58.4518084 C39.719,58.3728084 38.841,58.2038084 37.417,57.9908084 C37.055,57.9458084 36.714,57.8668084 36.659,57.6248084 C36.58,57.3668084 36.741,56.9898084 36.927,56.5828084 C37.289,55.7348084 37.668,54.8468084 38.066,53.9158084 C39.65,50.1188084 40.806,46.9918084 40.649,46.9318084 C40.491,46.8708084 39.08,49.8998084 37.496,53.6968084 C37.114,54.6338084 36.749,55.5258084 36.402,56.3798084 C36.255,56.7788084 36.007,57.2288084 36.179,57.7638084 C36.27,58.0298084 36.531,58.2278084 36.762,58.2948084 C36.992,58.3698084 37.196,58.3778084 37.375,58.3928084 C38.811,58.5028084 39.703,58.5298084 39.711,58.4518084" id="Fill-483" fill="#132529"></path>
        <path d="M39.141,74.8088084 C39.141,74.8088084 46.092,75.4118084 53.044,71.5568084 C53.044,71.5568084 49.536,78.6758084 39.27,77.4908084 L39.141,74.8088084" id="Fill-484" fill="#EA8C6C"></path>
        <path d="M32.755,41.8058084 C32.985,42.1498084 34.077,41.9498084 35.344,42.0828084 C36.615,42.1768084 37.654,42.5678084 37.94,42.2698084 C38.068,42.1238084 37.938,41.7908084 37.507,41.4408084 C37.082,41.0918084 36.34,40.7608084 35.468,40.6818084 C34.596,40.6048084 33.808,40.7988084 33.328,41.0668084 C32.842,41.3358084 32.655,41.6398084 32.755,41.8058084" id="Fill-485" fill="#132529"></path>
        <path d="M50.241,52.7248084 C50.223,53.4048084 49.618,53.9498084 48.89,53.9438084 C48.164,53.9378084 47.588,53.3838084 47.606,52.7038084 C47.625,52.0238084 48.23,51.4778084 48.956,51.4838084 C49.685,51.4888084 50.26,52.0448084 50.241,52.7248084" id="Fill-486" fill="#132529"></path>
        <path d="M51.082,48.3268084 C50.908,48.4848084 49.956,47.7048084 48.539,47.6218084 C47.126,47.5198084 46.041,48.1688084 45.898,47.9898084 C45.827,47.9108084 46.013,47.6178084 46.485,47.3238084 C46.951,47.0308084 47.731,46.7658084 48.613,46.8218084 C49.495,46.8798084 50.218,47.2418084 50.624,47.5918084 C51.038,47.9448084 51.167,48.2568084 51.082,48.3268084" id="Fill-487" fill="#132529"></path>
        <path d="M51.279,42.9008084 C50.98,43.1978084 49.907,42.8058084 48.594,42.7108084 C47.285,42.5768084 46.154,42.7748084 45.919,42.4318084 C45.817,42.2648084 46.012,41.9618084 46.517,41.6938084 C47.015,41.4268084 47.832,41.2328084 48.733,41.3108084 C49.635,41.3908084 50.399,41.7228084 50.836,42.0718084 C51.28,42.4228084 51.411,42.7548084 51.279,42.9008084" id="Fill-488" fill="#132529"></path>
        <path d="M59.497,56.3978084 C59.518,55.6508084 60.447,53.9108084 61.206,53.8138084 C63.233,53.5548084 66.868,53.7998084 66.777,58.8038084 C66.651,65.6458084 59.639,64.1118084 59.63,63.9148084 C59.623,63.7618084 59.426,58.9778084 59.497,56.3978084" id="Fill-489" fill="#F1AF92"></path>
        <path d="M61.61,61.4498084 C61.641,61.4288084 61.73,61.5358084 61.935,61.6308084 C62.135,61.7248084 62.48,61.7928084 62.848,61.6658084 C63.593,61.4128084 64.238,60.2768084 64.294,59.0438084 C64.324,58.4218084 64.201,57.8268084 63.984,57.3318084 C63.779,56.8268084 63.454,56.4718084 63.082,56.4008084 C62.713,56.3108084 62.445,56.5238084 62.355,56.7148084 C62.257,56.9048084 62.3,57.0418084 62.262,57.0528084 C62.242,57.0698084 62.114,56.9358084 62.176,56.6548084 C62.207,56.5188084 62.292,56.3588084 62.46,56.2298084 C62.63,56.0998084 62.878,56.0358084 63.138,56.0678084 C63.678,56.1138084 64.156,56.6078084 64.394,57.1508084 C64.662,57.6968084 64.816,58.3668084 64.783,59.0648084 C64.713,60.4428084 63.966,61.7198084 62.947,61.9888084 C62.452,62.1048084 62.043,61.9528084 61.833,61.7878084 C61.619,61.6158084 61.585,61.4618084 61.61,61.4498084" id="Fill-490" fill="#EA8C6C"></path>
        <path d="M27.862,43.4708084 C29.3,42.6418084 30.234,41.4888084 30.188,39.8588084 C31.12,40.1548084 32.104,38.9988084 32.672,38.2188084 C33.24,37.4398084 33.921,37.0558084 33.904,36.0998084 C33.901,35.9108084 33.894,35.7108084 33.988,35.5458084 C34.137,35.2868084 34.473,35.2098084 34.765,35.1288084 C36.272,34.7098084 37.516,33.4908084 37.94,32.0198084 C39.425,32.6978084 41.086,33.0078084 42.723,32.9118084 C43.423,33.9558084 44.693,34.6118084 45.972,34.5888084 C47.25,34.5658084 48.495,33.8648084 49.155,32.7958084 C49.557,33.6618084 50.452,34.2338084 51.39,34.4908084 C52.328,34.7468084 53.319,34.7328084 54.293,34.7158084 C53.826,36.5438084 54.995,38.6258084 56.825,39.2238084 C57.072,39.3048084 57.359,39.3858084 57.467,39.6168084 C57.581,39.8578084 57.443,40.1318084 57.34,40.3768084 C56.688,41.9258084 57.7,43.9248084 59.358,44.3598084 C58.189,45.1988084 58.255,47.2088084 59.478,47.9718084 C59.728,48.1288084 60.057,48.3178084 60.01,48.6048084 C59.992,48.7138084 59.919,48.8058084 59.849,48.8928084 C59.309,49.5568084 58.77,50.2828084 58.685,51.1258084 C58.6,51.9688084 59.16,52.9308084 60.026,52.9898084 C59.561,53.3738084 59.123,53.8718084 59.097,54.4658084 C59.071,55.0598084 59.672,55.6808084 60.246,55.4798084 C60.49,55.3948084 63.997,54.8108084 64.156,54.6118084 C66.207,52.0328084 63.787,49.0688084 63.675,45.8068084 C63.563,42.5438084 62.479,39.3608084 60.884,36.4918084 C60.214,35.2888084 59.449,34.1248084 58.48,33.1348084 C57.375,32.0058084 56.034,31.1278084 54.697,30.2708084 C52.954,29.1518084 51.16,28.0348084 49.142,27.5168084 C45.382,26.5538084 41.417,27.7978084 37.848,29.3018084 C36.491,29.8738084 35.136,30.4948084 33.984,31.3988084 C32.606,32.4808084 31.575,33.9248084 30.671,35.4088084 C29.364,37.5528084 28.265,39.8728084 27.953,42.3488084" id="Fill-491" fill="#132529"></path>
        <path d="M26.549,41.0438084 C26.549,41.0438084 26.627,40.7638084 26.946,40.3198084 C27.101,40.0958084 27.318,39.8368084 27.525,39.5018084 C27.728,39.1668084 27.895,38.7398084 27.953,38.2348084 C28.022,37.7308084 27.995,37.1628084 27.967,36.5418084 C27.94,35.9228084 27.911,35.2318084 28.077,34.5128084 C28.236,33.7958084 28.555,33.0568084 29.057,32.3808084 C29.307,32.0438084 29.604,31.7238084 29.945,31.4348084 C30.284,31.1438084 30.679,30.9018084 31.074,30.6598084 C31.466,30.4158084 31.863,30.1538084 32.163,29.7908084 C32.464,29.4278084 32.656,28.9768084 32.862,28.5208084 C33.276,27.5988084 33.865,26.7028084 34.636,25.9198084 C35.402,25.1368084 36.327,24.4348084 37.407,23.9508084 C37.938,23.6898084 38.52,23.5218084 39.111,23.3758084 C39.71,23.2648084 40.329,23.1828084 40.958,23.2198084 C41.272,23.2258084 41.586,23.2768084 41.901,23.3168084 C42.213,23.3728084 42.52,23.4458084 42.829,23.5068084 C43.444,23.6428084 44.071,23.6768084 44.702,23.5578084 C45.332,23.4528084 45.954,23.2478084 46.606,23.1078084 C47.254,22.9518084 47.925,22.8678084 48.602,22.8168084 C49.28,22.7668084 49.968,22.7895092 50.656,22.8508084 C51.345,22.9248084 52.03,23.0668084 52.702,23.2738084 C54.031,23.7078084 55.315,24.4768084 56.169,25.6378084 C56.253,25.7528084 56.336,25.8678084 56.419,25.9808084 L56.309,25.9348084 C58.442,25.5138084 60.639,26.1288084 62.311,27.2818084 C63.995,28.4318084 65.217,30.1678084 65.565,32.0518084 L65.511,31.9818084 C66.348,32.3948084 67.175,32.8108084 67.934,33.3108084 C68.691,33.8098084 69.381,34.4008084 69.892,35.1138084 C70.397,35.8308084 70.692,36.6648084 70.739,37.4988084 C70.79,38.3298084 70.55,39.1798084 70.006,39.7938084 L70.003,39.6788084 C70.977,40.6848084 71.446,41.9988084 71.521,43.2328084 C71.596,44.4728084 71.297,45.6708084 70.698,46.6128084 C70.561,46.8558084 70.379,47.0648084 70.214,47.2778084 C70.038,47.4808084 69.858,47.6698084 69.715,47.8758084 C69.571,48.0808084 69.474,48.3028084 69.447,48.5398084 C69.417,48.7748084 69.436,49.0138084 69.447,49.2498084 C69.495,50.1958084 69.45,51.0708084 69.302,51.8438084 C69.152,52.6158084 68.903,53.2888084 68.558,53.8018084 C68.22,54.3198084 67.805,54.6678084 67.437,54.8828084 C67.069,55.1068084 66.746,55.1888084 66.565,55.3108084 C66.377,55.4218084 66.31,55.5168084 66.304,55.511078 C66.304,55.511078 66.364,55.4098084 66.55,55.2888084 C66.731,55.1568084 67.054,55.0658084 67.409,54.8388084 C67.767,54.6198084 68.167,54.2728084 68.492,53.7608084 C68.824,53.2548084 69.061,52.5898084 69.202,51.8268084 C69.342,51.0618084 69.379,50.1948084 69.325,49.2568084 C69.312,49.0218084 69.29,48.7768084 69.32,48.5238084 C69.346,48.2698084 69.455,48.0188084 69.605,47.8028084 C69.754,47.5858084 69.937,47.3918084 70.109,47.1908084 C70.269,46.9818084 70.445,46.7788084 70.576,46.5408084 C71.154,45.6218084 71.44,44.4518084 71.361,43.2428084 C71.283,42.0398084 70.82,40.7638084 69.876,39.7968084 L69.821,39.7408084 L69.873,39.6828084 C70.38,39.1048084 70.607,38.3038084 70.556,37.5088084 C70.509,36.7108084 70.222,35.9068084 69.736,35.2198084 C69.242,34.5338084 68.569,33.9578084 67.824,33.4698084 C67.077,32.9788084 66.257,32.5688084 65.421,32.1568084 L65.376,32.1348084 L65.367,32.0868084 C65.027,30.2608084 63.837,28.5698084 62.191,27.4488084 C60.558,26.3238084 58.416,25.7278084 56.351,26.1368084 L56.284,26.1508084 L56.24,26.0908084 C56.16,25.9818084 56.079,25.8708084 55.998,25.7598084 C55.175,24.6398084 53.934,23.8938084 52.636,23.4688084 C51.98,23.2668084 51.309,23.1268084 50.634,23.0538084 C49.958,22.9928084 49.282,22.9698084 48.615,23.0178084 C47.95,23.0678084 47.29,23.1488084 46.652,23.3018084 C46.012,23.4388084 45.386,23.6448084 44.736,23.7518084 C44.411,23.8058084 44.082,23.8358084 43.752,23.8248084 C43.423,23.8138084 43.101,23.7598084 42.789,23.6968084 C42.476,23.6338084 42.17,23.5608084 41.865,23.5058084 C41.559,23.4668084 41.255,23.4158084 40.95,23.4098084 C40.339,23.3728084 39.736,23.4508084 39.151,23.5568084 C38.575,23.6988084 38.006,23.8608084 37.486,24.1148084 C36.427,24.5858084 35.518,25.2718084 34.763,26.0378084 C34.003,26.8048084 33.422,27.6798084 33.011,28.5848084 C32.804,29.0378084 32.606,29.5018084 32.284,29.8868084 C31.963,30.2718084 31.549,30.5388084 31.154,30.7828084 C30.754,31.0248084 30.37,31.2578084 30.038,31.5398084 C29.703,31.8198084 29.412,32.1308084 29.165,32.4588084 C28.671,33.1158084 28.354,33.8368084 28.193,34.5368084 C28.025,35.2398084 28.046,35.9178084 28.068,36.5378084 C28.09,37.1588084 28.111,37.7328084 28.034,38.2448084 C27.969,38.7578084 27.792,39.1968084 27.579,39.5338084 C27.362,39.8708084 27.14,40.1248084 26.981,40.3438084 C26.818,40.5598084 26.711,40.7358084 26.646,40.8578084 C26.58,40.9798084 26.554,41.0458084 26.549,41.0438084" id="Fill-492" fill="#334F55"></path>
        <path d="M53.081,24.4468084 C53.07,24.4618084 52.899,24.3378084 52.563,24.1658084 C52.228,23.9968084 51.716,23.7828084 51.047,23.6908084 C50.384,23.5948084 49.556,23.6278084 48.734,23.9568084 C47.918,24.2838084 47.115,24.8998084 46.586,25.7538084 C46.434,25.9988084 46.302,26.2618084 46.216,26.5188084 C46.133,26.7748084 46.114,27.0488084 46.247,27.2408084 L46.412,27.4778084 L46.131,27.3918084 C45.36,27.1568084 44.555,27.2808084 43.956,27.5868084 C43.347,27.8908084 42.953,28.3788084 42.732,28.8208084 C42.509,29.2668084 42.447,29.6688084 42.427,29.9398084 C42.41,30.2138084 42.428,30.3648084 42.412,30.3668084 L42.383,30.2588084 C42.369,30.1868084 42.358,30.0788084 42.3559333,29.9378084 C42.354,29.6588084 42.396,29.2398084 42.613,28.7658084 C42.826,28.2988084 43.23,27.7688084 43.873,27.4328084 C44.504,27.0968084 45.358,26.9528084 46.192,27.2008084 L46.076,27.3528084 C45.889,27.0798084 45.927,26.7368084 46.016,26.4588084 C46.111,26.1728084 46.245,25.9078084 46.405,25.6468084 C46.96,24.7508084 47.804,24.1128084 48.662,23.7808084 C49.527,23.4458084 50.389,23.4288084 51.07,23.5468084 C51.758,23.6608084 52.274,23.9018084 52.603,24.0958084 C52.768,24.1938084 52.891,24.2788084 52.968,24.3428084 L53.081,24.4468084" id="Fill-493" fill="#334F55"></path>
        <path d="M67.761,39.0428084 L67.741,39.1678084 C67.714,39.2468084 67.67,39.3648084 67.575,39.4948084 C67.395,39.7578084 67.003,40.0738084 66.426,40.1978084 C65.844,40.3288084 65.134,40.1968084 64.43,39.9318084 C64.076,39.7978084 63.709,39.6638084 63.335,39.4768084 C62.971,39.2908084 62.577,39.0258084 62.391,38.5908084 L62.35,38.4788084 L62.514,38.5328084 C61.825,39.0298084 61.117,39.4588084 60.401,39.6958084 C59.69,39.9418084 58.982,39.9648084 58.427,39.8408084 C57.868,39.7228084 57.462,39.4798084 57.23,39.2708084 C57.111,39.1688084 57.031,39.0768084 56.983,39.0108084 L56.918,38.9048084 C56.933,38.8928084 57.039,39.0268084 57.282,39.2098084 C57.521,39.3918084 57.919,39.6048084 58.457,39.6998084 C58.992,39.7998084 59.657,39.7638084 60.337,39.5168084 C61.021,39.2798084 61.707,38.8588084 62.389,38.3668084 L62.503,38.2838084 L62.553,38.4198084 L62.587,38.5128084 C62.738,38.8728084 63.084,39.1188084 63.432,39.2978084 C63.784,39.4778084 64.155,39.6188084 64.499,39.7548084 C65.186,40.0238084 65.854,40.1588084 66.396,40.0548084 C66.94,39.9568084 67.32,39.6808084 67.509,39.4468084 C67.706,39.2118084 67.74,39.0348084 67.761,39.0428084" id="Fill-494" fill="#D4D5CF"></path>
        <path d="M41.283,61.8178084 C41.743,61.1738084 42.569,60.8038084 43.402,60.8708084 C43.98,60.9168084 44.57,61.1788084 44.932,61.6388084 C45.295,62.0978084 45.386,62.7618084 45.08,63.2178084 C44.736,63.7308084 43.991,63.8678084 43.353,63.7048084 C42.714,63.5418084 42.158,63.1398084 41.629,62.7388084 C41.482,62.6278084 41.332,62.5118084 41.239,62.3568084 C41.145,62.2018084 41.12,61.9958084 41.227,61.8628084" id="Fill-495" fill="#EA8C6C"></path>
        <path d="M44.565,59.4458084 C44.349,59.4388084 44.385,60.8798084 43.18,61.9358084 C41.977,62.9948084 40.437,62.8758084 40.431,63.0768084 C40.414,63.1678084 40.781,63.3478084 41.43,63.3478084 C42.066,63.3518084 42.989,63.1228084 43.726,62.4768084 C44.462,61.8288084 44.762,60.9828084 44.795,60.3908084 C44.834,59.7868084 44.663,59.4348084 44.565,59.4458084" id="Fill-496" fill="#132529"></path>
        <path d="M15.337,99.1408084 C15.337,99.1408084 16.437,94.5658084 20.394,90.3738084 C22.139,88.5248084 37.978,83.0488084 37.978,83.0488084 C51.83,86.2318084 58.527,79.9398084 59.957,79.7318084 C60.948,79.5868084 70.152,81.4558084 70.152,81.4558084 L76.869,114.115808 C76.869,114.115808 75.6,136.812808 75.497,136.973808 C75.393,137.134808 76.871,154.965808 76.871,154.965808 C76.871,154.965808 52.907,163.238808 42.323,165.647808 C31.738,168.055808 20.675,154.503808 20.675,154.503808 L23.581,131.445808 L15.337,99.1408084" id="Fill-516" fill="#004D32"></path>
        <path d="M83.643,88.3128084 C84.8011934,89.5606883 87.7772049,100.462076 92.5744721,116.14781 C93.98196,120.749906 97.5285454,131.842622 100.127,136.710386 C105.643667,147.045719 99.5513333,150.278527 81.85,146.408808 L76.552,119.726808 L66.516,81.1508084 C67.451,81.1508084 76.996,81.1508084 83.643,88.3128084 Z" id="Fill-517" fill="#004D32"></path>
        <path d="M20.676,154.647825 C20.658,154.644808 20.663,154.465808 20.689,154.124808 C20.718,153.783808 20.757,153.280808 20.833,152.636808 C20.976,151.346808 21.23,149.486808 21.573,147.193808 C21.921,144.878808 22.329,142.155808 22.781,139.145808 C22.988,137.629808 23.194,136.037808 23.339,134.384808 C23.473,132.732808 23.586,131.011808 23.253,129.314808 C22.928,127.603808 22.233,126.031808 21.673,124.444808 C21.092,122.864808 20.82,121.203808 20.762,119.672808 C20.575,116.589808 20.863,113.797808 21.353,111.520808 C21.843,109.239808 22.466,107.456808 22.93,106.244808 C23.163,105.638808 23.355,105.172808 23.497,104.861808 C23.636,104.548808 23.717,104.388808 23.734,104.394646 C23.774,104.410808 23.525,105.083808 23.12,106.312808 C22.717,107.540808 22.153,109.329808 21.714,111.592808 C21.275,113.853808 21.031,116.603808 21.241,119.642808 C21.315,121.173808 21.579,122.719808 22.155,124.275808 C22.708,125.826808 23.425,127.437808 23.764,129.213808 C24.113,130.999808 23.988,132.768808 23.848,134.428808 C23.694,136.097808 23.476,137.694808 23.256,139.213808 C22.8,142.248808 22.324,144.967808 21.937,147.251808 C21.565,149.479808 21.26,151.309808 21.034,152.664808 C20.937,153.255808 20.858,153.741808 20.793,154.137808 C20.734,154.473808 20.694,154.649808 20.676,154.647825" id="Fill-518" fill="#132529"></path>
        <path d="M96.588474,111.512877 C96.6781701,111.522642 96.3087223,113.769105 95.7636457,116.530025 C95.2185691,119.292336 94.7042276,121.522578 94.6151587,121.512877 C94.5260898,121.503576 94.8949103,119.257112 95.4399869,116.495265 C95.9850635,113.734344 96.4994051,111.503176 96.588474,111.512877" id="Fill-519" fill="#132529" transform="translate(95.6019, 116.5129) rotate(-7) translate(-95.6019, -116.5129)"></path>
        <path d="M77.017,119.93674 C77.16,119.957808 76.571,124.804808 75.702,130.761808 C74.833,136.721808 74.013,141.533808 73.871,141.512877 C73.729,141.492808 74.317,136.645808 75.186,130.686808 C76.055,124.729808 76.875,119.915808 77.017,119.93674" id="Fill-519-Copy" fill="#132529" transform="translate(75.4441, 130.7248) rotate(-4) translate(-75.4441, -130.7248)"></path>
        <path d="M81.017,119.93674 C81.16,119.957808 80.571,124.804808 79.702,130.761808 C78.833,136.721808 78.013,141.533808 77.871,141.512877 C77.729,141.492808 78.317,136.645808 79.186,130.686808 C80.055,124.729808 80.875,119.915808 81.017,119.93674" id="Fill-519-Copy-2" fill="#132529" transform="translate(79.4441, 130.7248) rotate(-23) translate(-79.4441, -130.7248)"></path>
        <path d="M42.562,115.724806 C42.658,115.722808 42.657,116.780808 42.998,118.426808 C43.331,120.069808 44.108,122.288808 45.534,124.415808 C46.97,126.537808 48.735,128.090808 50.133,129.016808 C51.53,129.950808 52.51,130.347808 52.473,130.435808 C52.46,130.468808 52.207,130.393808 51.757,130.225808 C51.304,130.068808 50.675,129.764808 49.935,129.327808 C49.19,128.896808 48.363,128.281808 47.516,127.517808 C46.685,126.736808 45.845,125.795808 45.102,124.706808 C44.372,123.608808 43.816,122.477808 43.404,121.414808 C43.014,120.343808 42.755,119.345808 42.636,118.492808 C42.508,117.642808 42.462,116.946808 42.487,116.466808 C42.501,115.986808 42.526,115.723808 42.562,115.724806" id="Fill-520" fill="#132529"></path>
    </g>
</svg>