<?xml version="1.0" encoding="UTF-8"?>
<svg width="186px" height="127px" viewBox="0 0 186 127" version="1.1" xmlns="http://www.w3.org/2000/svg" xmlns:xlink="http://www.w3.org/1999/xlink">
    <title>Tablet Large Copy 4@1x</title>
    <g id="Tablet-Large-Copy-4" stroke="none" stroke-width="1" fill="none" fill-rule="evenodd">
        <path d="M96.0401911,60.0691406 L96.9354579,61.6444687 C96.9354579,61.6444687 97.0713249,66.4836433 96.9488019,67.4988547 C96.8274921,68.5140662 94.9908608,72.5375708 94.9908608,72.5375708 L96.5327091,80.7071057 L85.5490003,81.0166409 L85.1550577,75.417504 C84.543656,74.8387168 83.7587812,73.3345702 83.7672729,72.3753704 C83.7757646,71.4161706 83.4094088,65.6784756 83.4094088,65.6784756 C83.4094088,65.6784756 80.8497709,59.9827893 82.6293865,59.9034395 C83.0357745,59.8847689 83.9189102,60.0983134 83.9189102,60.0983134 C83.9189102,60.0983134 85.2254174,63.4776839 85.8744251,63.6503865 L86.9031327,63.3026474 C86.9031327,63.3026474 85.9484241,58.2709328 86.0624554,57.10519 C86.1764867,55.9394472 86.6010712,55.1634523 87.6479752,55.166953 C87.6479752,55.166953 88.3649165,55.5391972 88.3806868,55.8414268 C88.396457,56.1436564 89.2140855,61.887186 89.6750629,61.8160045 C90.1372535,61.744823 90.045058,61.0936874 90.045058,61.0936874 C90.045058,61.0936874 89.0794315,53.8693494 89.2880845,53.4060862 C89.4967374,52.9416562 90.1008605,52.259014 91.042225,52.4690578 L92.100047,55.8530959 C92.100047,55.8530959 91.8040509,52.8914791 92.6459413,52.2986889 C93.4878317,51.7058988 94.2096254,52.1784972 94.2096254,52.1784972 L96.0401911,60.0691406 Z" id="Fill-133" fill="#E29074"></path>
        <path d="M176.772057,103 C176.772057,103.468883 177.104423,116.090693 177.422287,128.099615 C177.717186,139.186901 178,149.75231 178,149.75231 L169.458787,150 L165.337443,129.59497 L163,103 L176.772057,103" id="Fill-116" fill="#E29074"></path>
        <path d="M91.0134944,70.999861 C91.078573,71.0115935 91.1405027,70.279485 91.5635137,69.1672431 C91.9865247,68.0831593 92.9123205,66.5872643 94.4826045,65.6545299 L94.5980665,65.585308 L94.5896693,65.4527307 C94.5487327,64.8144822 94.5056969,64.1469024 94.4616113,63.4570309 L94.4584624,63.4159671 L94.4395686,63.3737301 C94.3367024,63.1531589 94.2348859,62.8950437 94.1435659,62.6381017 C93.8339176,61.7663763 93.6386818,60.8747056 93.6323838,60.0405242 C93.6323838,59.6263666 93.6733204,59.2192486 93.8160735,58.8954313 C93.9420321,58.5680943 94.2306872,58.3639487 94.4815548,58.3651219 L94.3608445,58.2923804 C95.1270927,59.3752909 95.7726305,60.2681349 96.2323795,60.8852649 C96.693178,61.5012216 96.9681877,61.8414644 96.997578,61.8191726 C97.0259187,61.7957076 96.8044415,61.4132278 96.3908774,60.7585538 C95.9773133,60.105053 95.3716623,59.1805313 94.6337548,58.0741557 L94.58757,58.0049339 L94.5130444,58.0014141 C94.0595935,57.9756026 93.6659728,58.3064594 93.4875314,58.7217902 C93.2985935,59.1336013 93.2534584,59.5888226 93.2471604,60.039351 C93.2440115,60.9474472 93.4455452,61.8837014 93.7677893,62.7929709 C93.8654073,63.0639918 93.9672238,63.3232803 94.0837355,63.5720095 L94.0616928,63.4887087 C94.1110266,64.1774069 94.1603603,64.84616 94.2054955,65.4832352 L94.31361,65.2826093 C92.6173674,66.3221096 91.7241109,67.9165576 91.3388875,69.0722098 C91.1478503,69.6588352 91.0596792,70.1457344 91.0271399,70.4801109 C90.9966999,70.8156606 90.9914517,70.9975145 91.0134944,70.999861" id="Fill-134" fill="#AE6C5C"></path>
        <path d="M96.2306044,104 C96.0659761,104.009319 95.7835534,101.494264 96.2788576,98.4184898 C96.7585504,95.3403794 97.8158616,92.9584945 97.9719747,93.0005483 C98.1564719,93.0414341 97.3872603,95.451355 96.9160827,98.4815706 C96.4278746,101.50945 96.4207785,103.99647 96.2306044,104" id="Fill-136" fill="#763C34"></path>
        <path d="M122.61865,36.0461829 C119.330102,33.2624761 118.659152,27.7355908 121.178017,24.1992179 C119.406397,22.8745255 118.578369,20.3444094 119.211171,18.1825206 C119.84285,16.0206319 121.887114,14.3832936 124.07387,14.2906577 C124.234314,11.4478956 125.989104,8.76029857 128.482163,7.53982149 C130.9741,6.3193444 134.102205,6.61809496 136.336084,8.28785583 C137.839549,6.02059385 140.611983,4.72253425 143.255389,5.05023351 C145.898794,5.37793276 148.295362,7.31633755 149.234466,9.88698188 C151.707329,9.17137008 154.492105,9.72371123 156.531881,11.3344168 C158.570534,12.9451223 159.81482,15.574822 159.791258,18.2253647 C162.33144,17.8258727 165.043287,18.9351868 166.627535,21.0218089 C168.212905,23.1095889 168.607845,26.0913048 167.623861,28.5415225 C169.273185,29.2525025 170.538788,30.842365 170.894458,32.6499217 C171.251251,34.4574783 170.688012,36.4306216 169.438117,37.7506822 C170.642011,38.9306311 171.057147,40.8898789 170.441175,42.4808993 C169.824081,44.0719197 168.215149,45.1951292 166.554606,45.1928133 C166.826127,46.532559 166.30889,48.0101005 165.271051,48.8611922 C164.232089,49.7134419 162.720771,49.8998715 161.517999,49.3232135 C161.54156,51.3171997 160.171612,53.244025 158.321453,53.8183672 C156.471293,54.3927094 154.299123,53.5659346 153.25343,51.889226" id="Fill-137" fill="#132529"></path>
        <path d="M124.880374,28.6668433 C125.848607,21.9836361 133.438521,15.8917201 139.884058,17.1713112 L157.652199,22.7204404 L158,26.0533825 L152.848058,71.7883696 L153.392198,71.7883696 C153.392198,71.7883696 152.244455,85.6929514 140.476442,83.8278434 C129.904414,82.1532883 132.713749,70.8136631 132.713749,70.8101985 L133.97593,61.2259689 C133.97593,61.2259689 123.880726,60.537669 123.081906,49.1853403 C122.68474,43.5403573 123.804434,36.0914742 124.880374,28.6668433" id="Fill-138" fill="#E29074"></path>
        <path d="M128.010099,40.2845547 C127.914794,41.1036943 128.504722,41.863966 129.327485,41.9842067 C130.150248,42.1031949 130.894594,41.5370617 130.9899,40.7166696 C131.085205,39.8962775 130.495277,39.1347533 129.674927,39.0157651 C128.850958,38.896777 128.105405,39.4641626 128.010099,40.2845547" id="Fill-139" fill="#132529"></path>
        <path d="M126.015768,35.4559972 C126.15754,35.6851148 127.172227,34.8786208 128.527167,35.0318023 C129.882108,35.1614174 130.817807,36.1721534 130.97882,35.9744576 C131.056795,35.8867383 130.923123,35.4861098 130.517046,35.030493 C130.118058,34.5774948 129.416284,34.1022394 128.571724,34.0145201 C127.727165,33.9268008 126.99096,34.2501839 126.555516,34.6167721 C126.110958,34.9833603 125.944881,35.3525669 126.015768,35.4559972" id="Fill-140" fill="#132529"></path>
        <path d="M138.010322,41.2840141 C137.913817,42.1046647 138.504908,42.8651761 139.327609,42.9842017 C140.149105,43.1032274 140.894603,42.5369158 140.989901,41.7162652 C141.085199,40.8968675 140.495315,40.1351032 139.67382,40.0160776 C138.851118,39.895799 138.10562,40.4633635 138.010322,41.2840141" id="Fill-141" fill="#132529"></path>
        <path d="M140.015326,37.4559846 C140.15809,37.6864164 141.17364,36.8785958 142.527369,37.0330898 C143.88211,37.1613985 144.817672,38.1721561 144.978661,37.9744561 C145.056625,37.8867349 144.924998,37.4874071 144.516956,37.0317806 C144.118026,36.5774633 143.416355,36.103507 142.57192,36.0144765 C141.727484,35.9267553 140.991388,36.2514547 140.556008,36.6167415 C140.112527,36.9846468 139.945463,37.3525521 140.015326,37.4559846" id="Fill-142" fill="#132529"></path>
        <path d="M133.606903,46.9644229 C133.622075,46.895813 133.504835,46.8260202 131.660705,46.5160928 C131.193121,46.445117 130.753123,46.3457509 130.691055,46.1245432 C130.600021,45.8891403 130.824847,45.5662006 131.084156,45.2196023 C131.590361,44.4956496 132.121393,43.737392 132.678632,42.9424636 C133.274491,42.115596 134.931035,39.475298 135,39.0056751 C134.798622,38.9370652 134.1669,39.4516394 131.946221,42.6987801 C131.409672,43.5008062 130.89795,44.2637955 130.409677,44.9948458 C130.201402,45.3378952 129.860714,45.7176155 130.060713,46.2085312 C130.168298,46.4533975 130.499331,46.6521296 130.797261,46.7302029 C131.093811,46.8165568 131.358638,46.8413983 131.590361,46.8697886 C133.4538,47.0898134 133.606903,46.9644229 133.606903,46.9644229" id="Fill-143" fill="#132529"></path>
        <path d="M133.9562,61.1939923 C133.9562,61.1939923 140.255642,62.1162209 148.5,58.5 C148.5,58.5 145.182844,66.0828886 133.5,64.1993724 L133.9562,61.1939923" id="Fill-144" fill="#AE6C5C"></path>
        <path d="M140.00714,31.7129942 C140.139357,32.3262755 141.4482,32.0253934 142.989256,32.3349133 C144.533645,32.5897273 145.778046,33.3570487 145.980261,32.8042318 C146.070257,32.54078 145.851376,31.964929 145.34695,31.3718025 C144.846968,30.7815553 144.050329,30.2229799 143.125918,30.0516642 C142.201506,29.8846675 141.355981,30.1423608 140.797112,30.5396979 C140.232687,30.9355955 139.950475,31.4207499 140.00714,31.7129942" id="Fill-145" fill="#132529"></path>
        <path d="M126.018267,29.9293569 C126.213587,30.5246924 127.272262,30.1991419 128.474309,30.4508407 C129.68363,30.6332093 130.6488,31.3250042 130.944897,30.8170851 C131.076842,30.5668934 130.977104,29.9911513 130.588542,29.3792368 C130.208292,28.7703367 129.522595,28.1870586 128.693525,28.0363408 C127.865493,27.8886373 127.09772,28.2096663 126.61981,28.6648342 C126.135667,29.1184949 125.935152,29.6399787 126.018267,29.9293569" id="Fill-146" fill="#132529"></path>
        <path d="M124.53593,22.4488957 C126.844109,18.6801137 130.85018,16.2615741 135.047179,15.4038431 C139.243042,14.5461121 143.616194,15.1337946 147.71091,16.4221756 C151.805627,17.7117462 155.669639,19.6817913 159.513194,21.6435089 C160.443967,22.1193652 161.454292,22.679686 161.831602,23.689691 C162.088445,24.3761137 161.998663,25.143432 161.906609,25.8738714 C161.123578,32.0266935 160.341684,38.1807051 159.558653,44.3335272 L157.681198,48 C155.766239,47.8631913 154.259274,46.2655038 153.123937,44.6464027 C149.162188,38.9908505 147.394971,31.6995423 148.300741,24.7508506 C147.674543,25.4741521 147.424519,26.4567954 147.049483,27.3502156 C146.675583,28.2424462 146.059614,29.1465732 145.143615,29.3262089 C143.613921,29.6259984 142.489948,27.7487453 142.377437,26.1248856 C142.266063,24.4998364 142.654737,22.7760469 142.008083,21.2949441 C140.321556,23.4719867 138.155436,25.2397929 135.727927,26.4211062 C134.583498,26.9778581 133.09358,27.3537845 132.16849,26.4544161 C131.515018,25.8179583 131.419554,24.7330059 131.702536,23.8467236 C131.985518,22.9592516 131.686625,23.4065565 132.265091,22.6939617 C130.297854,24.6211797 128.672696,24.7449023 126.016756,25.2207587 C125.432608,25.325447 124.756406,25.3635155 124.330228,24.9316759 C123.709713,24.3035456 124.071112,23.2090761 124.53593,22.4488957" id="Fill-147" fill="#132529"></path>
        <path d="M154.199229,46.1378594 C154.362467,46.0814113 160.71808,44.7997094 159.93283,51.3299695 C159.146514,57.8602296 152.988281,55.6952824 153,55.5071223 C153.011753,55.3178555 154.199229,46.1378594 154.199229,46.1378594" id="Fill-148" fill="#E29074"></path>
        <path d="M158.291856,50.9634897 C158.331256,50.8544084 158.363862,50.7424053 158.386959,50.6294282 C158.498365,50.1083703 158.433152,49.5960777 158.245663,49.1607265 C158.074478,48.7185576 157.745694,48.3913137 157.3286,48.2987894 C156.916941,48.1897081 156.582723,48.3465125 156.45773,48.4994211 C156.321869,48.6503818 156.353117,48.7692025 156.308283,48.7750462 C156.283828,48.7877074 156.153402,48.664017 156.259373,48.4322192 C156.312359,48.3211901 156.4292,48.1936039 156.637067,48.1010796 C156.849011,48.0056334 157.142471,47.9734934 157.434572,48.0231644 C158.047306,48.1088711 158.533689,48.566623 158.738839,49.0448276 C158.977955,49.5279019 159.068982,50.1044745 158.943989,50.6898125 C158.691288,51.8429577 157.675046,52.8529336 156.475392,52.9892853 C155.892548,53.0438259 155.442848,52.880204 155.224111,52.7233996 C155.001299,52.5588037 154.98092,52.4263478 155.010809,52.4185563 C155.04885,52.4039472 155.138519,52.5013412 155.359972,52.5997092 C155.57735,52.6961293 155.964555,52.7837839 156.400669,52.7087905 C157.190022,52.5773086 157.975299,51.8497753 158.291856,50.9634897" id="Fill-149" fill="#AE6C5C"></path>
        <path d="M134,49.4362756 C135.39152,48.6554842 136.784046,47.8734555 138.175566,47.0926642 C138.292365,47.0258453 138.429301,46.9602638 138.545094,47.0295575 L138.713244,47.2733227 C139.169364,48.3770721 139.074717,49.7938804 138.476625,50.7899771 C137.878534,51.7873112 136.961258,52.1523404 135.968467,51.943222 C134.975675,51.7341036 134.293004,50.6216925 134,49.4362756" id="Fill-150" fill="#AE6C5C"></path>
        <path d="M113.028601,106 C113.060957,106.002329 113.118974,105.639625 113.197074,104.984419 C113.274059,104.328043 113.371127,103.377995 113.480467,102.203304 C113.698032,99.8539226 113.968036,96.607143 114.235809,93.0187202 C114.503582,89.4291274 114.720031,86.1776677 114.853917,83.8224362 C114.919745,82.6442355 114.965489,81.6906768 114.986688,81.0296207 C115.007887,80.3697347 115.00454,80.0035214 114.971068,80 C114.938712,79.9976713 114.880695,80.3580346 114.80371,81.0132406 C114.726726,81.6684466 114.629658,82.6184952 114.520317,83.793186 C114.301636,86.1425674 114.032748,89.3916871 113.76386,92.9836199 C113.496087,96.5732127 113.279638,99.8258424 113.146867,102.182244 C113.079924,103.360445 113.034179,104.314003 113.012981,104.972719 C112.991782,105.632605 112.996245,105.998819 113.028601,106" id="Fill-156" fill="#132529"></path>
        <path d="M136.823342,51.9608611 C136.802699,51.8851417 137.443603,51.8929364 138.022578,51.1212671 C138.308626,50.7515785 138.526848,50.2059537 138.589758,49.553431 C138.624163,49.2282832 138.620231,48.8797515 138.589758,48.5200845 C138.549456,48.182688 138.517018,47.7194637 138.38923,47.5279383 C138.315507,47.3531157 137.993089,47.5245977 137.695246,47.709442 C137.405266,47.8753565 137.122168,48.0368169 136.844967,48.1960502 C136.339715,48.4744302 135.857071,48.741675 135.39507,48.9966711 C134.562485,49.4409655 134.030693,49.690394 134.001203,49.6358315 C133.972697,49.5823825 134.452392,49.2349643 135.25647,48.713837 C135.709624,48.4287759 136.183421,48.1314661 136.679826,47.818567 C136.957027,47.6504255 137.239143,47.4800569 137.528139,47.3041208 C137.679518,47.2172662 137.810254,47.1192765 138.008817,47.0468977 C138.186736,46.9589296 138.536677,46.9800865 138.699852,47.2373096 C138.856146,47.4655812 138.88367,47.6983068 138.916108,47.8920593 C138.945597,48.0891523 138.968206,48.2851318 138.982951,48.4799978 C139.010474,48.8675028 139.006542,49.2494401 138.957393,49.609107 C138.868925,50.3295544 138.58386,50.9542391 138.231953,51.3406305 C137.886927,51.7392706 137.502581,51.9174338 137.239143,51.9731098 C136.970789,52.0276723 136.822359,51.986472 136.823342,51.9608611" id="Fill-157" fill="#132529"></path>
        <path d="M95.2267394,72 L99.0304985,93.2445324 L107.716905,82.7572874 L120,91.1454031 C120,91.1454031 104.386116,115.47802 98.7034199,115.86328 C93.0207239,116.248541 87.5333337,116.440571 85.9661802,107.394752 C84.3978502,98.3477329 85.7532262,75.7385864 85.7532262,75.7385864 L95.2267394,72" id="Fill-132" fill="#E29074"></path>
        <path d="M173.698103,78.1165745 C175.068799,82.2686371 179,104.443246 179,104.443246 L162.337651,106.621979 L165.011037,70 C165.011037,70 171.187033,70.5024939 173.698103,78.1165745 Z" id="Fill-153" fill="#BCBCBC"></path>
        <path d="M122,69 C122,69 114.766406,70.0766438 111.859544,74.3569012 C108.951544,78.6371587 100,88.9872948 100,88.9872948 L116.608367,98 L122,69" id="Fill-154" fill="#BCBCBC"></path>
        <path d="M110,142.102264 C110,142.102264 111.065169,130.622484 111.659708,120.97645 C112.254247,111.331577 114.035592,80.4401105 115.223534,76.1803399 C116.411475,71.9205693 122.207949,68.8685853 122.207949,68.8685853 L133.125646,67 C138.409429,70.7801399 145.582551,70.2772826 153.646914,67.7571893 L165,70.06592 L164.804473,95.3307263 L163.209561,119.740791 L164.967033,141.470499 C148.234674,145.920728 129.851701,143.412248 110,142.102264" id="Fill-155" fill="#BCBCBC"></path>
        <g id="Group" transform="translate(7, 30)">
            <path d="M59.5566993,13.8337511 C57.5405841,15.3077281 56.6401929,18.1309379 57.432417,20.4940913 C58.2246411,22.8562467 60.6473846,24.5737243 63.1472473,24.5427878 C65.2254584,24.5178389 67.4549032,22.9380789 67.3216974,20.8713176 C67.6121462,22.7684268 68.8901208,24.5427878 70.6949095,25.2104185 C72.5006997,25.8780493 74.7631956,25.2692978 75.8118159,23.6595991 C76.8594346,22.0499005 76.3776902,19.581962 74.6950904,18.6468798 C76.8333944,18.8364909 79.0748578,18.0501037 80.4980568,16.4483887 C81.9222574,14.8476716 82.4250343,12.4376144 81.6077715,10.459671 C80.7905087,8.48172764 78.6191536,7.09956234 76.4858574,7.34705476 C77.4032749,4.72842534 75.993096,1.5229994 73.4401513,0.418265117 C70.8872066,-0.685471213 67.5740874,0.478142314 66.2810895,2.93410534 C64.8729137,0.843393215 61.9223546,-0.0537667857 59.5827396,0.896284739 C57.2431245,1.84633626 55.7628373,4.54380399 56.2225476,7.01972608 C54.3546614,7.93684515 53.3290767,10.2800395 53.9249975,12.2689603 C54.5209183,14.2568833 56.6672347,15.6560138 58.7344288,15.4035316" id="Fill-327" fill="#132529"></path>
            <path d="M65.0134762,15.3951458 C63.334285,13.5689073 60.9028404,13.4168886 59.4508398,14.0269771 C59.1772013,11.5987041 59.201435,9.87314032 57.0234342,8.63182168 C54.7222455,7.32003077 53.6690907,7.58077816 51.0538741,7.97844309 C49.1616286,6.70692205 46.7251352,6.14515742 44.425966,6.4512084 C42.1278066,6.75625264 39.9942341,7.92508552 38.6240222,9.62950762 C35.6877095,9.49661706 32.7816889,11.1466748 31.621502,13.6051502 C31.078264,14.7568684 30.8742973,16.0787268 30.0099631,17.0482238 C29.3839267,17.7499262 28.8144356,18.4647164 28.5428165,19.3486399 C28.0429971,20.9825898 28.1984965,21.7618117 28.8053479,23.5256318 C29.2253982,24.7458088 30.129112,26.5005682 29.3990728,27.5657062 C26.5657532,31.695381 30.515841,36.4633332 31.8668679,36.84187 L55.5270052,45.7173486 C56.9911226,47.170084 59.4356938,47.7076867 61.4258837,47.0160518 C63.4160737,46.3244168 64.8256653,44.4468343 64.8276848,42.484685 C68.0669183,40.7228784 69.5512305,36.6858242 68.1567849,33.4310123 C71.0920878,30.9654897 71.0395815,25.1595817 66.3493572,20.9503739 C67.1712824,17.8586549 66.6048204,17.1247365 65.0134762,15.3951458 Z" id="Fill-328" fill="#132529"></path>
            <path d="M45.2576124,12.8331527 L56.5950512,15.6153495 C60.7324247,16.6304891 63.558666,20.5941247 63.2684308,24.9719781 L61.1353037,31.6892437 L59.9246373,59.8846193 L60.8602906,60.2784323 C60.8602906,60.2784323 58.7515189,73.024301 48.3101559,71.800012 C38.9302825,70.7012126 41.6215542,59.2826772 41.6215542,59.2785963 L42.0376256,51.8726681 C42.0376256,51.8726681 32.7298035,50.910581 31.5952478,40.8928363 C31.0299996,35.9110003 31.8063279,30.1599027 32.4720422,23.5497624 C33.0717939,17.6007381 39.5290194,11.9343206 45.2576124,12.8331527 Z" id="Fill-329" fill="#AE6C5C"></path>
            <path d="M35.8903657,34.5692324 C36.6424941,34.6466107 37.2966657,34.1038248 37.3518368,33.3528002 C37.4070079,32.6029136 36.8417856,31.932681 36.0896572,31.8541648 C35.3364028,31.7767866 34.6811053,32.3218483 34.6259342,33.071735 C34.5707631,33.8216216 35.1371113,34.4918541 35.8903657,34.5692324 Z" id="Fill-330" fill="#132529"></path>
            <path d="M35.9771495,28.7267809 C37.2107426,28.7348262 38.1168613,29.2087694 38.2514543,29.1012545 C38.3171612,29.0537139 38.1719702,28.8555062 37.7777291,28.6419392 C37.388787,28.4283722 36.7264196,28.2169994 35.9570136,28.2074913 C35.1865478,28.1987146 34.5400772,28.3947281 34.1680916,28.598787 C33.7876278,28.8035772 33.6593934,28.998128 33.7293394,29.0471314 C33.871351,29.1583032 34.7414369,28.7055705 35.9771495,28.7267809 Z" id="Fill-331" fill="#132529"></path>
            <path d="M46.823699,34.5692453 C47.5758274,34.646624 48.229999,34.1026976 48.2851701,33.3528075 C48.3403412,32.6029174 47.775119,31.9326817 47.0229905,31.8541652 C46.2697362,31.7767865 45.6144386,32.3218508 45.5592675,33.070603 C45.5040964,33.8216311 46.0704446,34.4907288 46.823699,34.5692453 Z" id="Fill-332" fill="#132529"></path>
            <path d="M48.7319658,28.7264673 C49.9667934,28.7345191 50.8730402,29.208843 51.0065924,29.1012418 C51.0733685,29.053663 50.928157,28.856028 50.5328002,28.6415575 C50.1448629,28.4285509 49.4824018,28.2162763 48.711827,28.2074925 C47.9423121,28.1987088 47.2946901,28.3941478 46.9237118,28.5983706 C46.5431941,28.8040573 46.4149417,28.9980324 46.4848976,29.0478071 C46.6269292,29.1583363 47.4971382,28.7052398 48.7319658,28.7264673 Z" id="Fill-333" fill="#132529"></path>
            <path d="M39.5831381,38.6521945 C39.2167608,38.6036962 38.8701876,38.5288402 38.8129755,38.334847 C38.7326585,38.1282022 38.8943927,37.8361582 39.0814322,37.5209193 C39.4456091,36.8640839 39.8273897,36.1756191 40.2278743,35.4544707 C40.6569649,34.7038016 42.788115,30.44755 42.8222222,30.0279344 C42.6626885,29.9741646 41.2422885,32.3168426 39.6491521,35.2604776 C39.265171,35.9868975 38.8976934,36.6795795 38.5489197,37.3416865 C38.4003883,37.6516538 38.1517358,37.9974677 38.3266728,38.4265721 C38.4201925,38.6405971 38.6864488,38.8071782 38.919698,38.8683282 C39.1540475,38.935804 39.3608912,38.9505644 39.5424295,38.9684877 C40.9991372,39.1076567 41.9035282,39.1624808 41.9112298,39.1013308 C41.9200317,39.0391265 41.0277432,38.8725454 39.5831381,38.6521945 Z" id="Fill-334" fill="#132529"></path>
            <path d="M53.9971408,49.1351351 C53.9971408,49.1351351 50.6860627,55.7064933 41.9,54.3912696 L42.065898,51.9393279 C42.065898,51.9393279 47.9790223,52.6391627 53.9971408,49.1351351 Z" id="Fill-335" fill="#643B32"></path>
            <path d="M49.1954291,26.0479409 C50.60231,26.1609485 51.7530187,26.6102227 51.9193241,26.2500683 C51.9926637,26.07826 51.7767766,25.7171869 51.3016186,25.3551951 C50.8305924,24.994122 50.0920316,24.663368 49.2491426,24.5843545 C48.4062536,24.5080974 47.6480666,24.7010372 47.1543155,24.9729904 C46.6564325,25.2449437 46.4157546,25.5637538 46.4756659,25.7484248 C46.6140815,26.136142 47.790614,25.9009391 49.1954291,26.0479409 Z" id="Fill-336" fill="#132529"></path>
            <path d="M35.9736359,25.2062959 C37.0740535,25.2778094 37.9694725,25.6801921 38.2237869,25.3474159 C38.336923,25.1843651 38.2295888,24.823937 37.8611713,24.4501597 C37.4985556,24.0782895 36.8603521,23.7331176 36.1051445,23.6682787 C35.349937,23.6043933 34.6624177,23.8370506 34.2417835,24.1421749 C33.8153475,24.4472992 33.6480608,24.7857964 33.7321876,24.965057 C33.9255826,25.3359737 34.8770861,25.0899672 35.9736359,25.2062959 Z" id="Fill-337" fill="#132529"></path>
            <path d="M67.396981,36.3474829 C66.9200517,42.5510515 61.0413566,40.7442883 61.0444444,40.5657007 C61.0475371,40.3871131 61.4616313,32.1595519 61.4616313,32.1595519 C61.4616313,32.1595519 67.8728803,30.1439143 67.396981,36.3474829 Z" id="Fill-338" fill="#AE6C5C"></path>
            <path d="M63.1289214,38.7176007 C63.2857809,38.8157841 63.5639845,38.8981315 63.8698111,38.804171 C64.4903432,38.6173058 65.0733869,37.6122456 65.1838791,36.48472 C65.2401118,35.9146228 65.1700676,35.3614173 65.0191274,34.8947822 C64.879039,34.4197012 64.6324046,34.0734199 64.3334838,33.9868496 C64.036536,33.881276 63.8076593,34.0607511 63.7247901,34.2307245 C63.6360017,34.3996422 63.6626383,34.5273862 63.6320556,34.5358321 C63.6152845,34.5495567 63.5166307,34.4197012 63.5817422,34.1642132 C63.6142979,34.0428036 63.6922344,33.9002793 63.8342958,33.7925943 C63.9803033,33.6827978 64.1864897,33.6395126 64.3956356,33.6838535 C64.8336583,33.7588107 65.1967041,34.2402261 65.3624424,34.7533136 C65.5528442,35.2695683 65.6426191,35.8935081 65.5804672,36.5332838 C65.4512308,37.7927764 64.7774257,38.920302 63.9339361,39.1061114 C63.524523,39.1842358 63.1999522,39.0195411 63.0371735,38.8559021 C62.8724217,38.6848729 62.8526909,38.5412929 62.8734082,38.5317913 C62.8990582,38.5138438 62.9671293,38.6173058 63.1289214,38.7176007 Z" id="Fill-339" fill="#643B32"></path>
            <path d="M43.565257,41.852218 C44.0435893,41.8796201 44.7450766,41.7567834 45.3565014,41.3277998 C45.9659247,40.8978714 46.2921513,40.2969164 46.4012271,39.8565941 C46.516307,39.4096575 46.4552646,39.1261882 46.4022278,39.1261882 C46.3381833,39.1214637 46.2881486,39.3869799 46.1130269,39.7658839 C45.9439094,40.1419532 45.6206849,40.6351898 45.0993227,41.002755 C44.5779605,41.3684304 43.985549,41.519614 43.5552501,41.565914 C43.1209484,41.6150487 42.8367509,41.584812 42.8227412,41.6443405 C42.8087315,41.6925303 43.0789192,41.8285956 43.565257,41.852218 Z" id="Fill-340" fill="#132529"></path>
            <path d="M33.6510414,37.1627985 C33.3731843,37.0958869 33.0897701,36.9937586 32.9286129,36.8027084 C32.726333,36.5623548 32.7752358,36.2233947 32.9875186,35.9874432 C33.1998015,35.7514917 33.5465671,35.6097447 33.9022243,35.5445939 C34.1667442,35.4970515 34.4379328,35.4864865 34.7102327,35.4864865 C34.8047042,35.4864865 34.8991756,35.4882473 34.993647,35.4891277 C35.4404412,35.580691 35.9628126,35.7004276 36.2273326,35.999769 C36.4918525,36.2991104 36.5296411,36.6063756 36.2573411,36.9021954 C35.9972669,37.1830481 35.5226869,37.2798938 35.0836727,37.3010238 C35.0058727,37.3045455 34.9269613,37.3063063 34.8480499,37.3063063 C34.4434899,37.3063063 34.0378185,37.2578834 33.6510414,37.1627985 Z" id="Fill-344" fill="#905A4D"></path>
            <path d="M64.0223007,20.4376214 C63.0595815,19.1303449 62.5639442,16.5258556 61.2432647,15.5718154 C58.4050786,13.519824 54.4399806,13.4312633 51.0011147,12.6976185 C47.5622489,11.9649801 42.2152816,9.98142198 39.0242344,11.4426733 L30.9777778,20.2303089 C31.3143216,21.7428852 33.666049,22.5560333 34.6083716,21.9119556 C35.5496745,21.2668715 36.0534704,20.0541939 35.8393061,18.9431598 C37.6342064,19.8066265 41.1444604,18.7922041 41.80531,16.9344424 C43.5920517,19.3467148 46.2680849,20.1055188 48.8574326,18.5557068 C48.8033817,20.1518119 49.6467808,21.7489234 51.0031544,22.6184284 C52.3605478,23.4889397 54.1819637,23.6006469 55.6372607,22.9042379 C54.8479125,24.0897434 54.3186208,25.5338865 54.6062128,26.9246918 C54.892785,28.3144908 56.1991869,29.550315 57.6289882,29.4084166 C56.863096,30.2235775 56.2206033,31.1856686 55.9676855,32.2685243 C55.7147677,33.3523863 55.8952776,34.5680831 56.6162972,35.4224924 C57.3373168,36.2769018 58.6396394,36.6673739 59.6574295,36.1903538 C60.4794123,35.8049136 60.9740297,34.9766699 61.4207151,34.1947192 C62.1427545,32.9297103 62.864794,31.6657078 63.5868334,30.4017052 C64.5607708,28.6948992 65.5622436,26.8965134 65.5989575,24.9371082 C65.6295524,23.3228884 64.9840002,21.7448979 64.0223007,20.4376214 Z" id="Fill-345" fill="#132529"></path>
            <path d="M67.9242861,22.6674417 C67.6169805,22.066495 67.0202126,21.2095709 65.9436514,20.6306222 L65.8633554,20.587626 L65.8911121,20.4986339 C66.256905,19.3137389 66.2232005,17.6898828 65.4033882,16.2260125 C64.6192631,14.7571426 62.9023165,13.6382418 60.9762038,13.5812468 C60.3834012,13.5632484 59.7985291,13.6432413 59.2701616,13.8072268 L59.0352214,13.8812202 L59.0669433,13.6342421 C59.2889964,11.9463917 58.6575328,10.3165361 57.7058765,9.24763081 C56.7512463,8.14872818 55.4744407,7.65377204 54.4137405,7.52078382 C53.3391619,7.38279605 52.462845,7.56877957 51.8968078,7.75476309 C51.3248227,7.94474625 51.0363519,8.11873084 51.0224736,8.09273314 C51.017517,8.08373394 51.0859173,8.03573819 51.2237092,7.95274555 C51.3595185,7.86675317 51.5716585,7.75776282 51.8581467,7.64577275 C52.4251753,7.42179259 53.320327,7.19581262 54.4375319,7.30980251 C55.5388758,7.41779295 56.8930034,7.91274909 57.9140513,9.05864756 C58.9281601,10.1725489 59.6091891,11.8793976 59.3792055,13.6772383 L59.1759872,13.5042536 C59.7380593,13.3272693 60.3596098,13.2422769 60.9871082,13.2612752 C63.0222648,13.31927 64.8442901,14.5191637 65.6581546,16.0820252 C66.5067148,17.6348876 66.5126626,19.3367369 66.1012695,20.5666279 L66.0487302,20.4336397 C67.1669263,21.0695833 67.7517984,21.9815025 68.0343214,22.6144464 C68.1780612,22.935418 68.2504267,23.1993946 68.2920617,23.3793786 C68.3297314,23.5593627 68.3396445,23.6553542 68.3297314,23.657354 C68.2999921,23.6663532 68.2335744,23.2813873 67.9242861,22.6674417 Z" id="Fill-346" fill="#334F55"></path>
            <path d="M12.3186031,74.490105 L19.7457828,67.0362279 L28.2444444,72.8834318 C28.2444444,72.8834318 16.385965,91.5015246 12.0695395,91.7962993 C7.75413056,92.091074 3.58714322,92.2379584 2.39672064,85.3162855 C1.20629806,78.3946126 2.23508342,61.0944546 2.23508342,61.0944546 L9.4304814,58.2342342 L12.3186031,74.490105 Z" id="Fill-348" fill="#AE6C5C"></path>
            <path d="M10.2334727,48.1851483 L10.8863758,49.4205686 C10.8863758,49.4205686 10.9849651,53.2170794 10.8964359,54.0132838 C10.8069007,54.8094881 9.46890201,57.9652249 9.46890201,57.9652249 L10.5926197,64.3739678 L2.11896354,64.6036036 L2.29904005,60.2244798 C1.85337584,59.7712249 1.28195987,58.5909573 1.28799595,57.8388751 C1.29403204,57.0857901 1.02743832,52.5853304 1.02743832,52.5853304 C1.02743832,52.5853304 -0.838717696,48.1169595 0.459040397,48.0547873 C0.75480852,48.0407485 1.3986575,48.2082121 1.3986575,48.2082121 C1.3986575,48.2082121 2.35034676,50.8585497 2.82317336,50.9949273 L3.57365982,50.7211694 C3.57365982,50.7211694 2.87749811,46.7742421 2.96099728,45.8597102 C3.04349043,44.9451782 3.35334275,44.3364931 4.11690739,44.3395014 C4.11690739,44.3395014 4.63902867,44.6313093 4.65110084,44.8689672 C4.66216699,45.1056224 5.2577273,49.6110961 5.594742,49.5559434 C5.93075068,49.4997879 5.86334774,48.988372 5.86334774,48.988372 C5.86334774,48.988372 5.16014394,43.3216835 5.31205205,42.9586785 C5.46396017,42.5946707 5.90459432,42.0591882 6.59069588,42.2236435 L7.36130262,44.8779922 C7.36130262,44.8779922 7.14601562,42.5555625 7.75968418,42.0902743 C8.37335273,41.6249861 8.89949807,41.9960133 8.89949807,41.9960133 L10.2334727,48.1851483 Z" id="Fill-349" fill="#AE6C5C"></path>
            <path d="M5.06918167,54.0942201 C5.45436417,53.2589975 6.29763093,52.1071028 7.7284642,51.3886531 L7.83400856,51.3362043 L7.82639196,51.2342755 C7.78830894,50.7434337 7.74913784,50.227852 7.70887865,49.6984159 L7.70670248,49.6657591 L7.6892931,49.6331023 C7.59571769,49.4638807 7.50323037,49.264971 7.41944774,49.067051 C7.13763343,48.396102 6.96027539,47.7093195 6.95374687,47.067069 C6.95374687,46.7474281 6.99182989,46.4347144 7.12131214,46.1853352 C7.23664927,45.9339767 7.49887803,45.7756407 7.72737612,45.7776199 L7.61747942,45.7212127 C8.31603072,46.5554457 8.90359724,47.2422282 9.3225104,47.7172363 C9.74251165,48.1922444 9.99277146,48.4534989 10.0199736,48.4356861 C10.0460877,48.4188629 9.84370366,48.123962 9.46722586,47.6202555 C9.09074805,47.116549 8.53908838,46.4050264 7.86556306,45.5529806 L7.82421578,45.5005318 L7.75566636,45.4965734 C7.34328171,45.4767814 6.98421328,45.7320983 6.82100036,46.0517391 C6.65017084,46.3684112 6.60882356,46.7187297 6.60229505,47.0660794 C6.59903079,47.7647371 6.78400543,48.4861557 7.0767006,49.1867926 C7.16592367,49.3955983 7.25841099,49.5945079 7.36504343,49.7864903 L7.34545788,49.7221663 C7.39006941,50.252592 7.43468094,50.7661946 7.47602822,51.2570363 L7.57395597,51.1026586 C6.02887365,51.9032452 5.21498522,53.1303495 4.86462148,54.0209896 C4.6905277,54.4732369 4.60892123,54.8473058 4.580631,55.1046019 C4.55234076,55.3628875 4.54798841,55.5024212 4.56757396,55.5044004 C4.62633061,55.5133068 4.68291109,54.9502242 5.06918167,54.0942201 Z" id="Fill-350" fill="#643B32"></path>
            <path d="M3.50139365,51.5306897 C2.46673958,52.0348315 1.77361291,52.7007723 1.8248878,52.7668731 C1.87799394,52.8457994 2.62972048,52.3189663 3.62866525,51.8335694 C4.62394753,51.3402799 5.48646447,51.0739036 5.46632076,50.979192 C5.45350204,50.8943463 4.53238523,51.0216149 3.50139365,51.5306897 Z" id="Fill-351" fill="#643B32"></path>
            <path d="M11.9710364,79.0946154 C12.1895522,76.5489891 12.6721999,74.5791718 12.7428312,74.6130429 C12.826706,74.646914 12.4764921,76.6410762 12.261655,79.147539 C12.0394605,81.6518849 12.0357818,83.7084969 11.9496998,83.7117117 C11.874654,83.7190817 11.7458989,81.6391832 11.9710364,79.0946154 Z" id="Fill-352" fill="#643B32"></path>
            <path d="M25.5111111,113.976172 C25.5111111,113.976172 37.9606194,123.670405 52.7088599,121.651238 C67.4560791,119.632071 72.8888889,109.74008 72.8888889,109.74008 C72.8888889,109.74008 70.8597549,92.1618672 70.6044536,85.406633 C70.2929862,77.1991402 70.7535495,59.5844185 70.7535495,59.5844185 L60.1912278,55.5045045 C60.1912278,55.5045045 55.5151308,61.0052386 49.6156304,60.1979775 C43.71613,59.3897022 41.781968,55.5045045 41.781968,55.5045045 L34.5426468,56.7874006 L28.935211,67.5241765 L25.5111111,113.976172 Z" id="Fill-353" fill="#10AC73"></path>
            <path d="M28.2831154,59.6426127 C25.7547652,61.3526122 14.5777778,71.8723819 14.5777778,71.8723819 C14.5777778,71.8723819 19.609599,88.7535133 19.609599,88.4426043 L31.773462,80.8161293 L35.5333333,56.6 C35.5333333,56.6 32.1373205,57.0377271 28.2831154,59.6426127 Z" id="Fill-354" fill="#10AC73"></path>
            <path d="M29.0605374,69.3709122 C28.9563553,71.1860939 28.7737566,73.690206 28.5351461,76.4529165 C28.2976557,79.2166255 28.048963,81.7157453 27.8394786,83.5239379 C27.6311144,85.331132 27.4619586,86.4464004 27.3813015,86.4414414 C27.3006444,86.4364159 27.3252896,85.3121615 27.4283515,83.4969798 C27.5325336,81.681798 27.7151323,79.1766875 27.9537428,76.4119801 C28.1923534,73.6472726 28.4410461,71.1471544 28.6494103,69.3389618 C28.8577744,67.5317677 29.0269303,66.4164993 29.1075874,66.4234234 C29.1882445,66.4294791 29.1635993,67.5557305 29.0605374,69.3709122 Z" id="Fill-356" fill="#132529"></path>
            <path d="M106.253947,75.2512544 C106.149765,77.6088666 105.967166,80.8612822 105.728555,84.4495732 C105.491065,88.0391611 105.242372,91.2850926 105.032888,93.6336271 C104.824524,95.9808648 104.655368,97.4294088 104.574711,97.4229679 C104.494054,97.4164406 104.518699,95.9562253 104.621761,93.5986131 C104.725943,91.2410008 104.908541,87.9872884 105.147152,84.3964038 C105.385763,80.8055191 105.634455,77.5582908 105.842819,75.2097563 C106.051184,72.8625185 106.220339,71.4139746 106.300997,71.4229679 C106.381654,71.4308332 106.357008,72.8936421 106.253947,75.2512544 Z" id="Fill-356-Copy" fill="#132529" transform="translate(105.4379, 84.423) rotate(-1) translate(-105.4379, -84.423)"></path>
            <path d="M80.1192687,82.8018018 C80.1192687,83.3282948 80.3817151,97.5009161 80.6327093,110.985345 C80.8655709,123.434899 81.0888889,135.298454 81.0888889,135.298454 L74.3444937,135.576577 L71.0901584,112.664431 L69.2444444,82.8018018 L80.1192687,82.8018018" id="Fill-116-Copy" fill="#AE6C5C"></path>
            <path d="M77.3781188,66.4069954 C78.116604,68.0905527 82,84.1048293 82,84.1048293 L66.9763466,85.7873874 L66.5111111,64.9162728 L70.1720473,59.4 C70.1720473,59.4 74.5044261,59.8566087 77.3781188,66.4069954 Z" id="Fill-355" fill="#10AC73"></path>
            <path d="M80.8471544,84.225309 C79.9900816,84.3466301 78.9315215,84.4962594 77.680496,84.6731859 C75.0040231,85.0280501 71.3000654,85.4830041 67.2031573,85.9541342 L66.9204736,85.9864865 L66.9124542,85.698349 L66.9104494,85.6306114 C66.7811367,81.4723318 66.4994554,77.6911585 66.5114845,74.9482914 C66.5074748,73.5763523 66.5435621,72.4662646 66.6067148,71.7009308 C66.6658579,70.9355971 66.7330203,70.5150174 66.7650979,70.518018 C66.8041924,70.5210835 66.8061973,70.9446962 66.8092045,71.7080079 C66.8092045,72.4713196 66.829253,73.5763523 66.8803767,74.9402033 C66.9625755,77.6699273 67.3013949,81.4288584 67.4327125,85.6184792 L67.4347173,85.6872279 L67.1440143,85.4314426 C71.2419248,84.9613235 74.9508947,84.565008 77.6383942,84.3041677 C78.8974391,84.1929567 79.9620137,84.0989329 80.8240986,84.0220962 C81.5769192,83.9675017 81.9959326,83.9543586 82,83.9897439 C82.003952,84.0261402 81.592958,84.108032 80.8471544,84.225309 Z" id="Fill-357" fill="#132529"></path>
            <path d="M170.847154,74.707291 C169.990082,74.828612 168.931522,74.9782414 167.680496,75.1551679 C165.004023,75.510032 161.300065,75.964986 157.203157,76.4361162 L156.920474,76.4684685 L156.912454,76.1803309 L156.910449,76.1125933 C156.781137,71.9543138 156.499455,68.1731405 156.511485,65.4302734 C156.507475,64.0583343 156.543562,62.9482465 156.606715,62.1829128 C156.665858,61.4175791 156.73302,60.9969994 156.765098,61 C156.804192,61.0030654 156.806197,61.4266782 156.809205,62.1899899 C156.809205,62.9533016 156.829253,64.0583343 156.880377,65.4221853 C156.962575,68.1519093 157.301395,71.9108404 157.432712,76.1004612 L157.434717,76.1692098 L157.144014,75.9134246 C161.241925,75.4433055 164.950895,75.04699 167.638394,74.7861497 C168.897439,74.6749387 169.962014,74.5809149 170.824099,74.5040782 C171.576919,74.4494837 171.995933,74.4363406 172,74.4717259 C172.003952,74.5081222 171.592958,74.5900139 170.847154,74.707291 Z" id="Fill-357-Copy" fill="#132529"></path>
        </g>
        <path d="M88.9995267,64.0405305 C88.9807578,63.8994958 87.7177209,64.108821 86.3034288,64.9490909 C84.8847204,65.7789687 83.9330265,66.8760702 84.0036859,66.9874134 C84.0765534,67.1150869 85.1077391,66.2480947 86.4778692,65.4464238 C87.843583,64.6343608 89.027128,64.196411 88.9995267,64.0405305" id="Fill-135" fill="#AE6C5C"></path>
    </g>
</svg>