<svg width="430" height="818" viewBox="0 0 430 818" fill="none" xmlns="http://www.w3.org/2000/svg">
<g clip-path="url(#clip0_428_95)">
<path d="M487.5 403C487.5 553.495 365.276 675.5 214.5 675.5C63.7237 675.5 -58.5 553.495 -58.5 403C-58.5 252.505 63.7237 130.5 214.5 130.5C365.276 130.5 487.5 252.505 487.5 403Z" stroke="#DADADA" stroke-opacity="0.2" stroke-width="3"/>
<path d="M547.5 403.5C547.5 586.856 398.637 735.5 215 735.5C31.3632 735.5 -117.5 586.856 -117.5 403.5C-117.5 220.144 31.3632 71.5 215 71.5C398.637 71.5 547.5 220.144 547.5 403.5Z" stroke="#DADADA" stroke-opacity="0.2" stroke-width="3"/>
<path d="M612.5 403.5C612.5 623.311 434.531 801.5 215 801.5C-4.53142 801.5 -182.5 623.311 -182.5 403.5C-182.5 183.689 -4.53142 5.5 215 5.5C434.531 5.5 612.5 183.689 612.5 403.5Z" stroke="#DADADA" stroke-opacity="0.2" stroke-width="3"/>
<path fill-rule="evenodd" clip-rule="evenodd" d="M276.253 512.836C266.34 508.08 255.927 568.376 210.532 556.343C201.834 554.039 194.462 548.134 189.238 543.382C171.398 527.161 169.196 508.136 166.56 508.67C162.694 509.454 163.993 551.079 178.13 605.405C185.772 634.763 202.956 700.812 221.177 699.825C228.444 699.432 232.798 688.536 253.113 620.677C276.162 543.685 283.021 516.081 276.253 512.836Z" fill="#4C94FC"/>
<path fill-rule="evenodd" clip-rule="evenodd" d="M346.987 818.472C349.601 737.43 350.908 696.906 361.441 650.455C370.102 612.246 386.67 557.72 366.858 543.86C364.557 542.251 364.197 542.888 347.89 535.73C343.583 533.837 289.723 506.172 284.655 510.059C281.047 512.826 236.824 596.391 233.165 611.609C223.736 650.834 223.591 678.248 218.446 678.936C208.049 680.323 193.104 610.091 187.096 589.929C172.527 541.042 163.611 536.633 156.384 506.823C155.31 502.394 80.1199 527.427 78.0371 532.672C75.8869 538.086 80.2401 556.315 81.4069 558.313C92.5867 577.478 94.2089 600.844 102.183 621.548C112.195 647.539 108.491 669.925 104.894 704.653C97.4659 776.36 90.8653 839.456 85.1757 893.811H351.713C348.462 862.214 346.448 835.204 346.987 818.472Z" fill="#F7F7F7"/>
<path fill-rule="evenodd" clip-rule="evenodd" d="M171.187 489.695C167.911 490.888 163.953 492.647 162.858 496.175C159.388 507.35 185.896 532.236 214.697 535.054C244.94 538.01 280.36 517.756 278.736 503.812C276.446 484.124 203.229 478.037 171.187 489.695Z" fill="#EBECED"/>
<path fill-rule="evenodd" clip-rule="evenodd" d="M249.645 487.088C256.205 489.622 262.314 492.716 267.691 496.173C271.936 498.9 275.621 501.782 278.784 504.598C278.781 504.334 278.766 504.071 278.737 503.81C277.831 496.021 265.816 490.362 249.645 487.088Z" fill="#F9F9F9"/>
<path fill-rule="evenodd" clip-rule="evenodd" d="M162.857 496.174C162.46 497.452 162.46 498.91 162.806 500.493C165.864 497.217 168.726 494.838 170.958 493.165C174.296 490.665 177.806 488.567 181.443 486.828C177.715 487.623 174.26 488.576 171.187 489.694C167.91 490.887 163.953 492.646 162.857 496.174Z" fill="#F9F9F9"/>
<path fill-rule="evenodd" clip-rule="evenodd" d="M262.087 491.247C257.729 474.232 264.551 454.494 261.57 453.032C258.763 451.657 253.968 470.602 240.971 479.242C237.312 481.673 223.616 490.779 209.093 488.349C190.183 485.185 181.125 458.279 177.761 460.64C176.039 461.849 178.045 472.479 176.8 482.139C176.487 484.597 175.453 488.143 173.393 495.233C171.11 503.073 165.114 504.992 164.884 506.301C163.093 516.532 185.989 548.177 196.646 554.075C201.298 556.653 215.26 565.984 236.449 556.831C250.655 550.697 282.795 522.869 274.37 512.278C268.556 504.968 263.954 498.546 262.087 491.247Z" fill="#EB8E6C"/>
<path fill-rule="evenodd" clip-rule="evenodd" d="M243.055 479.242C239.4 481.673 225.7 490.78 211.178 488.35C192.272 485.185 181.426 464.046 178.059 466.408C177.928 466.501 177.836 466.624 177.764 466.762C184.695 492.763 200.751 511.185 216.122 512.23C233.167 513.39 255.637 493.609 262.657 460.641C259.671 461.906 254.505 471.63 243.055 479.242Z" fill="#C36252"/>
<path fill-rule="evenodd" clip-rule="evenodd" d="M208.286 338.195C182.029 338.75 174.038 345.025 170.885 348.054C164.157 354.513 162.22 362.713 161.532 365.8C159.286 375.884 162.195 382.563 164.412 392.749C168.632 412.139 163.557 413.032 166.567 431.527C169.029 446.626 171.817 463.761 186.708 476.222C189.988 478.968 207.263 492.704 229.147 488.71C252.032 484.533 262.186 464.206 264.388 459.79C265.408 457.75 266.638 454.945 270.144 433.499C273.723 411.604 275.522 400.367 275.897 386.176C276.388 367.735 276.632 358.515 273.02 353.312C261.745 337.066 232.966 337.674 208.286 338.195Z" fill="#EB8E6C"/>
<path fill-rule="evenodd" clip-rule="evenodd" d="M278.781 351.16C278.781 351.16 289.208 325.985 251.807 309.083C248.752 307.703 234.339 303.124 215.124 301.17C193.906 299.012 185.634 318.073 185.634 318.073C185.634 318.073 164.773 325.626 158.3 342.169C155.562 349.17 154.59 355.568 154.346 360.87C154.121 365.679 154.914 371.454 156.502 382.808C157.572 390.442 157.922 391.973 159.021 399.351C162.094 419.963 161.886 424.82 162.975 424.886C165.338 425.027 173.656 402.717 169.452 383.887C168.975 381.763 167.449 375.686 168.731 368.063C169.433 363.877 170.249 359.051 173.766 356.195C177.752 352.958 182.478 354.475 195.344 356.195C207.737 357.852 213.933 358.68 221.597 358.353C228.354 358.064 236.334 356.897 246.051 355.476C253.616 354.37 257.628 353.589 261.877 355.835C263.006 356.431 266.908 358.7 270.149 366.624C274.252 376.661 271.943 382.7 272.308 400.071C272.348 402.093 272.821 422.549 275.184 422.728C277.008 422.866 279.268 410.862 280.219 405.825C282.585 393.27 285.301 378.056 281.296 360.511C280.31 356.191 280.044 356.662 278.781 351.16Z" fill="#1E2F47"/>
<path fill-rule="evenodd" clip-rule="evenodd" d="M152.027 401.55C147.95 404.9 147.771 414.669 148.671 420.412C150.815 434.139 163.772 445.979 168.239 442.234C173.205 438.07 170.748 412.747 162.269 404.063C161.97 403.757 156.261 398.071 152.027 401.55Z" fill="#EB8E6C"/>
<path fill-rule="evenodd" clip-rule="evenodd" d="M162.875 429.688C163.108 429.88 163.275 430.017 163.275 430.016C163.272 429.992 163.119 429.879 162.875 429.688Z" fill="#C36252"/>
<path fill-rule="evenodd" clip-rule="evenodd" d="M160.23 415.223C161.286 415.22 162.298 416.077 162.975 417.486C163.278 418.112 163.816 418.386 164.301 418.078C164.938 417.672 165.174 416.514 164.781 415.687C163.704 413.423 162.025 412.039 160.245 412.045C157.696 412.054 155.69 414.873 155.101 417.521C154.07 422.15 156.786 427.369 159.422 430.432C160.522 431.707 162.469 433.606 163.922 433.03C164.079 432.967 165.71 432.038 163.278 430.023C163.096 429.87 162.932 429.736 162.779 429.61C162.597 429.466 162.375 429.284 162.123 429.067C161.013 428.148 161.439 428.498 162.065 429.016C161.119 428.191 159.808 426.872 158.803 425.095C157.391 422.588 156.794 420.176 157.172 418.479C157.522 416.918 158.789 415.228 160.23 415.223Z" fill="#C36252"/>
<path fill-rule="evenodd" clip-rule="evenodd" d="M162.121 429.067C162.299 429.213 162.518 429.394 162.776 429.61C162.812 429.638 162.842 429.663 162.874 429.688C162.638 429.491 162.332 429.239 162.062 429.016C162.081 429.033 162.099 429.049 162.121 429.067Z" fill="#C36252"/>
<path fill-rule="evenodd" clip-rule="evenodd" d="M170.195 437.621L170.191 437.623C169.627 437.791 169.255 438.571 169.321 439.402C169.488 441.403 169.164 441.868 168.243 442.234L168.24 442.235C166.39 442.966 165.09 441.116 163.958 439.009C163.543 438.234 163.183 437.564 162.502 437.681C160.296 438.053 154.9 432.572 151.969 424.234C150.397 419.753 149.829 415.341 150.28 411.121C150.459 409.453 150.702 407.168 151.948 405.506C153.273 403.736 154.988 403.644 155.719 403.605C158.301 403.467 160.314 405.425 161.457 406.905C161.872 407.442 162.502 407.416 162.913 406.861C163.383 406.22 163.383 405.131 162.906 404.512C161.486 402.682 158.963 400.251 155.657 400.429C154.769 400.475 152.406 400.602 150.484 403.17C148.671 405.593 148.329 408.762 148.125 410.656C147.768 414.022 147.804 419.365 150.029 425.702C153.134 434.535 158.792 440.7 162.178 440.868C162.2 440.904 162.218 440.942 162.24 440.982C163.077 442.542 165.302 446.684 168.793 445.302C168.797 445.301 168.797 445.301 168.797 445.301C171.476 444.238 171.676 441.315 171.487 438.986C171.414 438.064 170.821 437.435 170.195 437.621Z" fill="#C36252"/>
<path fill-rule="evenodd" clip-rule="evenodd" d="M164.851 417.214C164.593 416.76 162.969 417.506 162.212 419.265C161.415 421.113 161.902 423.322 162.139 424.407C162.66 426.777 163.832 428.676 164.127 428.458C164.524 428.164 162.725 424.499 163.646 420.613C164.123 418.603 165.073 417.605 164.851 417.214Z" fill="#C36252"/>
<path fill-rule="evenodd" clip-rule="evenodd" d="M287.319 401.55C283.085 398.071 277.376 403.757 277.077 404.063C268.598 412.747 266.137 438.07 271.107 442.234C275.574 445.979 288.531 434.139 290.675 420.412C291.575 414.669 291.396 404.9 287.319 401.55Z" fill="#EB8E6C"/>
<path fill-rule="evenodd" clip-rule="evenodd" d="M276.066 430.016C276.066 430.017 276.234 429.88 276.467 429.688C276.223 429.879 276.07 429.992 276.066 430.016Z" fill="#C36252"/>
<path fill-rule="evenodd" clip-rule="evenodd" d="M279.101 412.045C277.321 412.039 275.642 413.423 274.565 415.687C274.172 416.514 274.408 417.672 275.045 418.078C275.53 418.386 276.068 418.112 276.371 417.486C277.048 416.077 278.056 415.22 279.116 415.223C280.557 415.228 281.824 416.918 282.174 418.479C282.552 420.176 281.955 422.588 280.543 425.095C279.538 426.872 278.227 428.191 277.281 429.016C277.907 428.498 278.329 428.148 277.222 429.067C276.971 429.284 276.746 429.466 276.567 429.61C276.414 429.736 276.25 429.87 276.068 430.023C273.636 432.038 275.267 432.967 275.424 433.03C276.877 433.606 278.824 431.707 279.924 430.432C282.56 427.369 285.276 422.15 284.245 417.521C283.656 414.873 281.65 412.054 279.101 412.045Z" fill="#C36252"/>
<path fill-rule="evenodd" clip-rule="evenodd" d="M276.567 429.61C276.826 429.394 277.044 429.213 277.222 429.067C277.241 429.049 277.262 429.033 277.281 429.016C277.011 429.239 276.705 429.491 276.469 429.688C276.498 429.663 276.531 429.638 276.567 429.61Z" fill="#C36252"/>
<path fill-rule="evenodd" clip-rule="evenodd" d="M288.862 403.17C286.936 400.602 284.577 400.475 283.689 400.429C280.383 400.251 277.86 402.682 276.44 404.512C275.963 405.131 275.963 406.22 276.433 406.861C276.844 407.416 277.474 407.442 277.889 406.905C279.029 405.425 281.046 403.467 283.627 403.605C284.359 403.644 286.073 403.736 287.399 405.506C288.644 407.168 288.888 409.453 289.066 411.121C289.517 415.341 288.95 419.753 287.377 424.234C284.446 432.572 279.051 438.053 276.844 437.681C276.16 437.564 275.803 438.234 275.384 439.009C274.256 441.116 272.952 442.966 271.107 442.235L271.103 442.234C270.182 441.868 269.858 441.403 270.022 439.402C270.091 438.571 269.72 437.791 269.155 437.623L269.152 437.621C268.525 437.435 267.932 438.064 267.859 438.986C267.67 441.315 267.87 444.238 270.55 445.301C270.55 445.301 270.55 445.301 270.553 445.302C274.045 446.684 276.269 442.542 277.106 440.982C277.125 440.942 277.146 440.904 277.168 440.868C280.554 440.7 286.212 434.535 289.317 425.702C291.542 419.365 291.578 414.022 291.218 410.656C291.017 408.762 290.675 405.593 288.862 403.17Z" fill="#C36252"/>
<path fill-rule="evenodd" clip-rule="evenodd" d="M274.492 417.214C274.27 417.605 275.22 418.603 275.697 420.613C276.618 424.499 274.82 428.164 275.217 428.458C275.511 428.676 276.684 426.777 277.204 424.407C277.441 423.322 277.929 421.113 277.132 419.265C276.374 417.506 274.751 416.76 274.492 417.214Z" fill="#C36252"/>
<path fill-rule="evenodd" clip-rule="evenodd" d="M227.963 424.659L227.861 424.732C227.249 425.176 227.053 426.033 227.369 426.751C227.752 427.62 228.01 428.661 227.5 429.318C226.685 430.375 223.783 431.289 219.826 430.984C216.116 430.701 213.575 429.502 212.978 428.465C212.931 428.382 212.829 428.202 212.836 427.862C212.847 427.213 212.537 426.608 211.984 426.345L211.846 426.278C210.914 425.834 209.84 426.519 209.781 427.614C209.719 428.729 210.029 429.593 210.375 430.194C212.25 433.467 217.918 434.142 219.611 434.272C219.997 434.301 220.583 434.334 221.293 434.334C223.834 434.334 227.93 433.913 229.852 431.427C231.094 429.822 231.178 427.69 230.122 425.309C229.732 424.428 228.713 424.112 227.963 424.659Z" fill="#C36252"/>
<path fill-rule="evenodd" clip-rule="evenodd" d="M207.534 390.294C203.107 388.696 197.082 387.537 190.27 388.983C187.962 389.472 185.709 390.233 183.535 391.254C182.17 391.896 181.606 393.663 182.316 395.077C182.942 396.335 184.362 396.859 185.578 396.287C187.413 395.426 189.313 394.784 191.257 394.373C197.024 393.148 202.15 394.141 205.929 395.508C207.192 395.965 208.565 395.296 209.085 393.972V393.97C209.664 392.491 208.947 390.804 207.534 390.294Z" fill="#1C2546"/>
<path fill-rule="evenodd" clip-rule="evenodd" d="M197.714 399.002C195.228 399.002 193.211 401.946 193.211 405.578C193.211 409.21 195.228 412.155 197.714 412.155C200.205 412.155 202.222 409.21 202.222 405.578C202.222 401.946 200.205 399.002 197.714 399.002Z" fill="#543434"/>
<path fill-rule="evenodd" clip-rule="evenodd" d="M255.45 391.254C253.277 390.233 251.023 389.472 248.718 388.983C241.903 387.537 235.878 388.696 231.454 390.294C230.042 390.804 229.321 392.491 229.9 393.97L229.904 393.972C230.421 395.296 231.793 395.965 233.06 395.508C236.835 394.141 241.965 393.148 247.732 394.373C249.672 394.784 251.576 395.426 253.408 396.287C254.624 396.859 256.043 396.335 256.673 395.077C257.38 393.663 256.815 391.896 255.45 391.254Z" fill="#1C2546"/>
<path fill-rule="evenodd" clip-rule="evenodd" d="M242.515 399.002C240.029 399.002 238.012 401.946 238.012 405.578C238.012 409.21 240.029 412.155 242.515 412.155C245.005 412.155 247.022 409.21 247.022 405.578C247.022 401.946 245.005 399.002 242.515 399.002Z" fill="#543434"/>
<path fill-rule="evenodd" clip-rule="evenodd" d="M252.238 416.531C247.298 416.531 243.293 418.645 243.293 421.252C243.293 423.859 247.298 425.973 252.238 425.973C257.178 425.973 261.183 423.859 261.183 421.252C261.183 418.645 257.178 416.531 252.238 416.531Z" fill="#DD8064"/>
<path fill-rule="evenodd" clip-rule="evenodd" d="M190.953 416.719C186.013 416.719 182.008 418.833 182.008 421.44C182.008 424.047 186.013 426.16 190.953 426.16C195.893 426.16 199.898 424.047 199.898 421.44C199.898 418.833 195.893 416.719 190.953 416.719Z" fill="#DD8064"/>
<path fill-rule="evenodd" clip-rule="evenodd" d="M216.442 449.168C205.982 448.967 200.565 446.107 200.121 447.337C199.469 449.142 209.918 458.668 221.881 457.59C232.231 456.658 240.346 448.091 239.564 446.239C238.828 444.507 230.659 449.441 216.442 449.168Z" fill="#C36252"/>
<path fill-rule="evenodd" clip-rule="evenodd" d="M297.458 512.67C290.934 510.257 286.023 509.012 284.658 510.059C281.05 512.826 236.827 596.391 233.168 611.609C223.738 650.833 223.593 678.248 218.448 678.936C208.051 680.323 193.106 610.091 187.099 589.929C172.529 541.042 163.613 536.633 156.386 506.823C156.007 505.269 146.502 507.344 134.236 510.917C119.409 526.53 110.326 546.623 110.326 546.623L162.743 560.508L128.437 599.922L218.365 692.756L292.223 607.371L267.925 566.41L311.318 558.426C311.318 558.426 307.812 535.803 297.458 512.67Z" fill="#97BFFF"/>
<path fill-rule="evenodd" clip-rule="evenodd" d="M166.439 491.912C165.405 492.241 158 496.638 146.892 503.349C140.47 507.229 122.707 545.51 122.707 545.51L170.618 557.561L140.601 596.647L218.642 682.06C218.642 682.06 195.531 589.984 187.26 560.83C177.233 525.478 166.439 491.912 166.439 491.912Z" fill="white"/>
<path fill-rule="evenodd" clip-rule="evenodd" d="M291.114 510.567L274.371 496.637C274.371 496.637 255.836 526.685 237.749 577.94C214.562 643.636 218.639 682.059 218.639 682.059L281.059 602.522L260.816 563.028L299.109 555.419L291.114 510.567Z" fill="white"/>
<path fill-rule="evenodd" clip-rule="evenodd" d="M306.427 696.738C306.256 696.145 306.118 695.533 306.019 694.918C305.961 694.55 305.633 694.284 305.262 694.328H305.255C304.858 694.372 304.585 694.743 304.65 695.136C304.756 695.81 304.905 696.476 305.095 697.128C305.375 698.096 305.75 699.043 306.209 699.946C306.387 700.291 306.824 700.415 307.162 700.222L307.166 700.219C307.494 700.037 307.607 699.629 307.435 699.294C307.02 698.475 306.682 697.619 306.427 696.738Z" fill="#C36252"/>
<path fill-rule="evenodd" clip-rule="evenodd" d="M218.364 687.386C216.831 687.386 215.586 688.627 215.586 690.164V893.811H221.142V690.164C221.142 688.627 219.896 687.386 218.364 687.386Z" fill="#97BFFF"/>
<path fill-rule="evenodd" clip-rule="evenodd" d="M346.987 815.653C347.198 809.089 347.402 802.794 347.602 796.736C322.776 798.48 301.191 799.165 283.25 799.358C236.019 799.871 208.656 797.064 157.246 800.399C134.492 801.877 113.578 804.134 94.8584 806.704C93.5339 822.137 90.1583 839.707 89.2441 852.104C154.203 853.279 192.939 837.523 192.939 837.523C192.939 837.523 259.134 846.548 347.602 845.27C347.85 837.188 346.688 824.89 346.987 815.653Z" fill="#D1DCE5"/>
<path fill-rule="evenodd" clip-rule="evenodd" d="M376.498 550.574C372.133 546.565 362.238 537.471 352.619 539.929C344.377 542.033 340.226 551.622 335.424 564.976C322.318 601.405 318.211 625.08 318.211 625.08C314.843 644.485 310.446 670.483 309.998 705.568C309.929 711.007 309.757 732.181 313.376 759.075C314.199 765.184 316.354 780.052 323.92 797.458C330.629 812.902 362.285 806.928 364.633 806.418C381.195 802.825 397.614 750.126 401.56 701.953C405.248 656.983 406.978 633.869 401.528 602.828C399.048 588.713 394.01 566.666 376.498 550.574Z" fill="#FDFDFF"/>
<path fill-rule="evenodd" clip-rule="evenodd" d="M97.3666 587.822C88.2322 562.974 86.5764 532.957 78.0376 532.671C66.3092 532.284 51.3974 575.6 43.7688 596.254C42.6908 599.174 38.5451 610.58 34.7352 626.966C32.6891 635.769 29.2371 652.469 27.5088 677.553C25.963 699.987 24.4514 721.926 28.7132 748.616C32.0356 769.422 39.0468 813.325 55.211 815.462C75.3195 818.119 99.2842 754.779 106.4 735.968C114.256 715.205 115.967 703.442 116.637 696.823C118.398 679.45 116.005 666.573 111.218 640.819C105.631 610.762 99.2194 592.864 97.3666 587.822Z" fill="#FDFDFF"/>
<path fill-rule="evenodd" clip-rule="evenodd" d="M256.354 735.966C243.637 732.792 231.991 740.066 227.447 742.592C170.718 774.15 72.7831 705.064 44.9739 734.765C28.5563 752.295 39.9862 810.869 55.2118 815.46C131.09 838.345 280.288 803.369 285.261 775.715C288.072 760.082 272.391 739.971 256.354 735.966Z" fill="#FDFDFF"/>
<path fill-rule="evenodd" clip-rule="evenodd" d="M171.515 733.109C165.246 731.055 148.397 728.267 146.449 727.688C143.07 726.683 128.115 712.284 124.769 708.716C122.059 705.833 117.211 701.635 115.937 702.312C114.541 703.055 115.387 708.123 114.322 710.817C113.172 713.729 110.217 713.085 109.637 713.009C108.143 712.816 60.6148 701.533 57.695 701.49C55.2463 701.457 54.3602 701.792 50.4683 702.396C41.7547 703.743 37.3739 703.423 31.7243 706.008C30.6248 706.51 29.1001 707.296 28.3367 708.942C27.5277 710.689 27.7331 713.06 29.0142 714.589C30.5324 716.405 33.0255 716.402 35.5634 716.394C38.0369 716.391 39.4105 715.91 41.4351 715.491C45.8006 714.592 49.2399 714.8 53.1784 715.04C54.4075 715.116 58.3281 715.397 63.341 716.62C67.1251 717.548 73.7052 719.158 73.7292 721.364C73.7394 722.321 72.5162 723.046 71.9224 723.395C69.529 724.815 67.4112 723.85 61.3084 723.17C60.6975 723.104 57.8738 722.798 54.3077 722.718C50.7777 722.642 49.0131 722.605 47.5325 722.944C44.0036 723.756 43.9581 725.347 38.725 728.365C37.0889 729.308 34.6984 730.425 29.9175 732.657C26.2298 734.376 24.8628 734.929 24.2719 736.494C23.566 738.366 24.2843 740.845 25.8527 742.141C27.507 743.506 29.6648 743.19 32.1761 742.818C34.4468 742.483 36.0607 741.81 36.9185 741.464C43.0067 738.999 48.9967 737.55 49.1136 737.849C49.1755 738.009 47.5867 738.668 43.0159 741.013C39.8947 742.611 40.1062 742.574 37.8217 743.721C33.7842 745.749 31.7658 746.765 30.3693 747.336C27.3672 748.563 26.2713 748.713 25.8527 749.819C25.2767 751.341 26.5331 753.216 27.4334 754.112C29.6408 756.303 33.0637 755.947 33.3051 755.917C34.9296 755.721 35.8514 755.04 36.2409 755.466C36.79 756.063 35.0373 757.501 35.3377 759.303C35.7171 761.586 39.1098 762.842 40.5318 763.37C42.6248 764.145 44.3775 764.251 44.8227 764.273C51.4036 764.615 58.733 764.677 59.7276 764.724C68.0698 765.128 70.2305 765.485 72.3742 766.079C77.9346 767.615 79.3515 769.606 84.1175 771.951C90.3915 775.038 96.8817 775.362 109.862 776.018C118.702 776.462 144.658 773.527 149.609 774.66C158.318 776.655 160.222 780.889 169.935 785.953C177.566 789.932 181.905 792.197 186.194 791.374C200.811 788.563 211.402 750.522 199.519 739.207C194.36 734.296 189.933 739.141 171.515 733.109Z" fill="#EB8E6C"/>
<path fill-rule="evenodd" clip-rule="evenodd" d="M68.2763 736.874C63.242 736.444 58.1422 736.211 53.1071 736.178C52.4798 736.175 51.8555 736.175 51.234 736.175C50.8488 736.175 50.5405 736.492 50.543 736.877C50.5459 737.26 50.8525 737.566 51.234 737.562C51.8525 737.562 52.4737 737.562 53.0977 737.566C58.0992 737.598 63.1641 737.831 68.1646 738.257C68.5443 738.29 68.8767 738.01 68.9102 737.631C68.9444 737.245 68.6604 736.907 68.2763 736.874Z" fill="#C36252"/>
<path fill-rule="evenodd" clip-rule="evenodd" d="M72.4658 752.816C68.5008 751.101 64.4407 750.063 60.3872 749.729C57.8693 749.525 55.7421 749.616 54.3991 749.729C51.2113 750.002 48.8918 750.642 47.1978 751.108C44.4076 751.877 41.6465 752.9 38.9812 754.159C38.6306 754.327 38.485 754.749 38.655 755.099C38.8214 755.441 39.2288 755.579 39.5717 755.415C42.1661 754.192 44.8521 753.194 47.5663 752.444C49.2086 751.993 51.4567 751.374 54.5174 751.112C55.8062 751.003 57.8519 750.915 60.2733 751.112C64.1753 751.432 68.0883 752.434 71.9139 754.09C72.2616 754.239 72.6654 754.09 72.8215 753.744C72.9814 753.391 72.8215 752.969 72.4658 752.816Z" fill="#C36252"/>
<path fill-rule="evenodd" clip-rule="evenodd" d="M55.4922 702.334C55.2322 702.025 54.7637 701.999 54.4772 702.287C53.7046 703.059 52.7191 704.326 52.2036 706.113C51.7325 707.744 51.8126 709.208 52.0303 710.296C52.1082 710.69 52.5123 710.923 52.8953 710.81H52.9033C53.2528 710.708 53.4563 710.355 53.3864 709.998C53.2069 709.081 53.1447 707.861 53.5379 706.499C53.9748 704.985 54.8125 703.911 55.4656 703.263C55.7154 703.012 55.723 702.611 55.4969 702.342L55.4922 702.334Z" fill="#C36252"/>
<path fill-rule="evenodd" clip-rule="evenodd" d="M57.3949 702.837L57.3869 702.833C57.0167 702.735 56.6351 702.953 56.5401 703.325C56.4199 703.794 56.3027 704.275 56.1895 704.759C55.9041 705.982 55.6492 707.22 55.4304 708.458C55.3638 708.833 55.6219 709.193 56.0005 709.255L56.0089 709.259C56.3821 709.321 56.7316 709.073 56.7978 708.698C57.0123 707.49 57.2617 706.274 57.5413 705.076C57.6519 704.599 57.7666 704.133 57.8842 703.674C57.9785 703.306 57.7612 702.935 57.3949 702.837Z" fill="#C36252"/>
<path fill-rule="evenodd" clip-rule="evenodd" d="M59.982 703.355H59.9736C59.5975 703.347 59.2917 703.646 59.2731 704.021C59.2458 704.582 59.197 705.146 59.1279 705.699C58.9917 706.784 58.7736 707.865 58.4776 708.925C58.3768 709.285 58.5719 709.66 58.9298 709.773H58.9382C59.3077 709.89 59.7075 709.682 59.8119 709.311C60.1276 708.182 60.3602 707.028 60.5055 705.874C60.5801 705.277 60.6322 704.673 60.6613 704.072C60.6795 703.686 60.3679 703.362 59.982 703.355Z" fill="#C36252"/>
<path fill-rule="evenodd" clip-rule="evenodd" d="M46.7903 728.242C46.6581 727.401 46.5587 726.545 46.4943 725.689C46.4659 725.314 46.1491 725.03 45.7734 725.049L45.7651 725.052C45.3799 725.071 45.0803 725.405 45.1094 725.788C45.1764 726.68 45.2801 727.575 45.4185 728.456C45.5594 729.356 45.7392 730.255 45.9547 731.143C46.0458 731.518 46.4331 731.744 46.8059 731.646L46.8143 731.642C47.1784 731.547 47.3917 731.176 47.3032 730.812C47.0968 729.96 46.925 729.101 46.7903 728.242Z" fill="#C36252"/>
<path fill-rule="evenodd" clip-rule="evenodd" d="M49.3984 723.836H49.3857C49.0096 723.851 48.7187 724.16 48.7256 724.535C48.7391 725.278 48.7333 726.024 48.7078 726.764C48.6688 727.903 48.5822 729.053 48.45 730.189C48.4067 730.564 48.6659 730.899 49.0395 730.95H49.0478C49.4297 731.001 49.7847 730.732 49.8295 730.35C49.966 729.174 50.0552 727.987 50.0956 726.811C50.1218 726.05 50.128 725.278 50.1142 724.51C50.1069 724.124 49.7821 723.822 49.3984 723.836Z" fill="#C36252"/>
<path fill-rule="evenodd" clip-rule="evenodd" d="M49.2183 742.637C49.0745 741.803 48.9733 740.955 48.9165 740.103C48.8913 739.728 48.5811 739.44 48.2065 739.455L48.1981 739.458C47.8115 739.473 47.505 739.8 47.5308 740.186C47.5905 741.089 47.6976 741.989 47.8501 742.873C47.9863 743.663 48.161 744.453 48.3707 745.229C48.4716 745.6 48.8677 745.815 49.2379 745.702H49.2459C49.6056 745.593 49.8066 745.218 49.7087 744.857C49.511 744.126 49.3468 743.379 49.2183 742.637Z" fill="#C36252"/>
<path fill-rule="evenodd" clip-rule="evenodd" d="M50.5959 738.599H50.5886C50.2591 738.734 50.0764 739.098 50.1863 739.437C50.4819 740.343 50.6265 741.279 50.6163 742.229C50.6108 742.779 50.5518 743.329 50.4412 743.871C50.3702 744.221 50.5915 744.559 50.9334 744.657H50.941C51.3338 744.767 51.7285 744.515 51.809 744.115C51.9327 743.496 51.9983 742.87 52.0048 742.24C52.0161 741.155 51.853 740.081 51.5184 739.043C51.3936 738.654 50.9738 738.446 50.5959 738.599Z" fill="#C36252"/>
<path fill-rule="evenodd" clip-rule="evenodd" d="M52.5073 754.742C52.3919 754.258 52.3031 753.763 52.2423 753.268C52.1971 752.896 51.8807 752.62 51.5079 752.645L51.4996 752.649C51.1122 752.674 50.8137 753.017 50.8603 753.402C50.9273 753.963 51.0266 754.52 51.157 755.066C51.469 756.373 51.9597 757.637 52.6191 758.823C52.8073 759.162 53.2493 759.268 53.5798 759.064L53.5868 759.06C53.905 758.863 54.0003 758.452 53.8198 758.124C53.2285 757.054 52.788 755.922 52.5073 754.742Z" fill="#C36252"/>
<path fill-rule="evenodd" clip-rule="evenodd" d="M55.2727 754.349C55.0925 753.777 54.9214 753.195 54.7627 752.612C54.6637 752.248 54.2952 752.03 53.9297 752.125L53.9213 752.128C53.5485 752.223 53.3213 752.605 53.4225 752.977C53.5864 753.577 53.7626 754.178 53.9486 754.768C54.2898 755.849 54.6746 756.934 55.0954 757.993C55.2371 758.35 55.6492 758.521 56.0049 758.376L56.0125 758.372C56.3609 758.226 56.5248 757.833 56.3857 757.48C55.9776 756.45 55.604 755.401 55.2727 754.349Z" fill="#C36252"/>
<path fill-rule="evenodd" clip-rule="evenodd" d="M37.3112 705.266C34.0459 705.193 31.4067 706.543 29.9057 708.043C29.499 708.447 29.1357 708.906 28.9799 709.547C28.7727 710.399 28.9591 711.466 29.5584 712.092C29.905 712.456 30.5807 712.871 34.3025 712.325C37.4051 711.866 38.972 711.622 39.7409 710.705C40.8488 709.383 41.1397 707.068 40.0883 705.957C39.4861 705.324 38.6396 705.295 37.3112 705.266Z" fill="white"/>
<path fill-rule="evenodd" clip-rule="evenodd" d="M34.1851 732.108C33.3928 731.893 32.6542 732.195 31.1768 732.803C29.8687 733.342 29.9739 733.513 27.9369 734.54C26.508 735.261 26.188 735.312 25.8541 735.814C25.3473 736.575 25.2432 737.718 25.7383 738.588C25.8421 738.77 26.1443 739.244 26.8953 739.63C28.8475 740.634 31.6442 739.928 33.6065 738.588C34.6674 737.864 36.5424 736.586 36.3836 734.769C36.2795 733.583 35.3249 732.421 34.1851 732.108Z" fill="white"/>
<path fill-rule="evenodd" clip-rule="evenodd" d="M36.8493 745.88C36.2635 745.509 35.6144 745.942 33.7249 746.689C29.3976 748.403 27.4575 748.254 27.1295 749.583C26.9362 750.362 27.4404 751.097 27.5922 751.316C28.4816 752.612 30.2765 752.678 31.0636 752.707C32.8271 752.772 35.9377 752.208 37.0805 749.812C37.7358 748.44 37.7533 746.448 36.8493 745.88Z" fill="white"/>
<path fill-rule="evenodd" clip-rule="evenodd" d="M44.0217 754.444C42.6408 754.2 42.2319 755.208 39.1618 756.526C37.6276 757.182 36.8904 757.291 36.732 757.913C36.5463 758.641 37.2897 759.544 38.0048 759.996C39.9573 761.23 42.912 759.868 44.4844 758.492C45.0862 757.964 46.221 756.974 45.9887 755.947C45.8071 755.143 44.8499 754.586 44.0217 754.444Z" fill="white"/>
<path fill-rule="evenodd" clip-rule="evenodd" d="M322.785 598.004H322.781C321.485 597.647 320.138 598.411 319.789 599.711C316.52 611.915 313.8 624.384 311.696 636.82C308.911 653.305 307.072 676.759 306.278 692.923C306.213 694.27 307.254 695.406 308.597 695.464C309.934 695.522 311.066 694.499 311.131 693.163C311.918 677.134 313.734 653.91 316.49 637.632C318.566 625.345 321.252 613.029 324.482 600.974C324.828 599.682 324.074 598.357 322.785 598.004Z" fill="#97BFFF"/>
<path fill-rule="evenodd" clip-rule="evenodd" d="M113.856 631.068C111.422 619.935 108.812 608.645 106.089 597.468C105.771 596.165 104.452 595.368 103.146 595.688H103.146C101.845 596.005 101.049 597.315 101.367 598.619C104.081 609.756 106.682 621.009 109.109 632.106C115.043 659.254 115.974 667.365 116.464 673.893C117.101 682.358 117.156 690.917 116.63 699.367C116.547 700.699 117.537 701.853 118.867 701.952C120.213 702.054 121.395 701.041 121.479 699.694C122.02 691.011 121.964 682.223 121.31 673.529C120.807 666.819 119.858 658.526 113.856 631.068Z" fill="#97BFFF"/>
<path fill-rule="evenodd" clip-rule="evenodd" d="M351.276 700.136C350.006 699.521 349.412 699.83 346.31 699.684C343.11 699.535 339.193 699 339.156 698.33C339.131 697.769 341.905 698.028 343.074 696.222C344.541 693.958 343.248 690.812 341.566 689.298C340.536 688.369 339.4 688.089 335.243 687.79C330.262 687.437 327.772 687.259 324.703 687.492C321.983 687.696 319.377 688.227 314.167 689.298C308.899 690.375 306.216 690.936 303.929 692.006C301.133 693.313 301.639 693.674 297.001 696.524C292.771 699.124 291.609 699.28 285.861 702.546C283.756 703.74 280.236 707.406 279.238 708.943C269.838 723.396 254.394 742.244 256.051 747.111C260.121 759.067 306.132 757.05 314.014 744.851C314.902 743.482 316.577 740.016 320.338 738.527C324.972 736.699 328.445 739.579 331.631 736.947C333.095 735.738 334.343 733.484 334.791 731.3C335.203 729.298 334.649 728.759 335.243 727.914C336.63 725.941 340.249 727.994 345.407 726.786C346.569 726.512 351.491 725.355 353.311 721.365C354.159 719.501 354.527 716.581 353.085 714.815C351.44 712.802 348.098 713.093 348.116 712.558C348.138 711.957 352.295 712.612 354.214 710.301C355.783 708.404 355.044 705.484 354.891 704.88C354.793 704.497 353.97 701.439 351.276 700.136Z" fill="#EB8E6C"/>
<path fill-rule="evenodd" clip-rule="evenodd" d="M339.018 697.726C331.784 698.753 325.737 699.459 320.556 699.881L320.432 699.888C318.91 700.012 316.609 700.202 313.653 701.032C312.35 701.399 310.009 702.2 304.715 704.924C302.178 706.227 299.637 707.632 297.146 709.103C296.815 709.3 296.706 709.729 296.902 710.061C297.099 710.388 297.521 710.494 297.849 710.301C300.317 708.841 302.837 707.45 305.349 706.158C311.13 703.183 313.311 702.572 314.028 702.368C316.853 701.574 319.074 701.392 320.545 701.276L320.669 701.265C325.878 700.839 331.951 700.132 339.214 699.098C339.593 699.048 339.862 698.691 339.811 698.312C339.757 697.933 339.4 697.671 339.018 697.726Z" fill="#C36252"/>
<path fill-rule="evenodd" clip-rule="evenodd" d="M347.394 712.131C333.345 713.318 320.286 714.869 315.48 715.929C312.863 716.504 310.766 717.29 309.513 717.764C306.481 718.903 303.532 720.316 300.739 721.972C300.404 722.172 300.302 722.606 300.503 722.937C300.699 723.261 301.122 723.363 301.446 723.17C304.169 721.554 307.045 720.174 310.001 719.063C311.221 718.605 313.259 717.84 315.779 717.283C320.534 716.238 333.516 714.698 347.514 713.515C347.897 713.482 348.181 713.147 348.148 712.769C348.115 712.386 347.777 712.099 347.394 712.131Z" fill="#C36252"/>
<path fill-rule="evenodd" clip-rule="evenodd" d="M334.829 726.064C328.862 726.035 323.182 726.807 317.933 728.362C314.816 729.283 311.405 730.604 308.398 731.766C305.492 732.891 302.584 734.088 299.744 735.337C299.391 735.494 299.234 735.905 299.391 736.258C299.544 736.604 299.948 736.764 300.297 736.611C303.119 735.37 306.009 734.176 308.897 733.062C311.882 731.908 315.264 730.601 318.329 729.69C323.445 728.176 329.004 727.426 334.822 727.455C335.204 727.455 335.513 727.156 335.521 726.778V726.774C335.528 726.388 335.215 726.068 334.829 726.064Z" fill="#C36252"/>
<path fill-rule="evenodd" clip-rule="evenodd" d="M339.197 689.185C337.453 688.249 335.778 688.522 335.243 688.621C334.278 688.792 332.695 689.076 331.97 690.426C331.144 691.959 332.061 693.685 332.196 693.925C333 695.385 334.446 695.877 335.695 696.299C336.991 696.736 339.849 697.704 341.341 696.186C342.357 695.152 342.179 693.543 342.131 693.135C341.855 690.681 339.63 689.418 339.197 689.185Z" fill="white"/>
<path fill-rule="evenodd" clip-rule="evenodd" d="M351.277 701.49C350.115 700.976 348.994 701.184 347.327 701.49C345.594 701.81 343.784 702.145 343.147 703.525C342.605 704.701 343.194 706.026 343.486 706.685C343.671 707.104 344.294 708.454 345.746 709.168C346.249 709.419 346.871 709.601 349.019 709.51C351.903 709.386 353.345 709.324 353.876 708.716C355.281 707.107 353.985 702.691 351.277 701.49Z" fill="white"/>
<path fill-rule="evenodd" clip-rule="evenodd" d="M350.033 714.476C349.185 714.152 348.439 714.254 346.986 714.476C344.299 714.887 342.821 715.113 342.242 716.282C341.638 717.505 342.428 718.921 342.468 718.994C343.16 720.192 344.452 720.523 346.083 720.913C348.512 721.495 350.856 722.056 352.065 720.687C352.993 719.642 352.84 717.935 352.404 716.85C352.331 716.66 351.683 715.11 350.033 714.476Z" fill="white"/>
<path fill-rule="evenodd" clip-rule="evenodd" d="M332.647 728.93C332.105 728.427 331.428 728.387 330.386 728.365C327.525 728.311 326.072 728.293 325.082 728.93C324.678 729.188 324.023 729.621 323.841 730.397C323.655 731.176 324.041 731.853 324.179 732.093C324.288 732.283 324.816 733.16 326.549 733.786C327.816 734.241 330.015 735.035 331.744 733.786C332.797 733.025 333.55 731.595 333.324 730.284C333.284 730.051 333.164 729.41 332.647 728.93Z" fill="white"/>
<path fill-rule="evenodd" clip-rule="evenodd" d="M316.545 741.22C309.285 740.096 303.617 740.98 285.235 742.167C260.122 743.787 237.138 740.773 226.821 739.156C204.514 735.661 191.892 736.746 191.892 736.746C191.892 736.746 186.635 746.893 185.87 768.063C184.826 796.992 185.266 813.229 185.266 813.229C185.266 813.229 234.593 828.859 312.336 821.661C345.827 818.559 368.242 808.616 372.174 801.514C382.965 782.021 347.712 746.052 316.545 741.22Z" fill="white"/>
<path fill-rule="evenodd" clip-rule="evenodd" d="M309.875 694.929C309.54 694.128 309.172 693.327 308.779 692.548C308.608 692.202 308.178 692.071 307.836 692.249L307.832 692.253C307.497 692.428 307.374 692.839 307.541 693.178C307.92 693.924 308.269 694.692 308.593 695.464C309.034 696.524 309.423 697.616 309.762 698.723C309.871 699.087 310.246 699.294 310.61 699.192C310.985 699.087 311.204 698.697 311.091 698.326C310.741 697.172 310.333 696.036 309.875 694.929Z" fill="#C36252"/>
<path fill-rule="evenodd" clip-rule="evenodd" d="M310.916 710.384C310.465 709.27 310.155 708.105 309.999 706.914C309.948 706.543 309.628 706.27 309.253 706.302H309.249C308.859 706.339 308.568 706.685 308.619 707.071C308.79 708.385 309.132 709.674 309.631 710.904C310.126 712.128 310.774 713.282 311.557 714.341C311.786 714.654 312.242 714.698 312.544 714.454L312.547 714.45C312.839 714.214 312.879 713.795 312.657 713.493C311.95 712.535 311.368 711.49 310.916 710.384Z" fill="#C36252"/>
<path fill-rule="evenodd" clip-rule="evenodd" d="M313.534 708.16C313.247 707.333 312.97 706.514 312.708 705.706C312.591 705.342 312.205 705.149 311.841 705.262L311.838 705.265C311.474 705.382 311.27 705.771 311.386 706.135C311.652 706.951 311.932 707.781 312.224 708.618C312.693 709.969 313.192 711.334 313.713 712.681C313.855 713.038 314.259 713.213 314.616 713.074H314.619C314.972 712.932 315.147 712.536 315.009 712.179C314.495 710.846 314 709.499 313.534 708.16Z" fill="#C36252"/>
<path fill-rule="evenodd" clip-rule="evenodd" d="M316.483 708.335C316.163 707.407 315.788 706.486 315.369 705.59C315.206 705.241 314.78 705.099 314.43 705.27C314.092 705.441 313.953 705.845 314.113 706.191C314.514 707.039 314.867 707.913 315.173 708.79C315.632 710.115 315.992 711.481 316.243 712.86C316.312 713.232 316.658 713.483 317.03 713.425H317.033C317.415 713.363 317.681 713.002 317.612 712.62C317.346 711.168 316.968 709.73 316.483 708.335Z" fill="#C36252"/>
<path fill-rule="evenodd" clip-rule="evenodd" d="M314.757 723.287C314.531 722.555 314.418 721.798 314.414 721.033C314.414 720.68 314.127 720.393 313.774 720.367C313.362 720.338 313.024 720.669 313.027 721.084C313.035 721.969 313.169 722.846 313.428 723.695C313.759 724.769 314.294 725.788 314.997 726.684C315.252 727.004 315.725 727.044 316.024 726.767C316.282 726.527 316.326 726.123 316.107 725.846C315.503 725.085 315.037 724.208 314.757 723.287Z" fill="#C36252"/>
<path fill-rule="evenodd" clip-rule="evenodd" d="M306.395 696.634C306.17 695.902 306.057 695.148 306.053 694.38C306.053 694.027 305.766 693.743 305.416 693.714H305.412C305.001 693.685 304.662 694.019 304.666 694.431C304.673 695.316 304.808 696.193 305.067 697.041C305.398 698.115 305.933 699.138 306.636 700.03C306.891 700.351 307.364 700.394 307.662 700.114C307.921 699.874 307.965 699.47 307.746 699.196C307.142 698.432 306.679 697.555 306.395 696.634Z" fill="#C36252"/>
<path fill-rule="evenodd" clip-rule="evenodd" d="M318.048 719.279C317.8 718.951 317.323 718.896 317.017 719.173L317.014 719.177C316.752 719.413 316.708 719.81 316.919 720.094C317.28 720.575 317.567 721.099 317.782 721.656C318.215 722.781 318.259 723.84 318.182 724.659C318.15 725.013 318.397 725.326 318.743 725.391H318.747C319.151 725.468 319.529 725.176 319.566 724.769C319.657 723.782 319.599 722.511 319.078 721.157C318.823 720.487 318.477 719.857 318.048 719.279Z" fill="#C36252"/>
<path fill-rule="evenodd" clip-rule="evenodd" d="M325.324 740.507C325.233 739.149 324.046 738.126 322.688 738.246C320.792 738.414 318.269 738.658 315.345 738.942C307.044 739.743 295.678 740.842 289.722 741.021C274.224 741.49 263.029 741.825 249.03 740.682C243.464 740.223 240.588 739.797 237.26 739.302C233.947 738.807 230.19 738.25 223.032 737.558C213.829 736.674 204.556 736.106 195.433 735.869C194.085 735.833 192.971 736.91 192.942 738.257C192.917 739.593 193.973 740.693 195.309 740.726C204.319 740.962 213.476 741.523 222.566 742.397C229.6 743.074 233.288 743.624 236.543 744.108C239.958 744.618 242.907 745.054 248.634 745.524C255.798 746.11 262.213 746.318 268.81 746.318C275.352 746.318 282.073 746.114 289.868 745.877C295.988 745.695 307.445 744.585 315.811 743.777C318.636 743.504 321.203 743.256 323.118 743.088C324.432 742.972 325.408 741.829 325.324 740.511V740.507Z" fill="#97BFFF"/>
<path fill-rule="evenodd" clip-rule="evenodd" d="M324.7 738.753C323.498 738.021 321.933 738.436 321.274 739.678C320.666 740.821 321.059 742.226 322.162 742.9C326.003 745.237 330.743 749.016 334.548 754.83C340.071 763.269 340.995 771.938 340.872 777.42C340.842 778.698 341.825 779.772 343.103 779.874C344.494 779.987 345.699 778.913 345.728 777.519C345.863 771.37 344.822 761.653 338.614 752.169C334.333 745.63 329.01 741.382 324.7 738.753Z" fill="#97BFFF"/>
<path fill-rule="evenodd" clip-rule="evenodd" d="M247.728 619.183C243.057 622.528 240.52 626.624 238.648 630.188C227.133 652.149 226.339 678.041 226.31 679.133C226.015 690.569 225.851 696.863 228.782 704.352C234.028 717.761 244.695 725.694 252.719 729.993L255.355 725.064C248.161 721.212 238.612 714.138 233.988 702.317C231.469 695.88 231.604 690.678 231.899 679.279C231.902 679.024 232.678 653.605 243.6 632.784C245.242 629.649 247.273 626.384 250.983 623.726C255.69 620.355 265.982 616.434 273.14 618.735L274.847 613.416C265.258 610.332 253.124 615.316 247.728 619.183Z" fill="#476C99"/>
<path fill-rule="evenodd" clip-rule="evenodd" d="M254.038 721.889C250.925 721.889 248.398 724.415 248.398 727.528C248.398 730.641 250.925 733.164 254.038 733.164C257.151 733.164 259.674 730.641 259.674 727.528C259.674 724.415 257.151 721.889 254.038 721.889Z" fill="#476C99"/>
<path fill-rule="evenodd" clip-rule="evenodd" d="M276.203 613.94L273.873 619.023C280.71 622.15 285.665 631.987 286.863 637.652C287.806 642.116 287.103 645.898 286.204 649.317C280.218 672.053 263.643 691.341 263.475 691.534C256.004 700.148 252.593 704.08 246.393 707.131C235.005 712.737 223.184 711.518 215.273 709.508L213.896 714.925C222.718 717.168 235.944 718.504 248.861 712.144C256.074 708.594 260.202 703.836 267.698 695.196C268.412 694.374 285.297 674.721 291.61 650.74C292.633 646.848 293.521 642.116 292.331 636.494C290.958 629.999 285.363 618.134 276.203 613.94Z" fill="#476C99"/>
<path fill-rule="evenodd" clip-rule="evenodd" d="M210.424 708.41C208.323 710.711 208.483 714.276 210.781 716.376C213.078 718.477 216.646 718.317 218.746 716.019C220.847 713.719 220.687 710.154 218.386 708.054C216.089 705.953 212.524 706.113 210.424 708.41Z" fill="#476C99"/>
<path fill-rule="evenodd" clip-rule="evenodd" d="M176.8 480.04C160.194 487.088 153.379 510.324 150.317 543.594C147.135 578.169 150.991 615.592 160.893 646.257L166.842 644.338C157.187 614.445 153.43 577.933 156.539 544.166C159.67 510.163 167.581 492.591 174.95 489.841C174.95 489.841 177.684 479.665 176.8 480.04Z" fill="#1D3C68"/>
<path fill-rule="evenodd" clip-rule="evenodd" d="M162.552 632.047C154.801 632.047 148.518 638.331 148.518 646.085C148.518 653.836 154.801 660.12 162.552 660.12C170.307 660.12 176.591 653.836 176.591 646.085C176.591 638.331 170.307 632.047 162.552 632.047Z" fill="#476C99"/>
<path fill-rule="evenodd" clip-rule="evenodd" d="M162.552 638.387C158.303 638.387 154.855 641.834 154.855 646.087C154.855 650.339 158.303 653.783 162.552 653.783C166.804 653.783 170.252 650.339 170.252 646.087C170.252 641.834 166.804 638.387 162.552 638.387Z" fill="#192654"/>
<path fill-rule="evenodd" clip-rule="evenodd" d="M260.671 481.462C260.51 483.872 260.773 486.293 261.446 488.613L261.628 489.241C293.611 496.637 279.46 588.171 269.791 618.104L275.765 619.801C285.657 589.176 305.942 485.971 260.671 481.462Z" fill="#1D3C68"/>
<path d="M67.3031 56.5976C63.4389 56.5976 60.2535 56.0754 57.747 55.031C55.2405 53.9867 53.3606 52.6116 52.1074 50.9057C50.8541 49.1999 50.1927 47.3897 50.123 45.475C50.123 45.1617 50.2275 44.9006 50.4364 44.6917C50.68 44.448 50.9586 44.3262 51.2719 44.3262H61.1935C61.7505 44.3262 62.1682 44.4132 62.4467 44.5873C62.76 44.7265 63.0907 44.9354 63.4389 45.2139C63.787 45.4576 64.1351 45.6839 64.4832 45.8927C64.8662 46.0668 65.2839 46.206 65.7365 46.3105C66.2239 46.3801 66.7461 46.4149 67.3031 46.4149C68.4867 46.4149 69.4266 46.2931 70.1229 46.0494C70.8539 45.7709 71.2195 45.4054 71.2195 44.9528C71.2195 44.535 71.0106 44.1869 70.5929 43.9084C70.2099 43.6299 69.5311 43.3862 68.5563 43.1773C67.5816 42.9337 66.2239 42.7074 64.4832 42.4985C61.733 42.1156 59.3484 41.4715 57.3293 40.5664C55.3101 39.6613 53.7436 38.4254 52.6296 36.8589C51.5504 35.2575 51.0108 33.308 51.0108 31.0103C51.0108 28.6431 51.6722 26.5543 52.9951 24.7441C54.3528 22.9338 56.2153 21.5239 58.5825 20.5143C60.9846 19.5048 63.7696 19 66.9375 19C69.5485 19 71.8635 19.3481 73.8826 20.0444C75.9018 20.7058 77.6076 21.5935 79.0001 22.7075C80.3926 23.7867 81.4544 24.953 82.1854 26.2062C82.9165 27.4595 83.2995 28.6605 83.3343 29.8093C83.3343 30.1226 83.2124 30.4011 82.9687 30.6448C82.7599 30.8537 82.5162 30.9581 82.2377 30.9581H71.7939C71.3065 30.9581 70.9062 30.8885 70.5929 30.7493C70.3144 30.61 70.0184 30.4011 69.7051 30.1226C69.5311 29.9486 69.2003 29.7571 68.713 29.5482C68.2604 29.3045 67.6686 29.1827 66.9375 29.1827C66.0672 29.1827 65.4232 29.3219 65.0054 29.6004C64.6225 29.8441 64.431 30.1923 64.431 30.6448C64.431 30.9581 64.5877 31.254 64.901 31.5325C65.2143 31.811 65.7887 32.0547 66.6242 32.2636C67.4597 32.4725 68.6608 32.6814 70.2273 32.8902C73.7086 33.308 76.4936 33.9868 78.5823 34.9268C80.7059 35.8319 82.2377 37.0503 83.1776 38.5821C84.1524 40.1138 84.6397 42.0111 84.6397 44.2739C84.6397 46.8153 83.8739 49.0085 82.3421 50.8535C80.8452 52.6986 78.7912 54.1259 76.1803 55.1355C73.5693 56.1102 70.6103 56.5976 67.3031 56.5976Z" fill="white"/>
<path d="M89.8755 56.0754C89.4926 56.0754 89.1618 55.9362 88.8833 55.6577C88.6048 55.3792 88.4656 55.0484 88.4656 54.6655V20.9321C88.4656 20.5492 88.6048 20.2184 88.8833 19.9399C89.1618 19.6614 89.4926 19.5222 89.8755 19.5222H99.8493C100.232 19.5222 100.563 19.6614 100.841 19.9399C101.12 20.2184 101.259 20.5492 101.259 20.9321V31.2714L107.16 20.671C107.334 20.3925 107.578 20.1314 107.891 19.8877C108.239 19.644 108.692 19.5222 109.249 19.5222H120.789C121.102 19.5222 121.363 19.644 121.572 19.8877C121.816 20.0966 121.938 20.3577 121.938 20.671C121.938 20.8799 121.886 21.0713 121.781 21.2454L112.382 37.0155L122.669 54.3522C122.773 54.4914 122.826 54.6829 122.826 54.9266C122.826 55.2399 122.704 55.5184 122.46 55.7621C122.251 55.971 121.99 56.0754 121.677 56.0754H109.771C109.075 56.0754 108.552 55.9188 108.204 55.6054C107.891 55.2573 107.7 55.0136 107.63 54.8744L101.259 43.4907V54.6655C101.259 55.0484 101.12 55.3792 100.841 55.6577C100.563 55.9362 100.232 56.0754 99.8493 56.0754H89.8755Z" fill="white"/>
<path d="M136.342 56.0754C135.959 56.0754 135.628 55.9362 135.35 55.6577C135.071 55.3792 134.932 55.0484 134.932 54.6655V44.3784L123.183 21.141C123.148 21.0714 123.113 21.0017 123.079 20.9321C123.079 20.8277 123.079 20.7406 123.079 20.671C123.079 20.3577 123.183 20.0966 123.392 19.8877C123.636 19.644 123.914 19.5222 124.227 19.5222H134.045C134.741 19.5222 135.263 19.6963 135.611 20.0444C135.959 20.3925 136.168 20.6536 136.238 20.8277L141.46 31.3237L146.681 20.8277C146.751 20.6536 146.96 20.3925 147.308 20.0444C147.656 19.6963 148.178 19.5222 148.875 19.5222H158.692C159.005 19.5222 159.266 19.644 159.475 19.8877C159.719 20.0966 159.841 20.3577 159.841 20.671C159.841 20.7406 159.823 20.8277 159.788 20.9321C159.788 21.0017 159.771 21.0714 159.736 21.141L147.987 44.3784V54.6655C147.987 55.0484 147.848 55.3792 147.569 55.6577C147.291 55.9362 146.96 56.0754 146.577 56.0754H136.342Z" fill="white"/>
<path d="M164.277 56.0754C163.894 56.0754 163.564 55.9362 163.285 55.6577C163.007 55.3792 162.867 55.0484 162.867 54.6655V20.9321C162.867 20.5492 163.007 20.2184 163.285 19.9399C163.564 19.6614 163.894 19.5222 164.277 19.5222H179.316C182.589 19.5222 185.513 20.0792 188.089 21.1932C190.665 22.2724 192.719 23.8738 194.251 25.9973C195.817 28.1209 196.653 30.7493 196.757 33.8824C196.827 35.3793 196.862 36.7022 196.862 37.851C196.862 38.965 196.827 40.2357 196.757 41.663C196.618 44.9354 195.817 47.6508 194.355 49.8092C192.893 51.9327 190.891 53.5167 188.35 54.5611C185.844 55.5706 182.919 56.0754 179.577 56.0754H164.277ZM175.922 45.8927H179.316C180.082 45.8927 180.761 45.7535 181.353 45.475C181.979 45.1617 182.484 44.6917 182.867 44.0651C183.25 43.4384 183.459 42.6378 183.494 41.663C183.563 40.6534 183.598 39.7483 183.598 38.9476C183.633 38.1469 183.633 37.3462 183.598 36.5455C183.598 35.71 183.563 34.8223 183.494 33.8824C183.424 32.4203 182.954 31.3585 182.084 30.697C181.248 30.0356 180.239 29.7049 179.055 29.7049H175.922V45.8927Z" fill="white"/>
<path d="M202.931 56.0754C202.548 56.0754 202.218 55.9362 201.939 55.6577C201.661 55.3792 201.522 55.0484 201.522 54.6655V20.9321C201.522 20.5492 201.661 20.2184 201.939 19.9399C202.218 19.6614 202.548 19.5222 202.931 19.5222H217.97C221.243 19.5222 224.167 20.0792 226.743 21.1932C229.319 22.2724 231.373 23.8738 232.905 25.9973C234.472 28.1209 235.307 30.7493 235.412 33.8824C235.481 35.3793 235.516 36.7022 235.516 37.851C235.516 38.965 235.481 40.2357 235.412 41.663C235.272 44.9354 234.472 47.6508 233.01 49.8092C231.547 51.9327 229.546 53.5167 227.004 54.5611C224.498 55.5706 221.574 56.0754 218.232 56.0754H202.931ZM214.576 45.8927H217.97C218.736 45.8927 219.415 45.7535 220.007 45.475C220.634 45.1617 221.138 44.6917 221.521 44.0651C221.904 43.4384 222.113 42.6378 222.148 41.663C222.218 40.6534 222.252 39.7483 222.252 38.9476C222.287 38.1469 222.287 37.3462 222.252 36.5455C222.252 35.71 222.218 34.8223 222.148 33.8824C222.078 32.4203 221.608 31.3585 220.738 30.697C219.903 30.0356 218.893 29.7049 217.709 29.7049H214.576V45.8927Z" fill="white"/>
<path d="M237.535 56.0754C237.221 56.0754 236.943 55.971 236.699 55.7621C236.49 55.5184 236.386 55.2399 236.386 54.9266C236.386 54.7873 236.403 54.6655 236.438 54.5611L248.083 21.2454C248.187 20.8625 248.431 20.4795 248.814 20.0966C249.197 19.7137 249.736 19.5222 250.433 19.5222H261.764C262.46 19.5222 263 19.7137 263.383 20.0966C263.766 20.4795 264.01 20.8625 264.114 21.2454L275.759 54.5611C275.794 54.6655 275.811 54.7873 275.811 54.9266C275.811 55.2399 275.689 55.5184 275.446 55.7621C275.237 55.971 274.976 56.0754 274.662 56.0754H265.002C264.34 56.0754 263.853 55.9362 263.54 55.6577C263.261 55.3444 263.07 55.0484 262.965 54.7699L261.712 51.3235H250.485L249.232 54.7699C249.127 55.0484 248.936 55.3444 248.657 55.6577C248.379 55.9362 247.891 56.0754 247.195 56.0754H237.535ZM253.148 41.1408H259.049L256.072 31.4281L253.148 41.1408Z" fill="white"/>
<path d="M288.501 56.0754C288.118 56.0754 287.787 55.9362 287.509 55.6577C287.23 55.3792 287.091 55.0484 287.091 54.6655V20.9321C287.091 20.5492 287.23 20.2184 287.509 19.9399C287.787 19.6614 288.118 19.5222 288.501 19.5222H303.54C306.812 19.5222 309.737 20.0792 312.313 21.1932C314.889 22.2724 316.943 23.8738 318.475 25.9973C320.041 28.1209 320.877 30.7493 320.981 33.8824C321.051 35.3793 321.086 36.7022 321.086 37.851C321.086 38.965 321.051 40.2357 320.981 41.663C320.842 44.9354 320.041 47.6508 318.579 49.8092C317.117 51.9327 315.115 53.5167 312.574 54.5611C310.067 55.5706 307.143 56.0754 303.801 56.0754H288.501ZM300.146 45.8927H303.54C304.306 45.8927 304.985 45.7535 305.577 45.475C306.203 45.1617 306.708 44.6917 307.091 44.0651C307.474 43.4384 307.683 42.6378 307.718 41.663C307.787 40.6534 307.822 39.7483 307.822 38.9476C307.857 38.1469 307.857 37.3462 307.822 36.5455C307.822 35.71 307.787 34.8223 307.718 33.8824C307.648 32.4203 307.178 31.3585 306.308 30.697C305.472 30.0356 304.463 29.7049 303.279 29.7049H300.146V45.8927Z" fill="white"/>
<path d="M327.155 56.0754C326.772 56.0754 326.442 55.9362 326.163 55.6577C325.885 55.3792 325.745 55.0484 325.745 54.6655V20.9321C325.745 20.5492 325.885 20.2184 326.163 19.9399C326.442 19.6614 326.772 19.5222 327.155 19.5222H337.808C338.191 19.5222 338.522 19.6614 338.8 19.9399C339.079 20.2184 339.218 20.5492 339.218 20.9321V54.6655C339.218 55.0484 339.079 55.3792 338.8 55.6577C338.522 55.9362 338.191 56.0754 337.808 56.0754H327.155Z" fill="white"/>
<path d="M346.38 56.0754C345.997 56.0754 345.667 55.9362 345.388 55.6577C345.11 55.3792 344.97 55.0484 344.97 54.6655V20.9321C344.97 20.5492 345.11 20.2184 345.388 19.9399C345.667 19.6614 345.997 19.5222 346.38 19.5222H354.631C355.327 19.5222 355.832 19.6788 356.145 19.9922C356.459 20.3055 356.668 20.5492 356.772 20.7232L365.597 35.1879V20.9321C365.597 20.5492 365.736 20.2184 366.015 19.9399C366.293 19.6614 366.624 19.5222 367.007 19.5222H376.458C376.841 19.5222 377.172 19.6614 377.451 19.9399C377.729 20.2184 377.868 20.5492 377.868 20.9321V54.6655C377.868 55.0484 377.729 55.3792 377.451 55.6577C377.172 55.9362 376.841 56.0754 376.458 56.0754H368.208C367.512 56.0754 367.007 55.9188 366.694 55.6054C366.38 55.2573 366.171 55.0136 366.067 54.8744L357.242 41.5586V54.6655C357.242 55.0484 357.103 55.3792 356.824 55.6577C356.546 55.9362 356.215 56.0754 355.832 56.0754H346.38Z" fill="white"/>
<path d="M55.1936 127.876C54.6814 127.876 54.239 127.713 53.8665 127.388C53.494 127.015 53.3078 126.549 53.3078 125.991V80.8722C53.3078 80.36 53.494 79.9177 53.8665 79.5452C54.239 79.1727 54.6814 78.9865 55.1936 78.9865H68.8827C69.3949 78.9865 69.8373 79.1727 70.2097 79.5452C70.5822 79.9177 70.7685 80.36 70.7685 80.8722V95.5392H82.083V80.8722C82.083 80.36 82.2693 79.9177 82.6418 79.5452C83.0143 79.1727 83.4566 78.9865 83.9688 78.9865H97.658C98.1701 78.9865 98.6125 79.1727 98.985 79.5452C99.3575 79.9177 99.5437 80.36 99.5437 80.8722V125.991C99.5437 126.503 99.3575 126.945 98.985 127.318C98.6125 127.69 98.1701 127.876 97.658 127.876H83.9688C83.4566 127.876 83.0143 127.69 82.6418 127.318C82.2693 126.945 82.083 126.503 82.083 125.991V110.905H70.7685V125.991C70.7685 126.503 70.5822 126.945 70.2097 127.318C69.8373 127.69 69.3949 127.876 68.8827 127.876H55.1936Z" fill="white"/>
<path d="M126.256 128.575C123.369 128.575 120.599 128.202 117.945 127.457C115.337 126.712 112.986 125.618 110.89 124.175C108.842 122.685 107.212 120.892 106.001 118.797C104.791 116.655 104.162 114.21 104.116 111.463C104.116 111.044 104.255 110.695 104.535 110.416C104.861 110.09 105.233 109.927 105.652 109.927H119.9C120.692 109.927 121.274 110.113 121.646 110.486C122.065 110.811 122.438 111.37 122.764 112.162C123.09 112.767 123.416 113.279 123.741 113.698C124.067 114.117 124.463 114.443 124.929 114.676C125.441 114.862 126.07 114.955 126.815 114.955C128.072 114.955 129.073 114.56 129.818 113.768C130.563 112.93 130.935 111.44 130.935 109.298V93.1645H110.192C109.68 93.1645 109.237 92.9783 108.865 92.6058C108.492 92.2333 108.306 91.791 108.306 91.2788V80.8722C108.306 80.36 108.492 79.9177 108.865 79.5452C109.237 79.1727 109.68 78.9865 110.192 78.9865H147.139C147.651 78.9865 148.093 79.1727 148.466 79.5452C148.838 79.9177 149.025 80.36 149.025 80.8722V109.857C149.025 114.141 148 117.679 145.952 120.473C143.949 123.22 141.225 125.269 137.78 126.619C134.334 127.923 130.493 128.575 126.256 128.575Z" fill="white"/>
<path d="M152.698 127.876C152.279 127.876 151.906 127.737 151.58 127.457C151.301 127.131 151.161 126.759 151.161 126.34C151.161 126.154 151.185 125.991 151.231 125.851L166.806 81.2913C166.946 80.7791 167.272 80.2669 167.784 79.7547C168.296 79.2425 169.018 78.9865 169.949 78.9865H185.105C186.036 78.9865 186.758 79.2425 187.27 79.7547C187.782 80.2669 188.108 80.7791 188.248 81.2913L203.823 125.851C203.869 125.991 203.893 126.154 203.893 126.34C203.893 126.759 203.73 127.131 203.404 127.457C203.124 127.737 202.775 127.876 202.356 127.876H189.435C188.55 127.876 187.899 127.69 187.48 127.318C187.107 126.899 186.851 126.503 186.711 126.13L185.035 121.521H170.019L168.343 126.13C168.203 126.503 167.947 126.899 167.574 127.318C167.202 127.69 166.55 127.876 165.619 127.876H152.698ZM173.581 107.901H181.473L177.492 94.9106L173.581 107.901ZM182.591 75.4943C182.125 75.4943 181.729 75.3546 181.403 75.0753C181.124 74.7493 180.984 74.3536 180.984 73.8879V65.2274C180.984 64.7618 181.124 64.3893 181.403 64.1099C181.729 63.784 182.125 63.621 182.591 63.621H191.251C191.717 63.621 192.089 63.784 192.369 64.1099C192.694 64.3893 192.857 64.7618 192.857 65.2274V73.8879C192.857 74.3536 192.694 74.7493 192.369 75.0753C192.089 75.3546 191.717 75.4943 191.251 75.4943H182.591ZM163.803 75.4943C163.337 75.4943 162.941 75.3546 162.616 75.0753C162.336 74.7493 162.196 74.3536 162.196 73.8879V65.2274C162.196 64.7618 162.336 64.3893 162.616 64.1099C162.941 63.784 163.337 63.621 163.803 63.621H172.463C172.929 63.621 173.301 63.784 173.581 64.1099C173.907 64.3893 174.07 64.7618 174.07 65.2274V73.8879C174.07 74.3536 173.907 74.7493 173.581 75.0753C173.301 75.3546 172.929 75.4943 172.463 75.4943H163.803Z" fill="white"/>
<path d="M209.612 127.876C209.099 127.876 208.657 127.69 208.285 127.318C207.912 126.945 207.726 126.503 207.726 125.991V80.8722C207.726 80.36 207.912 79.9177 208.285 79.5452C208.657 79.1727 209.099 78.9865 209.612 78.9865H230.285C236.99 78.9865 242.228 80.4997 246 83.5262C249.771 86.5528 251.657 90.6968 251.657 95.9582C251.657 99.0779 250.935 101.802 249.492 104.13C248.095 106.411 246.302 108.251 244.114 109.647L252.705 125.572C252.844 125.851 252.914 126.107 252.914 126.34C252.914 126.759 252.751 127.131 252.425 127.457C252.146 127.737 251.797 127.876 251.378 127.876H237.06C236.129 127.876 235.43 127.644 234.964 127.178C234.499 126.712 234.196 126.317 234.057 125.991L228.05 112.651H225.186V125.991C225.186 126.503 225 126.945 224.628 127.318C224.255 127.69 223.813 127.876 223.301 127.876H209.612ZM225.186 99.3805H230.285C231.356 99.3805 232.147 99.0313 232.66 98.3329C233.218 97.5879 233.498 96.7498 233.498 95.8186C233.498 94.8873 233.242 94.0259 232.73 93.2344C232.264 92.3963 231.449 91.9772 230.285 91.9772H225.186V99.3805Z" fill="white"/>
<path d="M260.016 127.876C259.503 127.876 259.061 127.69 258.689 127.318C258.316 126.945 258.13 126.503 258.13 125.991V80.8722C258.13 80.36 258.316 79.9177 258.689 79.5452C259.061 79.1727 259.503 78.9865 260.016 78.9865H271.051C271.982 78.9865 272.657 79.196 273.076 79.615C273.495 80.0341 273.775 80.36 273.914 80.5928L285.718 99.9393V80.8722C285.718 80.36 285.904 79.9177 286.277 79.5452C286.649 79.1727 287.091 78.9865 287.604 78.9865H300.245C300.757 78.9865 301.2 79.1727 301.572 79.5452C301.945 79.9177 302.131 80.36 302.131 80.8722V125.991C302.131 126.503 301.945 126.945 301.572 127.318C301.2 127.69 300.757 127.876 300.245 127.876H289.21C288.279 127.876 287.604 127.667 287.184 127.248C286.765 126.782 286.486 126.456 286.346 126.27L274.543 108.46V125.991C274.543 126.503 274.357 126.945 273.984 127.318C273.612 127.69 273.169 127.876 272.657 127.876H260.016Z" fill="white"/>
<path d="M307.525 127.876C307.106 127.876 306.734 127.737 306.408 127.457C306.128 127.131 305.989 126.759 305.989 126.34C305.989 126.154 306.012 125.991 306.058 125.851L321.633 81.2913C321.773 80.7791 322.099 80.2669 322.611 79.7547C323.123 79.2425 323.845 78.9865 324.776 78.9865H339.932C340.863 78.9865 341.585 79.2425 342.097 79.7547C342.609 80.2669 342.935 80.7791 343.075 81.2913L358.65 125.851C358.697 125.991 358.72 126.154 358.72 126.34C358.72 126.759 358.557 127.131 358.231 127.457C357.952 127.737 357.602 127.876 357.183 127.876H344.262C343.378 127.876 342.726 127.69 342.307 127.318C341.934 126.899 341.678 126.503 341.539 126.13L339.862 121.521H324.846L323.17 126.13C323.03 126.503 322.774 126.899 322.402 127.318C322.029 127.69 321.377 127.876 320.446 127.876H307.525ZM328.408 107.901H336.3L332.319 94.9106L328.408 107.901Z" fill="white"/>
<path d="M363.531 127.876C363.019 127.876 362.576 127.69 362.204 127.318C361.831 126.945 361.645 126.503 361.645 125.991V113.838C361.645 113.326 361.831 112.883 362.204 112.511C362.576 112.138 363.019 111.952 363.531 111.952H375.683C376.196 111.952 376.638 112.138 377.01 112.511C377.383 112.883 377.569 113.326 377.569 113.838V125.991C377.569 126.503 377.383 126.945 377.01 127.318C376.638 127.69 376.196 127.876 375.683 127.876H363.531Z" fill="white"/>
<path d="M68.0592 182.479C64.9196 182.479 62.3315 182.054 60.2949 181.206C58.2584 180.357 56.731 179.24 55.7127 177.854C54.6944 176.468 54.157 174.997 54.1005 173.442C54.1005 173.187 54.1853 172.975 54.355 172.805C54.553 172.607 54.7793 172.508 55.0339 172.508H63.0952C63.5477 172.508 63.8871 172.579 64.1134 172.72C64.368 172.833 64.6367 173.003 64.9196 173.229C65.2024 173.427 65.4853 173.611 65.7681 173.781C66.0793 173.922 66.4187 174.036 66.7864 174.12C67.1824 174.177 67.6067 174.205 68.0592 174.205C69.0209 174.205 69.7846 174.106 70.3503 173.908C70.9443 173.682 71.2413 173.385 71.2413 173.017C71.2413 172.678 71.0716 172.395 70.7322 172.169C70.421 171.942 69.8695 171.744 69.0775 171.575C68.2855 171.377 67.1824 171.193 65.7681 171.023C63.5336 170.712 61.596 170.189 59.9555 169.453C58.315 168.718 57.0421 167.714 56.137 166.441C55.2602 165.14 54.8217 163.556 54.8217 161.689C54.8217 159.766 55.3592 158.069 56.434 156.598C57.5371 155.127 59.0504 153.981 60.9738 153.161C62.9254 152.341 65.1883 151.931 67.7622 151.931C69.8836 151.931 71.7646 152.214 73.4051 152.779C75.0457 153.317 76.4317 154.038 77.5631 154.943C78.6945 155.82 79.5572 156.767 80.1512 157.786C80.7451 158.804 81.0563 159.78 81.0846 160.713C81.0846 160.968 80.9856 161.194 80.7876 161.392C80.6179 161.562 80.4199 161.647 80.1936 161.647H71.708C71.312 161.647 70.9867 161.59 70.7322 161.477C70.5059 161.364 70.2655 161.194 70.0109 160.968C69.8695 160.826 69.6008 160.671 69.2048 160.501C68.8371 160.303 68.3562 160.204 67.7622 160.204C67.0551 160.204 66.5318 160.317 66.1924 160.544C65.8813 160.742 65.7257 161.024 65.7257 161.392C65.7257 161.647 65.853 161.887 66.1075 162.113C66.3621 162.34 66.8288 162.538 67.5077 162.707C68.1865 162.877 69.1623 163.047 70.4352 163.216C73.2637 163.556 75.5265 164.107 77.2236 164.871C78.949 165.607 80.1936 166.597 80.9573 167.841C81.7493 169.086 82.1453 170.627 82.1453 172.466C82.1453 174.531 81.523 176.313 80.2784 177.812C79.0622 179.311 77.3933 180.47 75.272 181.291C73.1506 182.083 70.7463 182.479 68.0592 182.479Z" fill="white"/>
<path d="M86.3993 182.054C86.0882 182.054 85.8195 181.941 85.5932 181.715C85.3669 181.489 85.2538 181.22 85.2538 180.909V153.5C85.2538 153.189 85.3669 152.921 85.5932 152.694C85.8195 152.468 86.0882 152.355 86.3993 152.355H93.1029C93.6686 152.355 94.0788 152.482 94.3333 152.737C94.5879 152.991 94.7576 153.189 94.8425 153.331L102.013 165.083V153.5C102.013 153.189 102.126 152.921 102.352 152.694C102.578 152.468 102.847 152.355 103.158 152.355H110.838C111.149 152.355 111.418 152.468 111.644 152.694C111.87 152.921 111.983 153.189 111.983 153.5V180.909C111.983 181.22 111.87 181.489 111.644 181.715C111.418 181.941 111.149 182.054 110.838 182.054H104.134C103.568 182.054 103.158 181.927 102.904 181.673C102.649 181.39 102.479 181.192 102.395 181.079L95.2243 170.259V180.909C95.2243 181.22 95.1112 181.489 94.8849 181.715C94.6586 181.941 94.3899 182.054 94.0788 182.054H86.3993Z" fill="white"/>
<path d="M115.26 182.054C115.006 182.054 114.779 181.97 114.581 181.8C114.412 181.602 114.327 181.376 114.327 181.121C114.327 181.008 114.341 180.909 114.369 180.824L123.831 153.755C123.915 153.444 124.113 153.133 124.425 152.822C124.736 152.511 125.174 152.355 125.74 152.355H134.947C135.512 152.355 135.951 152.511 136.262 152.822C136.573 153.133 136.771 153.444 136.856 153.755L146.317 180.824C146.346 180.909 146.36 181.008 146.36 181.121C146.36 181.376 146.261 181.602 146.063 181.8C145.893 181.97 145.681 182.054 145.426 182.054H137.577C137.04 182.054 136.644 181.941 136.389 181.715C136.163 181.46 136.007 181.22 135.923 180.994L134.904 178.194H125.782L124.764 180.994C124.679 181.22 124.524 181.46 124.297 181.715C124.071 181.941 123.675 182.054 123.109 182.054H115.26ZM127.946 169.92H132.74L130.322 162.028L127.946 169.92Z" fill="white"/>
<path d="M149.834 182.054C149.523 182.054 149.254 181.941 149.028 181.715C148.802 181.489 148.688 181.22 148.688 180.909V153.5C148.688 153.189 148.802 152.921 149.028 152.694C149.254 152.468 149.523 152.355 149.834 152.355H163.92C166.635 152.355 168.856 152.694 170.581 153.373C172.307 154.024 173.579 155.014 174.4 156.343C175.248 157.644 175.672 159.285 175.672 161.265C175.672 162.17 175.474 162.99 175.078 163.726C174.711 164.433 174.258 165.027 173.721 165.508C173.212 165.988 172.731 166.342 172.278 166.568C173.353 167.021 174.287 167.813 175.078 168.944C175.899 170.047 176.309 171.306 176.309 172.72C176.309 174.842 175.842 176.595 174.909 177.981C173.975 179.339 172.618 180.357 170.836 181.036C169.082 181.715 166.918 182.054 164.344 182.054H149.834ZM159.295 174.757H163.241C163.948 174.757 164.443 174.531 164.726 174.078C165.037 173.597 165.193 173.13 165.193 172.678C165.193 172.169 165.023 171.702 164.684 171.278C164.373 170.825 163.892 170.599 163.241 170.599H159.295V174.757ZM159.295 163.513H162.859C163.482 163.513 163.92 163.315 164.175 162.919C164.457 162.495 164.599 162.057 164.599 161.604C164.599 161.152 164.457 160.713 164.175 160.289C163.92 159.865 163.482 159.653 162.859 159.653H159.295V163.513Z" fill="white"/>
<path d="M180.992 182.054C180.681 182.054 180.412 181.941 180.186 181.715C179.959 181.489 179.846 181.22 179.846 180.909V153.5C179.846 153.189 179.959 152.921 180.186 152.694C180.412 152.468 180.681 152.355 180.992 152.355H195.078C197.793 152.355 200.014 152.694 201.739 153.373C203.464 154.024 204.737 155.014 205.558 156.343C206.406 157.644 206.83 159.285 206.83 161.265C206.83 162.17 206.632 162.99 206.236 163.726C205.869 164.433 205.416 165.027 204.879 165.508C204.37 165.988 203.889 166.342 203.436 166.568C204.511 167.021 205.444 167.813 206.236 168.944C207.057 170.047 207.467 171.306 207.467 172.72C207.467 174.842 207 176.595 206.067 177.981C205.133 179.339 203.776 180.357 201.994 181.036C200.24 181.715 198.076 182.054 195.502 182.054H180.992ZM190.453 174.757H194.399C195.106 174.757 195.601 174.531 195.884 174.078C196.195 173.597 196.351 173.13 196.351 172.678C196.351 172.169 196.181 171.702 195.842 171.278C195.53 170.825 195.05 170.599 194.399 170.599H190.453V174.757ZM190.453 163.513H194.017C194.639 163.513 195.078 163.315 195.332 162.919C195.615 162.495 195.757 162.057 195.757 161.604C195.757 161.152 195.615 160.713 195.332 160.289C195.078 159.865 194.639 159.653 194.017 159.653H190.453V163.513Z" fill="white"/>
<path d="M218.365 182.054C217.799 182.054 217.361 181.899 217.05 181.588C216.739 181.277 216.541 180.965 216.456 180.654L208.479 153.585C208.451 153.472 208.437 153.373 208.437 153.288C208.437 153.034 208.522 152.822 208.692 152.652C208.89 152.454 209.116 152.355 209.37 152.355H217.262C217.828 152.355 218.266 152.511 218.577 152.822C218.888 153.133 219.086 153.444 219.171 153.755L223.202 169.538L227.233 153.755C227.317 153.444 227.515 153.133 227.827 152.822C228.138 152.511 228.576 152.355 229.142 152.355H237.033C237.288 152.355 237.5 152.454 237.67 152.652C237.868 152.822 237.967 153.034 237.967 153.288C237.967 153.373 237.953 153.472 237.924 153.585L229.948 180.654C229.863 180.965 229.665 181.277 229.354 181.588C229.043 181.899 228.604 182.054 228.039 182.054H218.365Z" fill="white"/>
<path d="M236.95 182.054C236.696 182.054 236.469 181.97 236.271 181.8C236.102 181.602 236.017 181.376 236.017 181.121C236.017 181.008 236.031 180.909 236.059 180.824L245.521 153.755C245.606 153.444 245.804 153.133 246.115 152.822C246.426 152.511 246.864 152.355 247.43 152.355H256.637C257.202 152.355 257.641 152.511 257.952 152.822C258.263 153.133 258.461 153.444 258.546 153.755L268.007 180.824C268.036 180.909 268.05 181.008 268.05 181.121C268.05 181.376 267.951 181.602 267.753 181.8C267.583 181.97 267.371 182.054 267.116 182.054H259.267C258.73 182.054 258.334 181.941 258.079 181.715C257.853 181.46 257.697 181.22 257.613 180.994L256.594 178.194H247.472L246.454 180.994C246.369 181.22 246.214 181.46 245.987 181.715C245.761 181.941 245.365 182.054 244.799 182.054H236.95ZM249.636 169.92H254.43L252.012 162.028L249.636 169.92Z" fill="white"/>
<path d="M283.124 182.479C280.408 182.479 278.004 182.083 275.911 181.291C273.818 180.499 272.149 179.254 270.904 177.557C269.688 175.86 269.023 173.668 268.91 170.981C268.882 169.821 268.868 168.577 268.868 167.247C268.868 165.918 268.882 164.645 268.91 163.429C269.023 160.798 269.702 158.634 270.947 156.937C272.22 155.24 273.903 153.981 275.996 153.161C278.117 152.341 280.493 151.931 283.124 151.931C284.934 151.931 286.673 152.143 288.342 152.567C290.039 152.963 291.567 153.599 292.924 154.476C294.282 155.353 295.357 156.485 296.149 157.871C296.969 159.228 297.394 160.869 297.422 162.792C297.422 163.047 297.323 163.273 297.125 163.471C296.955 163.641 296.743 163.726 296.488 163.726H287.833C287.381 163.726 287.041 163.641 286.815 163.471C286.617 163.273 286.433 162.948 286.263 162.495C285.952 161.59 285.528 160.982 284.99 160.671C284.453 160.36 283.817 160.204 283.081 160.204C282.148 160.204 281.398 160.459 280.833 160.968C280.295 161.449 279.998 162.34 279.942 163.641C279.857 165.96 279.857 168.336 279.942 170.769C279.998 172.07 280.295 172.975 280.833 173.484C281.398 173.965 282.148 174.205 283.081 174.205C283.817 174.205 284.453 174.036 284.99 173.696C285.556 173.357 285.98 172.763 286.263 171.914C286.405 171.433 286.589 171.108 286.815 170.938C287.041 170.769 287.381 170.684 287.833 170.684H296.488C296.743 170.684 296.955 170.783 297.125 170.981C297.323 171.15 297.422 171.363 297.422 171.617C297.394 173.541 296.969 175.195 296.149 176.581C295.357 177.939 294.282 179.056 292.924 179.933C291.567 180.81 290.039 181.46 288.342 181.885C286.673 182.281 284.934 182.479 283.124 182.479Z" fill="white"/>
<path d="M314.24 182.479C311.525 182.479 309.121 182.083 307.027 181.291C304.934 180.499 303.265 179.254 302.021 177.557C300.805 175.86 300.14 173.668 300.027 170.981C299.999 169.821 299.984 168.577 299.984 167.247C299.984 165.918 299.999 164.645 300.027 163.429C300.14 160.798 300.819 158.634 302.063 156.937C303.336 155.24 305.019 153.981 307.112 153.161C309.234 152.341 311.61 151.931 314.24 151.931C316.05 151.931 317.79 152.143 319.459 152.567C321.156 152.963 322.683 153.599 324.041 154.476C325.399 155.353 326.474 156.485 327.266 157.871C328.086 159.228 328.51 160.869 328.538 162.792C328.538 163.047 328.439 163.273 328.241 163.471C328.072 163.641 327.86 163.726 327.605 163.726H318.95C318.497 163.726 318.158 163.641 317.931 163.471C317.733 163.273 317.55 162.948 317.38 162.495C317.069 161.59 316.644 160.982 316.107 160.671C315.57 160.36 314.933 160.204 314.198 160.204C313.264 160.204 312.515 160.459 311.949 160.968C311.412 161.449 311.115 162.34 311.058 163.641C310.973 165.96 310.973 168.336 311.058 170.769C311.115 172.07 311.412 172.975 311.949 173.484C312.515 173.965 313.264 174.205 314.198 174.205C314.933 174.205 315.57 174.036 316.107 173.696C316.673 173.357 317.097 172.763 317.38 171.914C317.521 171.433 317.705 171.108 317.931 170.938C318.158 170.769 318.497 170.684 318.95 170.684H327.605C327.86 170.684 328.072 170.783 328.241 170.981C328.439 171.15 328.538 171.363 328.538 171.617C328.51 173.541 328.086 175.195 327.266 176.581C326.474 177.939 325.399 179.056 324.041 179.933C322.683 180.81 321.156 181.46 319.459 181.885C317.79 182.281 316.05 182.479 314.24 182.479Z" fill="white"/>
<path d="M333.053 182.054C332.741 182.054 332.473 181.941 332.246 181.715C332.02 181.489 331.907 181.22 331.907 180.909V153.5C331.907 153.189 332.02 152.921 332.246 152.694C332.473 152.468 332.741 152.355 333.053 152.355H341.708C342.019 152.355 342.288 152.468 342.514 152.694C342.74 152.921 342.853 153.189 342.853 153.5V180.909C342.853 181.22 342.74 181.489 342.514 181.715C342.288 181.941 342.019 182.054 341.708 182.054H333.053Z" fill="white"/>
<path d="M348.673 182.054C348.362 182.054 348.093 181.941 347.867 181.715C347.641 181.489 347.527 181.22 347.527 180.909V153.5C347.527 153.189 347.641 152.921 347.867 152.694C348.093 152.468 348.362 152.355 348.673 152.355H355.377C355.942 152.355 356.352 152.482 356.607 152.737C356.862 152.991 357.031 153.189 357.116 153.331L364.286 165.083V153.5C364.286 153.189 364.4 152.921 364.626 152.694C364.852 152.468 365.121 152.355 365.432 152.355H373.111C373.423 152.355 373.691 152.468 373.918 152.694C374.144 152.921 374.257 153.189 374.257 153.5V180.909C374.257 181.22 374.144 181.489 373.918 181.715C373.691 181.941 373.423 182.054 373.111 182.054H366.408C365.842 182.054 365.432 181.927 365.177 181.673C364.923 181.39 364.753 181.192 364.668 181.079L357.498 170.259V180.909C357.498 181.22 357.385 181.489 357.159 181.715C356.932 181.941 356.664 182.054 356.352 182.054H348.673Z" fill="white"/>
<path d="M36.9281 232.315C36.3624 232.315 35.924 232.16 35.6129 231.848C35.3017 231.537 35.1037 231.226 35.0189 230.915L27.0424 203.846C27.0141 203.733 27 203.634 27 203.549C27 203.294 27.0849 203.082 27.2546 202.913C27.4526 202.715 27.6788 202.616 27.9334 202.616H35.825C36.3907 202.616 36.8291 202.771 37.1403 203.082C37.4514 203.393 37.6494 203.705 37.7342 204.016L41.7649 219.799L45.7955 204.016C45.8804 203.705 46.0784 203.393 46.3895 203.082C46.7007 202.771 47.1391 202.616 47.7048 202.616H55.5964C55.8509 202.616 56.0631 202.715 56.2328 202.913C56.4308 203.082 56.5298 203.294 56.5298 203.549C56.5298 203.634 56.5156 203.733 56.4874 203.846L48.5109 230.915C48.4261 231.226 48.2281 231.537 47.9169 231.848C47.6058 232.16 47.1674 232.315 46.6017 232.315H36.9281Z" fill="white"/>
<path d="M55.5132 232.315C55.2586 232.315 55.0323 232.23 54.8343 232.061C54.6646 231.863 54.5798 231.636 54.5798 231.382C54.5798 231.269 54.5939 231.17 54.6222 231.085L64.0836 204.016C64.1685 203.705 64.3665 203.393 64.6776 203.082C64.9887 202.771 65.4271 202.616 65.9929 202.616H75.1997C75.7654 202.616 76.2038 202.771 76.515 203.082C76.8261 203.393 77.0241 203.705 77.1089 204.016L86.5704 231.085C86.5986 231.17 86.6128 231.269 86.6128 231.382C86.6128 231.636 86.5138 231.863 86.3158 232.061C86.1461 232.23 85.9339 232.315 85.6794 232.315H77.8302C77.2928 232.315 76.8968 232.202 76.6422 231.976C76.416 231.721 76.2604 231.481 76.1755 231.254L75.1573 228.454H66.0353L65.017 231.254C64.9322 231.481 64.7766 231.721 64.5503 231.976C64.324 232.202 63.928 232.315 63.3623 232.315H55.5132ZM68.1991 220.181H72.9934L70.5751 212.289L68.1991 220.181Z" fill="white"/>
<path d="M101.687 232.739C98.9712 232.739 96.567 232.343 94.4739 231.551C92.3808 230.759 90.7119 229.515 89.4674 227.818C88.2511 226.121 87.5864 223.929 87.4733 221.241C87.445 220.082 87.4308 218.837 87.4308 217.508C87.4308 216.178 87.445 214.906 87.4733 213.689C87.5864 211.059 88.2653 208.895 89.5098 207.198C90.7826 205.501 92.4656 204.242 94.5587 203.422C96.6801 202.601 99.0561 202.191 101.687 202.191C103.497 202.191 105.236 202.403 106.905 202.828C108.602 203.224 110.13 203.86 111.487 204.737C112.845 205.614 113.92 206.745 114.712 208.131C115.532 209.489 115.957 211.129 115.985 213.053C115.985 213.307 115.886 213.534 115.688 213.732C115.518 213.901 115.306 213.986 115.051 213.986H106.396C105.944 213.986 105.604 213.901 105.378 213.732C105.18 213.534 104.996 213.208 104.826 212.756C104.515 211.851 104.091 211.243 103.553 210.931C103.016 210.62 102.38 210.465 101.644 210.465C100.711 210.465 99.9612 210.719 99.3955 211.228C98.8581 211.709 98.5611 212.6 98.5045 213.901C98.4197 216.221 98.4197 218.597 98.5045 221.029C98.5611 222.33 98.8581 223.236 99.3955 223.745C99.9612 224.226 100.711 224.466 101.644 224.466C102.38 224.466 103.016 224.296 103.553 223.957C104.119 223.617 104.543 223.023 104.826 222.175C104.968 221.694 105.152 221.369 105.378 221.199C105.604 221.029 105.944 220.944 106.396 220.944H115.051C115.306 220.944 115.518 221.043 115.688 221.241C115.886 221.411 115.985 221.623 115.985 221.878C115.957 223.801 115.532 225.456 114.712 226.842C113.92 228.2 112.845 229.317 111.487 230.194C110.13 231.071 108.602 231.721 106.905 232.145C105.236 232.541 103.497 232.739 101.687 232.739Z" fill="white"/>
<path d="M132.803 232.739C130.088 232.739 127.683 232.343 125.59 231.551C123.497 230.759 121.828 229.515 120.584 227.818C119.368 226.121 118.703 223.929 118.59 221.241C118.562 220.082 118.547 218.837 118.547 217.508C118.547 216.178 118.562 214.906 118.59 213.689C118.703 211.059 119.382 208.895 120.626 207.198C121.899 205.501 123.582 204.242 125.675 203.422C127.797 202.601 130.173 202.191 132.803 202.191C134.613 202.191 136.353 202.403 138.022 202.828C139.719 203.224 141.246 203.86 142.604 204.737C143.962 205.614 145.036 206.745 145.828 208.131C146.649 209.489 147.073 211.129 147.101 213.053C147.101 213.307 147.002 213.534 146.804 213.732C146.635 213.901 146.422 213.986 146.168 213.986H137.513C137.06 213.986 136.721 213.901 136.494 213.732C136.296 213.534 136.112 213.208 135.943 212.756C135.632 211.851 135.207 211.243 134.67 210.931C134.133 210.62 133.496 210.465 132.761 210.465C131.827 210.465 131.078 210.719 130.512 211.228C129.975 211.709 129.678 212.6 129.621 213.901C129.536 216.221 129.536 218.597 129.621 221.029C129.678 222.33 129.975 223.236 130.512 223.745C131.078 224.226 131.827 224.466 132.761 224.466C133.496 224.466 134.133 224.296 134.67 223.957C135.236 223.617 135.66 223.023 135.943 222.175C136.084 221.694 136.268 221.369 136.494 221.199C136.721 221.029 137.06 220.944 137.513 220.944H146.168C146.422 220.944 146.635 221.043 146.804 221.241C147.002 221.411 147.101 221.623 147.101 221.878C147.073 223.801 146.649 225.456 145.828 226.842C145.036 228.2 143.962 229.317 142.604 230.194C141.246 231.071 139.719 231.721 138.022 232.145C136.353 232.541 134.613 232.739 132.803 232.739Z" fill="white"/>
<path d="M151.616 232.315C151.304 232.315 151.036 232.202 150.809 231.976C150.583 231.749 150.47 231.481 150.47 231.17V203.761C150.47 203.45 150.583 203.181 150.809 202.955C151.036 202.729 151.304 202.616 151.616 202.616H160.271C160.582 202.616 160.851 202.729 161.077 202.955C161.303 203.181 161.416 203.45 161.416 203.761V231.17C161.416 231.481 161.303 231.749 161.077 231.976C160.851 232.202 160.582 232.315 160.271 232.315H151.616Z" fill="white"/>
<path d="M167.236 232.315C166.925 232.315 166.656 232.202 166.43 231.976C166.204 231.749 166.09 231.481 166.09 231.17V203.761C166.09 203.45 166.204 203.181 166.43 202.955C166.656 202.729 166.925 202.616 167.236 202.616H173.94C174.505 202.616 174.915 202.743 175.17 202.997C175.425 203.252 175.594 203.45 175.679 203.591L182.849 215.344V203.761C182.849 203.45 182.963 203.181 183.189 202.955C183.415 202.729 183.684 202.616 183.995 202.616H191.674C191.986 202.616 192.254 202.729 192.481 202.955C192.707 203.181 192.82 203.45 192.82 203.761V231.17C192.82 231.481 192.707 231.749 192.481 231.976C192.254 232.202 191.986 232.315 191.674 232.315H184.971C184.405 232.315 183.995 232.188 183.74 231.933C183.486 231.65 183.316 231.452 183.231 231.339L176.061 220.52V231.17C176.061 231.481 175.948 231.749 175.722 231.976C175.495 232.202 175.227 232.315 174.915 232.315H167.236Z" fill="white"/>
<path d="M198.643 232.315C198.331 232.315 198.063 232.202 197.836 231.976C197.61 231.749 197.497 231.481 197.497 231.17V203.761C197.497 203.45 197.61 203.181 197.836 202.955C198.063 202.729 198.331 202.616 198.643 202.616H220.408C220.719 202.616 220.988 202.729 221.214 202.955C221.44 203.181 221.554 203.45 221.554 203.761V209.744C221.554 210.055 221.44 210.323 221.214 210.55C220.988 210.776 220.719 210.889 220.408 210.889H207.68V213.562H219.475C219.786 213.562 220.054 213.675 220.281 213.901C220.507 214.128 220.62 214.396 220.62 214.708V220.223C220.62 220.534 220.507 220.803 220.281 221.029C220.054 221.256 219.786 221.369 219.475 221.369H207.68V224.042H220.747C221.059 224.042 221.327 224.155 221.554 224.381C221.78 224.607 221.893 224.876 221.893 225.187V231.17C221.893 231.481 221.78 231.749 221.554 231.976C221.327 232.202 221.059 232.315 220.747 232.315H198.643Z" fill="white"/>
<path d="M226.942 232.315C226.63 232.315 226.362 232.202 226.135 231.976C225.909 231.749 225.796 231.481 225.796 231.17V203.761C225.796 203.45 225.909 203.181 226.135 202.955C226.362 202.729 226.63 202.616 226.942 202.616H239.5C243.573 202.616 246.755 203.535 249.046 205.373C251.338 207.212 252.483 209.729 252.483 212.926C252.483 214.821 252.045 216.475 251.168 217.89C250.319 219.276 249.23 220.393 247.901 221.241L253.12 230.915C253.204 231.085 253.247 231.24 253.247 231.382C253.247 231.636 253.148 231.863 252.95 232.061C252.78 232.23 252.568 232.315 252.313 232.315H243.616C243.05 232.315 242.626 232.174 242.343 231.891C242.06 231.608 241.876 231.368 241.791 231.17L238.143 223.066H236.403V231.17C236.403 231.481 236.29 231.749 236.064 231.976C235.837 232.202 235.569 232.315 235.257 232.315H226.942ZM236.403 215.005H239.5C240.151 215.005 240.632 214.792 240.943 214.368C241.282 213.916 241.452 213.406 241.452 212.841C241.452 212.275 241.296 211.752 240.985 211.271C240.702 210.762 240.207 210.507 239.5 210.507H236.403V215.005Z" fill="white"/>
<path d="M255.015 232.315C254.761 232.315 254.534 232.23 254.336 232.061C254.167 231.863 254.082 231.636 254.082 231.382C254.082 231.269 254.096 231.17 254.124 231.085L263.586 204.016C263.67 203.705 263.868 203.393 264.18 203.082C264.491 202.771 264.929 202.616 265.495 202.616H274.702C275.267 202.616 275.706 202.771 276.017 203.082C276.328 203.393 276.526 203.705 276.611 204.016L286.072 231.085C286.101 231.17 286.115 231.269 286.115 231.382C286.115 231.636 286.016 231.863 285.818 232.061C285.648 232.23 285.436 232.315 285.181 232.315H277.332C276.795 232.315 276.399 232.202 276.144 231.976C275.918 231.721 275.762 231.481 275.678 231.254L274.659 228.454H265.537L264.519 231.254C264.434 231.481 264.279 231.721 264.052 231.976C263.826 232.202 263.43 232.315 262.864 232.315H255.015ZM267.701 220.181H272.495L270.077 212.289L267.701 220.181Z" fill="white"/>
<path d="M289.589 232.315C289.278 232.315 289.009 232.202 288.783 231.976C288.557 231.749 288.443 231.481 288.443 231.17V203.761C288.443 203.45 288.557 203.181 288.783 202.955C289.009 202.729 289.278 202.616 289.589 202.616H302.148C306.221 202.616 309.403 203.535 311.694 205.373C313.985 207.212 315.13 209.729 315.13 212.926C315.13 214.821 314.692 216.475 313.815 217.89C312.967 219.276 311.878 220.393 310.548 221.241L315.767 230.915C315.852 231.085 315.894 231.24 315.894 231.382C315.894 231.636 315.795 231.863 315.597 232.061C315.428 232.23 315.215 232.315 314.961 232.315H306.263C305.697 232.315 305.273 232.174 304.99 231.891C304.707 231.608 304.524 231.368 304.439 231.17L300.79 223.066H299.05V231.17C299.05 231.481 298.937 231.749 298.711 231.976C298.485 232.202 298.216 232.315 297.905 232.315H289.589ZM299.05 215.005H302.148C302.798 215.005 303.279 214.792 303.59 214.368C303.93 213.916 304.099 213.406 304.099 212.841C304.099 212.275 303.944 211.752 303.633 211.271C303.35 210.762 302.855 210.507 302.148 210.507H299.05V215.005Z" fill="white"/>
<path d="M328.081 232.315C327.769 232.315 327.501 232.202 327.274 231.976C327.048 231.749 326.935 231.481 326.935 231.17V203.761C326.935 203.45 327.048 203.181 327.274 202.955C327.501 202.729 327.769 202.616 328.081 202.616H340.3C342.959 202.616 345.335 203.068 347.428 203.973C349.521 204.85 351.19 206.151 352.434 207.877C353.707 209.602 354.386 211.738 354.471 214.283C354.527 215.5 354.556 216.574 354.556 217.508C354.556 218.413 354.527 219.445 354.471 220.605C354.358 223.264 353.707 225.47 352.519 227.224C351.331 228.949 349.705 230.236 347.64 231.085C345.603 231.905 343.227 232.315 340.512 232.315H328.081ZM337.542 224.042H340.3C340.922 224.042 341.474 223.929 341.955 223.702C342.464 223.448 342.874 223.066 343.185 222.557C343.496 222.048 343.666 221.397 343.694 220.605C343.751 219.785 343.779 219.049 343.779 218.399C343.807 217.748 343.807 217.098 343.779 216.447C343.779 215.768 343.751 215.047 343.694 214.283C343.637 213.095 343.256 212.233 342.548 211.695C341.87 211.158 341.049 210.889 340.088 210.889H337.542V224.042Z" fill="white"/>
<path d="M359.487 232.315C359.176 232.315 358.907 232.202 358.681 231.976C358.455 231.749 358.342 231.481 358.342 231.17V203.761C358.342 203.45 358.455 203.181 358.681 202.955C358.907 202.729 359.176 202.616 359.487 202.616H368.142C368.454 202.616 368.722 202.729 368.949 202.955C369.175 203.181 369.288 203.45 369.288 203.761V231.17C369.288 231.481 369.175 231.749 368.949 231.976C368.722 232.202 368.454 232.315 368.142 232.315H359.487Z" fill="white"/>
<path d="M387.497 232.739C384.64 232.739 382.165 232.315 380.072 231.467C377.979 230.618 376.338 229.331 375.15 227.606C373.962 225.88 373.311 223.702 373.198 221.072C373.17 219.912 373.156 218.653 373.156 217.296C373.156 215.938 373.17 214.651 373.198 213.435C373.311 210.917 373.962 208.838 375.15 207.198C376.366 205.529 378.035 204.284 380.156 203.464C382.278 202.616 384.725 202.191 387.497 202.191C389.731 202.191 391.739 202.446 393.521 202.955C395.303 203.436 396.831 204.115 398.103 204.992C399.376 205.868 400.352 206.887 401.031 208.046C401.71 209.178 402.063 210.38 402.092 211.653C402.092 211.907 401.993 212.134 401.795 212.332C401.625 212.501 401.413 212.586 401.158 212.586H391.782C391.471 212.586 391.216 212.544 391.018 212.459C390.848 212.374 390.693 212.261 390.551 212.119C390.438 211.978 390.268 211.78 390.042 211.525C389.844 211.243 389.547 211.002 389.151 210.804C388.755 210.578 388.204 210.465 387.497 210.465C386.45 210.465 385.658 210.733 385.121 211.271C384.583 211.78 384.286 212.572 384.23 213.647C384.145 215.995 384.145 218.399 384.23 220.86C384.286 222.132 384.611 223.052 385.205 223.617C385.799 224.183 386.62 224.466 387.666 224.466C388.373 224.466 388.996 224.367 389.533 224.169C390.07 223.971 390.495 223.646 390.806 223.193C391.117 222.741 391.273 222.161 391.273 221.454V221.411H389.278C388.967 221.411 388.699 221.298 388.472 221.072C388.246 220.845 388.133 220.577 388.133 220.266V215.556C388.133 215.245 388.246 214.976 388.472 214.75C388.699 214.524 388.967 214.411 389.278 214.411H400.946C401.257 214.411 401.526 214.524 401.752 214.75C401.979 214.976 402.092 215.245 402.092 215.556V221.072C402.092 223.617 401.469 225.753 400.225 227.478C398.98 229.204 397.255 230.519 395.049 231.424C392.871 232.301 390.353 232.739 387.497 232.739Z" fill="white"/>
<path d="M116.729 282.576C116.417 282.576 116.149 282.463 115.922 282.236C115.696 282.01 115.583 281.741 115.583 281.43V254.022C115.583 253.711 115.696 253.442 115.922 253.216C116.149 252.989 116.417 252.876 116.729 252.876H123.432C123.998 252.876 124.422 253.032 124.705 253.343C124.988 253.654 125.172 253.88 125.257 254.022L131.409 264.205L137.561 254.022C137.646 253.88 137.829 253.654 138.112 253.343C138.395 253.032 138.819 252.876 139.385 252.876H146.089C146.4 252.876 146.669 252.989 146.895 253.216C147.121 253.442 147.234 253.711 147.234 254.022V281.43C147.234 281.741 147.121 282.01 146.895 282.236C146.669 282.463 146.4 282.576 146.089 282.576H138.409C138.098 282.576 137.829 282.463 137.603 282.236C137.377 282.01 137.264 281.741 137.264 281.43V269.805L134.463 274.387C134.322 274.614 134.124 274.854 133.869 275.109C133.643 275.335 133.318 275.448 132.894 275.448H129.924C129.499 275.448 129.16 275.335 128.905 275.109C128.679 274.854 128.495 274.614 128.354 274.387L125.554 269.805V281.43C125.554 281.741 125.44 282.01 125.214 282.236C124.988 282.463 124.719 282.576 124.408 282.576H116.729Z" fill="white"/>
<path d="M165.327 283C162.555 283 160.123 282.576 158.03 281.727C155.965 280.879 154.324 279.606 153.108 277.909C151.92 276.183 151.27 274.062 151.156 271.545C151.128 270.385 151.114 269.154 151.114 267.853C151.114 266.552 151.128 265.294 151.156 264.077C151.27 261.588 151.92 259.481 153.108 257.756C154.296 256.03 155.937 254.715 158.03 253.81C160.123 252.905 162.555 252.452 165.327 252.452C168.099 252.452 170.532 252.905 172.625 253.81C174.718 254.715 176.359 256.03 177.547 257.756C178.763 259.481 179.413 261.588 179.498 264.077C179.555 265.294 179.583 266.552 179.583 267.853C179.583 269.154 179.555 270.385 179.498 271.545C179.385 274.062 178.72 276.183 177.504 277.909C176.316 279.606 174.676 280.879 172.583 281.727C170.518 282.576 168.099 283 165.327 283ZM165.327 274.727C166.261 274.727 167.01 274.458 167.576 273.921C168.142 273.355 168.439 272.478 168.467 271.29C168.524 270.074 168.552 268.872 168.552 267.684C168.552 266.496 168.524 265.322 168.467 264.162C168.439 263.37 168.283 262.72 168 262.21C167.746 261.701 167.392 261.334 166.94 261.107C166.487 260.853 165.95 260.725 165.327 260.725C164.733 260.725 164.196 260.853 163.715 261.107C163.263 261.334 162.895 261.701 162.612 262.21C162.357 262.72 162.216 263.37 162.188 264.162C162.159 265.322 162.145 266.496 162.145 267.684C162.145 268.872 162.159 270.074 162.188 271.29C162.244 272.478 162.541 273.355 163.079 273.921C163.644 274.458 164.394 274.727 165.327 274.727Z" fill="white"/>
<path d="M190.841 282.576C190.53 282.576 190.262 282.463 190.035 282.236C189.809 282.01 189.696 281.741 189.696 281.43V261.998H182.653C182.342 261.998 182.073 261.885 181.847 261.659C181.62 261.433 181.507 261.164 181.507 260.853V254.022C181.507 253.711 181.62 253.442 181.847 253.216C182.073 252.989 182.342 252.876 182.653 252.876H207.516C207.827 252.876 208.095 252.989 208.322 253.216C208.548 253.442 208.661 253.711 208.661 254.022V260.853C208.661 261.164 208.548 261.433 208.322 261.659C208.095 261.885 207.827 261.998 207.516 261.998H200.473V281.43C200.473 281.741 200.359 282.01 200.133 282.236C199.907 282.463 199.638 282.576 199.327 282.576H190.841Z" fill="white"/>
<path d="M225.48 282.576C225.169 282.576 224.9 282.463 224.674 282.236C224.447 282.01 224.334 281.741 224.334 281.43V261.998H217.291C216.98 261.998 216.711 261.885 216.485 261.659C216.259 261.433 216.146 261.164 216.146 260.853V254.022C216.146 253.711 216.259 253.442 216.485 253.216C216.711 252.989 216.98 252.876 217.291 252.876H242.154C242.465 252.876 242.734 252.989 242.96 253.216C243.186 253.442 243.299 253.711 243.299 254.022V260.853C243.299 261.164 243.186 261.433 242.96 261.659C242.734 261.885 242.465 261.998 242.154 261.998H235.111V281.43C235.111 281.741 234.998 282.01 234.771 282.236C234.545 282.463 234.276 282.576 233.965 282.576H225.48Z" fill="white"/>
<path d="M247.493 282.576C247.181 282.576 246.913 282.463 246.686 282.236C246.46 282.01 246.347 281.741 246.347 281.43V254.022C246.347 253.711 246.46 253.442 246.686 253.216C246.913 252.989 247.181 252.876 247.493 252.876H261.579C264.294 252.876 266.514 253.216 268.24 253.895C269.965 254.545 271.238 255.535 272.058 256.865C272.907 258.166 273.331 259.806 273.331 261.786C273.331 262.691 273.133 263.512 272.737 264.247C272.369 264.954 271.917 265.548 271.379 266.029C270.87 266.51 270.389 266.863 269.937 267.09C271.012 267.542 271.945 268.334 272.737 269.466C273.557 270.569 273.968 271.827 273.968 273.242C273.968 275.363 273.501 277.117 272.567 278.503C271.634 279.86 270.276 280.879 268.494 281.558C266.741 282.236 264.577 282.576 262.003 282.576H247.493ZM256.954 275.278H260.9C261.607 275.278 262.102 275.052 262.385 274.599C262.696 274.119 262.851 273.652 262.851 273.199C262.851 272.69 262.682 272.223 262.342 271.799C262.031 271.347 261.55 271.12 260.9 271.12H256.954V275.278ZM256.954 264.035H260.518C261.14 264.035 261.579 263.837 261.833 263.441C262.116 263.017 262.257 262.578 262.257 262.126C262.257 261.673 262.116 261.235 261.833 260.81C261.579 260.386 261.14 260.174 260.518 260.174H256.954V264.035Z" fill="white"/>
<path d="M278.65 282.576C278.339 282.576 278.071 282.463 277.844 282.236C277.618 282.01 277.505 281.741 277.505 281.43V254.022C277.505 253.711 277.618 253.442 277.844 253.216C278.071 252.989 278.339 252.876 278.65 252.876H300.416C300.727 252.876 300.996 252.989 301.222 253.216C301.448 253.442 301.562 253.711 301.562 254.022V260.004C301.562 260.315 301.448 260.584 301.222 260.81C300.996 261.037 300.727 261.15 300.416 261.15H287.688V263.823H299.483C299.794 263.823 300.062 263.936 300.289 264.162C300.515 264.388 300.628 264.657 300.628 264.968V270.484C300.628 270.795 300.515 271.064 300.289 271.29C300.062 271.516 299.794 271.629 299.483 271.629H287.688V274.302H300.755C301.067 274.302 301.335 274.416 301.562 274.642C301.788 274.868 301.901 275.137 301.901 275.448V281.43C301.901 281.741 301.788 282.01 301.562 282.236C301.335 282.463 301.067 282.576 300.755 282.576H278.65Z" fill="white"/>
<path d="M306.398 282.576C306.087 282.576 305.818 282.463 305.592 282.236C305.366 282.01 305.252 281.741 305.252 281.43V274.048C305.252 273.737 305.366 273.468 305.592 273.242C305.818 273.015 306.087 272.902 306.398 272.902H313.78C314.092 272.902 314.36 273.015 314.587 273.242C314.813 273.468 314.926 273.737 314.926 274.048V281.43C314.926 281.741 314.813 282.01 314.587 282.236C314.36 282.463 314.092 282.576 313.78 282.576H306.398Z" fill="white"/>
</g>
<defs>
<clipPath id="clip0_428_95">
<rect width="430" height="818" fill="white"/>
</clipPath>
</defs>
</svg>
