<svg width="672" height="516" viewBox="0 0 672 516" fill="none" xmlns="http://www.w3.org/2000/svg">
<g clip-path="url(#clip0_427_2)">
<path d="M480.723 389.823C480.723 497.104 393.105 584.091 284.999 584.091C176.893 584.091 89.2754 497.104 89.2754 389.823C89.2754 282.542 176.893 195.555 284.999 195.555C393.105 195.555 480.723 282.542 480.723 389.823Z" stroke="#DADADA" stroke-opacity="0.2" stroke-width="3"/>
<path d="M441.425 392.733C441.425 478.307 371.405 547.702 285.001 547.702C198.597 547.702 128.576 478.307 128.576 392.733C128.576 307.159 198.597 237.764 285.001 237.764C371.405 237.764 441.425 307.159 441.425 392.733Z" stroke="#DADADA" stroke-opacity="0.2" stroke-width="3"/>
<circle cx="285.001" cy="384" r="232.112" stroke="#DADADA" stroke-opacity="0.2" stroke-width="3"/>
<circle cx="285" cy="384" r="268.5" stroke="#DADADA" stroke-opacity="0.2" stroke-width="3"/>
<path d="M523.412 225.227C541.059 224.758 555.176 221.939 565.765 216.773C576.353 211.371 584.824 203.152 591.176 192.114C566.706 192.114 546.353 186.125 530.118 174.148C513.882 162.17 505.765 142.678 505.765 115.67C505.765 105.572 507.529 95.7083 511.059 86.0795C514.824 76.4508 520.353 67.8788 527.647 60.3636C534.941 52.8485 543.765 46.7424 554.118 42.0455C564.471 37.3485 576.353 35 589.765 35C616.353 35 637.647 43.6894 653.647 61.0682C669.882 78.2121 678 101.227 678 130.114C678 145.848 675.647 161.936 670.941 178.375C666.471 194.814 658.353 209.962 646.588 223.818C634.824 237.674 618.941 250.004 598.941 260.807C578.941 271.375 553.765 278.773 523.412 283V225.227ZM335.294 225.227C353.176 224.758 367.412 221.939 378 216.773C388.588 211.371 397.059 203.152 403.412 192.114C378.706 192.114 358.235 186.125 342 174.148C326 162.17 318 142.678 318 115.67C318 105.572 319.765 95.7083 323.294 86.0795C327.059 76.4508 332.471 67.8788 339.529 60.3636C346.824 52.8485 355.647 46.7424 366 42.0455C376.353 37.3485 388.235 35 401.647 35C428.235 35 449.529 43.6894 465.529 61.0682C481.765 78.2121 489.882 101.227 489.882 130.114C489.882 145.848 487.529 161.936 482.824 178.375C478.353 194.814 470.235 209.962 458.471 223.818C446.706 237.674 430.824 250.004 410.824 260.807C390.824 271.375 365.647 278.773 335.294 283V225.227Z" fill="white"/>
<path fill-rule="evenodd" clip-rule="evenodd" d="M445.807 449.091C440.096 417.054 429.613 374.213 410.965 338.585C410.965 338.585 367.003 303.393 341.106 353.669C341.106 353.669 353.932 405.633 370.68 449.091H445.807Z" fill="#F0AA93"/>
<path fill-rule="evenodd" clip-rule="evenodd" d="M126.025 449.09C159.302 378.336 185.338 309.407 188.428 292.063C202.878 229.558 133.054 252.524 130.009 256.545C109.523 269.19 103.552 314.087 70.563 397.873C67.1647 406.492 60.5633 431.787 55.3289 449.09H126.025Z" fill="#F0AA93"/>
<path fill-rule="evenodd" clip-rule="evenodd" d="M214.523 284.372L151.225 438.326C112.951 438.326 75.083 418.073 55.3304 397.872C93.2426 314.706 117.171 269.504 117.171 269.504C117.171 269.504 126.535 245.911 164.332 237.183C164.332 237.183 219.67 251.632 214.523 284.372Z" fill="white"/>
<path fill-rule="evenodd" clip-rule="evenodd" d="M303.078 124.345C303.933 121.83 304.664 119.631 305.268 117.987C315.345 90.4852 316.726 52.4411 284.405 42.2356C245.661 30.0035 251.721 87.4124 250.41 104.849C248.895 125.009 246.184 132.82 255.327 151.25C258.769 158.194 262.522 164.46 270.72 163.367C279.799 162.154 298.996 136.342 303.078 124.345Z" fill="#383838"/>
<path fill-rule="evenodd" clip-rule="evenodd" d="M282.861 144.807L216.468 141.905L212.863 224.471L279.265 227.37L282.861 144.807Z" fill="#F0AA93"/>
<path fill-rule="evenodd" clip-rule="evenodd" d="M260.599 189.629C267.873 175.943 272.468 161.976 272.127 144.341L216.467 141.905L213.334 213.67C230.929 211.759 252.844 204.212 260.599 189.629Z" fill="#EA8A74"/>
<path fill-rule="evenodd" clip-rule="evenodd" d="M317.414 233.959L279.797 215.2H214.959L185.947 234.919C185.947 234.919 181.25 275.941 222.059 288.51C222.059 288.51 309.42 303.6 317.414 233.959Z" fill="#F0AA93"/>
<path fill-rule="evenodd" clip-rule="evenodd" d="M290.231 220.401L360.459 249.907C360.459 249.907 385.553 266.939 379.491 295.428L359.449 438.327C360.218 441.852 360.873 445.453 361.44 449.091H122.911C123.021 447.457 123.144 445.847 123.251 444.178L123.117 293.831C123.853 257.937 152.135 241.634 152.135 241.634L208.907 219.315C208.907 219.315 186.124 257.361 242.74 257.998C242.74 257.998 292.735 259.389 290.231 220.401Z" fill="white"/>
<path fill-rule="evenodd" clip-rule="evenodd" d="M219.639 47.6282C233.676 44.2302 229.181 55.4278 225.152 68.7959L205.544 77.4801C189.007 84.6329 198.252 94.8038 196.102 109.099C195.209 114.978 192.973 120.695 191.772 126.403C188.042 120.394 181.911 91.7892 181.744 84.9447C181.744 84.9447 176.85 55.2839 197.111 49.1444C197.111 49.1444 210.956 46.4672 219.639 47.6282Z" fill="#383838"/>
<path fill-rule="evenodd" clip-rule="evenodd" d="M282.861 144.806C278.386 159.598 267.088 176.884 254.323 186.302C241.827 195.513 228.564 200.816 214.949 191.389C204.119 183.89 196.532 172.253 191.812 160.283C180.937 132.737 184.073 93.0506 200.118 68.7487C217.737 42.0533 256.339 44.3893 273.449 71.0542C287.375 92.7663 290.091 120.939 282.861 144.806Z" fill="#F0AA93"/>
<path fill-rule="evenodd" clip-rule="evenodd" d="M255.327 131.741C255.393 133.989 251.313 135.921 246.238 136.061C241.151 136.195 236.978 134.482 236.92 132.241C236.862 129.998 240.934 128.062 246.02 127.925C251.096 127.785 255.269 129.501 255.327 131.741Z" fill="#EA8A74"/>
<path fill-rule="evenodd" clip-rule="evenodd" d="M210.167 131.741C210.238 133.988 206.166 135.921 201.08 136.061C196.004 136.191 191.828 134.489 191.77 132.241C191.707 129.994 195.774 128.059 200.86 127.928C205.946 127.784 210.114 129.501 210.167 131.741Z" fill="#EA8A74"/>
<path fill-rule="evenodd" clip-rule="evenodd" d="M220.902 143.453C217.647 143.453 214.316 142.665 212.672 140.685C211.876 139.726 210.808 137.671 212.609 134.677C224.253 115.335 220.47 112.447 217.706 110.334C217.032 109.823 216.413 109.333 215.927 108.789C215.272 108.045 215.335 106.904 216.077 106.247C216.82 105.586 217.961 105.651 218.624 106.397C218.965 106.781 219.418 107.113 219.888 107.473C224.691 111.139 227.984 116.123 215.7 136.537C214.946 137.787 215.292 138.205 215.441 138.387C216.762 139.966 222.248 140.374 225.569 139.137C226.502 138.787 227.536 139.26 227.883 140.192C228.229 141.124 227.753 142.162 226.828 142.508C225.248 143.097 223.09 143.453 220.902 143.453Z" fill="#EA8A74"/>
<path fill-rule="evenodd" clip-rule="evenodd" d="M196.473 108.336C195.732 108.336 195.006 107.987 194.553 107.333C193.822 106.271 194.083 104.818 195.145 104.082C199.29 101.218 207.169 99.3885 215.74 103.65C216.893 104.222 217.364 105.623 216.792 106.781C216.216 107.936 214.812 108.405 213.661 107.829C204.779 103.41 198.486 107.449 197.798 107.925C197.391 108.203 196.933 108.336 196.473 108.336Z" fill="#383838"/>
<path fill-rule="evenodd" clip-rule="evenodd" d="M252.899 108.337C252.394 108.337 251.881 108.176 251.453 107.837C247.621 104.815 240.289 104.103 236.209 107.683C235.243 108.532 233.771 108.436 232.917 107.47C232.069 106.504 232.16 105.028 233.131 104.175C239.131 98.8992 248.944 99.9132 254.346 104.171C255.36 104.97 255.53 106.436 254.731 107.45C254.27 108.032 253.588 108.337 252.899 108.337Z" fill="#383838"/>
<path fill-rule="evenodd" clip-rule="evenodd" d="M183.093 56.0306C184.377 70.3973 181.226 80.2256 216.665 86.2206C226.2 87.8341 236.043 84.9565 245.48 82.8806C249.296 82.0378 254.527 79.3966 258.411 79.4583C272.416 79.6775 271.563 117.144 272.992 130.227C274.795 130.179 278.099 131.519 279.596 126.942C280.716 123.509 281.66 110.862 284.245 108.131C290.424 101.599 296.85 109.025 298.436 113.301C297.073 109.618 297.571 104.096 297.08 100.215C295.937 91.1707 290.269 76.6047 293.552 68.8729C296.294 62.3877 300.745 61.1418 301.941 53.6086C296.091 44.3315 284.404 47.0152 284.404 47.0152C286.554 27.6024 226.195 30.8925 226.195 30.8925C226.195 30.8925 185.27 30.2454 183.093 56.0306Z" fill="#383838"/>
<path fill-rule="evenodd" clip-rule="evenodd" d="M204.091 111.956C202.26 112.066 200.942 114.378 201.14 117.112C201.332 119.846 202.986 121.98 204.817 121.87C206.658 121.767 207.971 119.455 207.764 116.714C207.571 113.977 205.923 111.847 204.091 111.956Z" fill="#1A1E2F"/>
<path fill-rule="evenodd" clip-rule="evenodd" d="M247.45 116.725C247.251 113.977 245.614 111.847 243.773 111.956C241.936 112.059 240.621 114.378 240.824 117.108C241.016 119.849 242.672 121.983 244.501 121.87C246.332 121.767 247.652 119.455 247.45 116.725Z" fill="#1A1E2F"/>
<path fill-rule="evenodd" clip-rule="evenodd" d="M224.819 160.134C224.632 160.134 224.445 160.13 224.252 160.123C221.46 160.01 218.084 159 216.824 157.003C216.296 156.16 216.546 155.047 217.388 154.519C218.233 153.988 219.343 154.242 219.872 155.081C220.155 155.533 221.958 156.427 224.397 156.523C226.574 156.598 228.347 156.026 229.146 154.964C229.741 154.17 230.866 154.009 231.668 154.598C232.462 155.194 232.621 156.324 232.029 157.123C230.583 159.051 227.978 160.134 224.819 160.134Z" fill="#EA8A74"/>
<path fill-rule="evenodd" clip-rule="evenodd" d="M234.772 153.209C233.047 149.93 226.904 151.424 223.932 150.889C221.418 150.437 218.664 149.773 216.433 151.458C214.356 153.03 213.722 154.784 214.025 157.477C214.698 163.493 224.369 163.821 226.193 163.493C231.418 162.544 237.675 158.721 234.772 153.209ZM284.402 138.886C283.949 140.883 283.451 142.863 282.859 144.805C278.385 159.598 267.087 176.884 254.322 186.301C241.826 195.513 228.563 200.816 214.948 191.388C204.118 183.889 196.531 172.252 191.811 160.283C188.662 152.297 186.725 143.281 185.913 133.929C188.978 141.448 193.018 152.023 198.271 151.427C201.078 151.393 204.252 149.601 206.286 148.498C212.11 145.347 217.179 146.71 223.312 147.323C227.716 147.769 231.99 146.309 236.35 147.495C244.431 149.69 248.983 155.35 258.015 152.811C264.019 151.119 268.375 144.511 270.398 139.023C271.758 135.32 273.097 121.302 277.432 128.383C278.6 130.294 279.865 135.943 281.408 137.587C282.346 138.591 283.373 138.92 284.402 138.886Z" fill="#383838"/>
<path fill-rule="evenodd" clip-rule="evenodd" d="M303.04 117.982C304.064 126.412 300.396 136.474 293.186 140.787C283.398 146.645 278.418 137.625 277.432 128.382C276.63 120.938 278.526 107.753 286.676 104.204C294.372 100.857 302.189 111.065 303.04 117.982Z" fill="#F0AA93"/>
<path fill-rule="evenodd" clip-rule="evenodd" d="M288.647 135.707C287.923 135.707 287.233 135.262 286.962 134.539C282.986 123.871 284.468 113.331 290.488 109.47C291.327 108.935 292.437 109.175 292.981 110.015C293.515 110.85 293.27 111.964 292.433 112.502C287.981 115.359 287.058 124.485 290.333 133.278C290.68 134.21 290.212 135.248 289.279 135.594C289.074 135.673 288.856 135.707 288.647 135.707Z" fill="#EA8A74"/>
<path fill-rule="evenodd" clip-rule="evenodd" d="M287.118 121.364C286.574 121.364 286.028 121.114 285.677 120.645C285.08 119.85 285.239 118.719 286.033 118.123C288.916 115.962 293.641 116.421 297.098 117.575C298.045 117.89 298.555 118.911 298.234 119.853C297.925 120.795 296.906 121.299 295.963 120.991C293.378 120.134 289.845 119.768 288.196 121.008C287.869 121.248 287.498 121.364 287.118 121.364Z" fill="#EA8A74"/>
<path fill-rule="evenodd" clip-rule="evenodd" d="M359.45 439.872C390.043 436.939 423.529 421.541 448.586 401.346C425.674 334.689 407.373 259.543 357.027 250.04C357.027 250.04 303.077 276.959 328.063 349.402C328.063 349.402 345.461 394.635 359.45 439.872Z" fill="white"/>
<path fill-rule="evenodd" clip-rule="evenodd" d="M360.827 440.441C360.155 440.441 359.507 440.061 359.204 439.414C350.45 420.994 344.777 405.253 340.219 392.605C337.883 386.113 335.859 380.505 333.884 375.826C323.264 350.678 314.169 312.844 323.496 288.971C323.855 288.049 324.895 287.593 325.823 287.953C326.749 288.313 327.202 289.358 326.845 290.283C317.904 313.146 326.832 349.9 337.192 374.428C339.205 379.2 341.239 384.849 343.598 391.385C348.128 403.961 353.771 419.61 362.444 437.875C362.871 438.77 362.492 439.838 361.596 440.267C361.343 440.383 361.083 440.441 360.827 440.441Z" fill="#E2E2E2"/>
<path fill-rule="evenodd" clip-rule="evenodd" d="M177.697 38.0507C179.796 30.8249 183.675 27.2488 190.727 26.3801C199.837 25.2581 197.92 20.6513 203.742 14.8317C206.236 12.3429 210.971 10.455 214.514 11.1429C218.457 11.9054 218.874 14.8327 222.134 16.8638C228.834 21.0233 237.992 16.4767 244.594 14.844C248.18 13.9568 252.49 12.9438 255.813 15.7193C258.585 18.0296 259.134 21.7769 262.561 24.1808C270.255 29.5821 275.156 25.0026 282.772 26.8391C289.631 28.4906 290.015 35.9682 295.88 39.7595C299.141 41.8649 303.62 41.5905 306.144 44.5092C308.731 47.5063 310.264 55.009 310.701 58.7231C311.587 66.3097 312.927 67.9095 309.123 75.7817C305.807 82.6468 298.668 92.1805 290.382 92.8657C280.609 93.6673 276.35 81.5917 270.192 75.8057C261.273 67.4367 254.746 68.091 244.169 73.5276C237.828 76.7854 232.767 81.3999 225.738 77.9262C221.441 75.7988 218.288 71.5476 213.74 69.5949C209.443 67.7519 204.117 67.5121 199.529 67.9403C194.665 68.3925 190.704 87.4531 187.583 84.3186C176.854 73.5379 175.628 45.1632 177.697 38.0507Z" fill="#383838"/>
<path d="M124.899 434.988L367.917 438.749L396.59 528.999H112.207L124.899 434.988Z" fill="white"/>
<path d="M123.018 449.09H55.3297L38.4078 528.999H112.206L123.018 449.09Z" fill="#F0AA93"/>
<path d="M371.207 449.09H445.77L465.218 528.999H396.59L371.207 449.09Z" fill="#F0AA93"/>
</g>
<defs>
<clipPath id="clip0_427_2">
<rect width="672" height="516" fill="white"/>
</clipPath>
</defs>
</svg>
