<svg width="672" height="516" viewBox="0 0 672 516" fill="none" xmlns="http://www.w3.org/2000/svg">
<g clip-path="url(#clip0_361_382)">
<path d="M480.723 389.823C480.723 497.104 393.105 584.091 284.999 584.091C176.893 584.091 89.2754 497.104 89.2754 389.823C89.2754 282.542 176.893 195.555 284.999 195.555C393.105 195.555 480.723 282.542 480.723 389.823Z" stroke="#DADADA" stroke-opacity="0.2" stroke-width="3"/>
<path d="M441.425 392.733C441.425 478.307 371.405 547.702 285.001 547.702C198.597 547.702 128.576 478.307 128.576 392.733C128.576 307.159 198.597 237.764 285.001 237.764C371.405 237.764 441.425 307.159 441.425 392.733Z" stroke="#DADADA" stroke-opacity="0.2" stroke-width="3"/>
<circle cx="285.001" cy="384" r="232.112" stroke="#DADADA" stroke-opacity="0.2" stroke-width="3"/>
<circle cx="285" cy="384" r="268.5" stroke="#DADADA" stroke-opacity="0.2" stroke-width="3"/>
<path d="M523.412 225.227C541.059 224.758 555.176 221.939 565.765 216.773C576.353 211.371 584.824 203.152 591.176 192.114C566.706 192.114 546.353 186.125 530.118 174.148C513.882 162.17 505.765 142.678 505.765 115.67C505.765 105.572 507.529 95.7083 511.059 86.0795C514.824 76.4508 520.353 67.8788 527.647 60.3636C534.941 52.8485 543.765 46.7424 554.118 42.0455C564.471 37.3485 576.353 35 589.765 35C616.353 35 637.647 43.6894 653.647 61.0682C669.882 78.2121 678 101.227 678 130.114C678 145.848 675.647 161.936 670.941 178.375C666.471 194.814 658.353 209.962 646.588 223.818C634.824 237.674 618.941 250.004 598.941 260.807C578.941 271.375 553.765 278.773 523.412 283V225.227ZM335.294 225.227C353.176 224.758 367.412 221.939 378 216.773C388.588 211.371 397.059 203.152 403.412 192.114C378.706 192.114 358.235 186.125 342 174.148C326 162.17 318 142.678 318 115.67C318 105.572 319.765 95.7083 323.294 86.0795C327.059 76.4508 332.471 67.8788 339.529 60.3636C346.824 52.8485 355.647 46.7424 366 42.0455C376.353 37.3485 388.235 35 401.647 35C428.235 35 449.529 43.6894 465.529 61.0682C481.765 78.2121 489.882 101.227 489.882 130.114C489.882 145.848 487.529 161.936 482.824 178.375C478.353 194.814 470.235 209.962 458.471 223.818C446.706 237.674 430.824 250.004 410.824 260.807C390.824 271.375 365.647 278.773 335.294 283V225.227Z" fill="white"/>
<path fill-rule="evenodd" clip-rule="evenodd" d="M175.966 202.609C136.016 249.068 120.127 353.589 114.994 393.764C108.28 446.308 137.768 524.421 137.768 524.421C137.768 524.421 171.954 502.145 171.954 497.399C171.954 492.652 183.82 209.436 183.82 209.436L175.966 202.609Z" fill="#F5F4F3"/>
<path fill-rule="evenodd" clip-rule="evenodd" d="M145.9 468.849C111.87 553.572 141.942 579.348 161.273 585.794C180.605 592.233 179.889 486.268 179.889 486.268L145.9 468.849Z" fill="#F5F4F3"/>
<path fill-rule="evenodd" clip-rule="evenodd" d="M394.065 423.413C416.081 478.724 460.653 569.475 383.324 597.398C339.144 613.354 347.346 479.797 347.346 479.797L394.065 423.413Z" fill="#F5F4F3"/>
<path fill-rule="evenodd" clip-rule="evenodd" d="M148.778 578.724C150.846 638.98 174.947 736.597 182.007 770.676C189.068 804.762 199.17 981.492 199.17 981.492C211.22 986.002 223.27 986.363 235.199 982.346C235.199 982.346 269.888 870.853 265.142 786.377C278.407 856.491 343.041 973.826 343.041 973.826C356.796 980.278 368.967 978.453 380.044 970.176C380.044 970.176 389.418 895.198 355.092 775.671C346.571 746.088 346.571 723.331 351.075 702.518C353.632 690.467 357.769 679.144 362.639 667.336C366.168 658.698 370.184 649.81 374.324 640.319C381.991 622.787 397.693 578.967 397.328 551.219C396.841 518.11 388.686 486.828 375.54 466.137C372.376 461.146 378.948 456.521 370.916 453.6H370.794C316.02 434.612 165.939 458.711 165.939 458.711C165.939 458.711 146.831 518.598 148.778 578.724Z" fill="#F8C87E"/>
<path fill-rule="evenodd" clip-rule="evenodd" d="M362.182 559.776C289.097 584.06 148.467 517.576 148.467 517.576C148.467 517.576 128.78 505.081 142.809 469.717C145.401 463.116 172.984 360.442 160.961 347.122C146.933 331.443 137.739 311.759 142.69 296.67C147.76 281.581 170.274 242.68 170.274 242.68C170.274 231.011 174.753 204.016 175.932 202.601C181.471 196.118 191.611 188.928 206.818 183.034C229.921 174.075 265.05 168.181 314.558 172.779C316.327 172.896 318.213 173.014 320.098 173.25C348.861 176.315 387.643 200.362 385.64 257.062C385.168 271.797 383.99 287.239 382.811 302.681C379.864 342.642 395.307 414.785 403.676 472.31C411.573 526.299 392.596 549.757 362.182 559.776Z" fill="#F5F4F3"/>
<path fill-rule="evenodd" clip-rule="evenodd" d="M224.724 181.613C226.538 177.032 227.047 174.964 226.06 168.919C225.933 167.997 225.743 167.011 225.552 166.024C224.789 162.112 223.674 157.944 222.084 153.999C222.02 153.776 221.893 153.585 221.829 153.363C220.843 150.977 219.666 148.654 218.298 146.459C210.44 133.925 245.467 120.849 263.633 115.091C267.578 113.818 270.695 112.928 272.477 112.419C273.431 112.132 273.973 112.005 273.973 112.005C273.941 112.704 273.941 113.373 273.941 114.041C273.876 116.014 273.845 117.954 273.845 119.862C273.845 122.981 273.941 125.971 274.067 128.834C276.804 159.535 296.623 175.632 296.623 175.632C296.623 175.632 256.059 205.393 234.847 204.856C213.636 204.319 224.724 181.613 224.724 181.613Z" fill="#EC9988"/>
<path fill-rule="evenodd" clip-rule="evenodd" d="M274.076 128.821V128.848C267.352 143.613 248.942 164.588 226.063 168.934C225.913 167.986 225.725 167.012 225.536 166.037C224.786 162.108 223.659 157.958 222.08 154.003L263.632 115.088L268.066 110.91L268.102 110.882C268.216 110.854 268.253 110.826 268.253 110.826C270.094 111.104 271.447 111.662 272.461 112.414C273.062 112.887 273.55 113.417 273.926 114.03C273.776 119.294 273.851 124.224 274.076 128.821Z" fill="#E77A6A"/>
<path fill-rule="evenodd" clip-rule="evenodd" d="M189.01 102.283C145.005 43.0347 206.355 -6.37821 256.196 16.8649C312.951 43.3314 277.821 120.184 253.249 123.229C228.677 126.274 189.01 102.283 189.01 102.283Z" fill="#342C43"/>
<path fill-rule="evenodd" clip-rule="evenodd" d="M222.084 166.005C235.845 166.01 258.282 154.111 268.06 127.918C282.825 88.3655 266.252 30.2909 218.948 37.8813C199.126 41.0615 173.652 56.4103 179.623 93.5069C181.019 102.17 186.445 108.816 185.218 123.496C183.077 149.096 204.936 166 222.084 166.005Z" fill="#EC9988"/>
<path fill-rule="evenodd" clip-rule="evenodd" d="M202.547 135.828C203.615 135.828 204.805 135.705 206.101 135.469C206.66 135.372 207.029 134.839 206.923 134.278C206.818 133.718 206.275 133.385 205.733 133.456C201.794 134.174 199.221 133.709 198.083 132.082C195.65 128.615 199.554 120.247 201.26 117.316C201.549 116.826 201.383 116.195 200.893 115.915C200.403 115.618 199.781 115.793 199.492 116.284C198.792 117.474 192.788 128.099 196.403 133.254C197.602 134.969 199.659 135.828 202.547 135.828Z" fill="#E26655"/>
<path fill-rule="evenodd" clip-rule="evenodd" d="M175.371 68.19C175.371 68.19 180.069 84.0311 207.725 82.4196C253.412 79.7587 259.276 102.647 259.276 102.647C259.276 102.647 265.363 87.4324 271.339 88.2745C291.373 91.099 261.629 23.5023 227.778 25.0021C193.928 26.5013 175.371 68.19 175.371 68.19Z" fill="#342C43"/>
<path fill-rule="evenodd" clip-rule="evenodd" d="M185.361 56.6232C185.834 52.8517 186.122 49.1858 187.411 45.7982C188.523 42.3975 190.111 39.1615 192.452 36.4664C196.743 30.7467 202.99 26.7244 209.674 23.3027C202.13 24.3359 195.033 28.5196 190.056 34.5951C187.691 37.7208 185.871 41.3473 185.161 45.1937C184.258 49.0105 184.582 52.9462 185.361 56.6232Z" fill="#504366"/>
<path fill-rule="evenodd" clip-rule="evenodd" d="M260.984 97.4017C260.984 97.4017 264.998 82.7822 278.762 88.1002C293.319 93.7247 275.95 127.86 264.41 114.804C257.715 107.231 260.984 97.4017 260.984 97.4017Z" fill="#EC9988"/>
<path fill-rule="evenodd" clip-rule="evenodd" d="M266.326 102.591C269.226 92.0865 275.58 89.8351 278.312 93.0205C281.044 96.2059 280.728 98.3142 276.165 99.9519C271.602 101.589 274.987 105.732 271.163 107.427C267.34 109.12 265.232 106.551 266.326 102.591Z" fill="#E77A6A"/>
<path fill-rule="evenodd" clip-rule="evenodd" d="M179.644 100.768C178.193 96.089 191.795 93.8435 192.345 95.5278C192.893 97.2121 190.149 95.8081 185.524 98.1474C180.899 100.487 180.216 102.613 179.644 100.768Z" fill="#171B2E"/>
<mask id="mask0_361_382" style="mask-type:luminance" maskUnits="userSpaceOnUse" x="136" y="92" width="258" height="957">
<path d="M393.914 92.1348H136.815V1048.22H393.914V92.1348Z" fill="#171B2E"/>
</mask>
<g mask="url(#mask0_361_382)">
<path fill-rule="evenodd" clip-rule="evenodd" d="M225.583 95.7968C226.387 90.8739 210.022 91.7725 209.702 93.5506C209.381 95.3288 212.327 93.3255 218.192 94.5661C224.059 95.8073 225.265 97.7383 225.583 95.7968Z" fill="#171B2E"/>
</g>
<path fill-rule="evenodd" clip-rule="evenodd" d="M210.916 107.609C210.916 110.121 212.07 112.158 213.493 112.158C214.916 112.158 216.07 110.121 216.07 107.609C216.07 105.097 214.916 103.061 213.493 103.061C212.07 103.061 210.916 105.097 210.916 107.609Z" fill="#362222"/>
<path fill-rule="evenodd" clip-rule="evenodd" d="M187.763 109.933C187.763 112.445 188.917 114.482 190.341 114.482C191.765 114.482 192.918 112.445 192.918 109.933C192.918 107.422 191.765 105.385 190.341 105.385C188.917 105.385 187.763 107.422 187.763 109.933Z" fill="#362222"/>
<path fill-rule="evenodd" clip-rule="evenodd" d="M200.073 144.31C210.678 144.847 221.553 142.027 221.553 142.027C221.553 142.027 220.214 154.208 211.32 155.725C203.969 156.977 204.1 147.666 204.1 147.666L200.073 144.31Z" fill="#F5F4F3"/>
<mask id="mask1_361_382" style="mask-type:luminance" maskUnits="userSpaceOnUse" x="177" y="198" width="279" height="824">
<path d="M455.229 198.857H177.966V1021.23H455.229V198.857Z" fill="#F5F4F3"/>
</mask>
<g mask="url(#mask1_361_382)">
<path fill-rule="evenodd" clip-rule="evenodd" d="M367.994 198.857C433.816 275.792 452.622 350.804 455.187 391.836C457.751 432.867 399.5 551.709 399.5 551.709L372.91 535.447C372.91 535.447 398.767 420.258 388.51 396.964C381.62 381.318 342.136 293.53 336.152 256.772C330.169 220.015 367.994 198.857 367.994 198.857Z" fill="#F5F4F3"/>
</g>
<path fill-rule="evenodd" clip-rule="evenodd" d="M371.832 536.426C370.384 534.823 363.246 526.592 364.68 521.582C368.483 508.2 395.688 405.907 391.629 394.895C390.877 392.851 388.762 388.324 385.825 382.037C371.392 351.071 337.588 278.553 337.049 228.357L339.943 228.329C340.483 277.886 374.103 350.007 388.464 380.802C391.416 387.161 393.558 391.744 394.354 393.902C399.165 406.929 367.788 521.241 367.461 522.377C366.737 524.932 370.838 530.991 373.989 534.468L371.832 536.426Z" fill="#C1BFD5"/>
<path fill-rule="evenodd" clip-rule="evenodd" d="M145.11 510.937C117.963 461.906 150.348 377.92 155.2 365.971C151.085 363.999 138.738 357.301 136.738 347.239C134.708 337.135 142.57 315.393 154.491 282.497C160.21 266.687 166.696 248.778 173.209 228.967L175.963 229.875C169.448 249.729 162.949 267.667 157.216 283.49C145.905 314.769 137.716 337.361 139.576 346.671C141.647 357.002 157.485 363.829 157.641 363.9L158.975 364.467L158.408 365.801C158.025 366.724 119.693 459.025 147.665 509.518L145.11 510.937Z" fill="#C1BFD5"/>
<path fill-rule="evenodd" clip-rule="evenodd" d="M298.819 375.127C288.431 375.127 276.58 373.537 263.468 369.279L264.376 366.526C314.287 382.747 345.21 359.303 345.523 359.062L347.311 361.361C347.07 361.545 329.189 375.127 298.819 375.127Z" fill="#C1BFD5"/>
<path fill-rule="evenodd" clip-rule="evenodd" d="M403.709 549.838L421.91 510.314L419.233 509.087L401.032 548.61L403.709 549.838Z" fill="#C1BFD5"/>
<path fill-rule="evenodd" clip-rule="evenodd" d="M314.559 172.779C305.378 212.586 224.955 240.746 224.955 240.746C224.955 240.746 206.346 231.718 206.818 183.034C229.922 174.075 265.05 168.181 314.559 172.779Z" fill="#EC9988"/>
<path fill-rule="evenodd" clip-rule="evenodd" d="M296.207 176.047L297.043 175.211L292.72 170.94L291.884 171.775L296.207 176.047Z" fill="#E26655"/>
<path fill-rule="evenodd" clip-rule="evenodd" d="M224.378 184.41C225.836 182.398 226.56 177.41 226.586 177.197L225.427 177.027C225.419 177.079 224.711 181.946 223.423 183.711L224.378 184.41Z" fill="#E26655"/>
<path fill-rule="evenodd" clip-rule="evenodd" d="M272.246 115.912C272.246 118.071 273.194 119.821 274.364 119.821C275.533 119.821 276.48 118.071 276.48 115.912C276.48 113.754 275.533 112.005 274.364 112.005C273.194 112.005 272.246 113.754 272.246 115.912Z" fill="#F9EF69"/>
</g>
<defs>
<clipPath id="clip0_361_382">
<rect width="672" height="516" fill="white"/>
</clipPath>
</defs>
</svg>
