<svg width="512" height="512" viewBox="0 0 512 512" fill="none" xmlns="http://www.w3.org/2000/svg">
<g clip-path="url(#clip0_420_246)">
<path d="M230.644 73.2041C231.466 77.2581 228.83 81.1981 224.748 82.0191C220.694 82.8131 216.754 80.1771 215.932 76.1231C215.932 76.0951 212.077 59.4561 195.863 62.0061C183.135 64.0471 173.923 64.3591 165.986 62.1761C157.51 59.8801 151.104 55.0331 144.443 46.8691C141.835 43.6661 142.317 38.9601 145.52 36.3521C148.723 33.7441 153.429 34.2261 156.037 37.4291C160.686 43.1271 164.825 46.3871 169.898 47.7761C175.511 49.3061 182.853 48.9391 193.511 47.2651C224.096 42.4191 230.616 73.1191 230.644 73.2041ZM115.586 331.638C119.271 329.795 123.75 331.269 125.621 334.983C127.463 338.668 125.961 343.148 122.276 344.989L104.985 353.635L114.764 423.027C115.048 425.125 114.452 427.222 113.12 428.839L75.2491 474.618C72.6131 477.793 67.8791 478.246 64.7041 475.61C61.5291 472.974 61.0761 468.24 63.7121 465.065L99.4851 421.836L89.4221 350.375C88.9971 347.286 90.5561 344.139 93.5041 342.693L115.586 331.638ZM140.474 180.24C142.628 183.783 141.494 188.375 137.979 190.53C134.464 192.685 129.844 191.579 127.689 188.035L104.02 149.116C102.348 146.338 102.659 142.908 104.587 140.527L114.366 127.006L82.4211 94.1511C79.5581 91.1751 79.6151 86.4411 82.5911 83.5781C85.5391 80.6871 90.2731 80.7441 93.1641 83.7201L129.448 121.08C131.943 123.603 132.311 127.656 130.156 130.633L119.385 145.572L140.474 180.24ZM117.428 220.265C121.453 221.2 123.976 225.225 123.041 229.25C122.077 233.275 118.052 235.798 114.027 234.863L94.4111 230.271L62.5501 279.509C61.3311 281.38 59.3471 282.627 57.1071 282.882L8.29513 288.353C4.18513 288.807 0.500128 285.831 0.0461284 281.72C-0.407872 277.61 2.54013 273.925 6.65013 273.471L51.9481 268.397L84.4611 218.139C86.0481 215.276 89.3651 213.717 92.7101 214.482L117.428 220.265ZM389.639 344.989C385.954 343.147 384.452 338.668 386.294 334.983C388.137 331.27 392.644 329.795 396.329 331.638L418.411 342.693C421.274 344.111 422.918 347.2 422.493 350.375L412.43 421.836L448.203 465.065C450.839 468.24 450.386 472.974 447.211 475.61C444.008 478.246 439.302 477.793 436.666 474.618L398.795 428.839C397.491 427.279 396.839 425.21 397.151 423.027L406.93 353.635L389.639 344.989ZM384.197 188.035C382.071 191.578 377.45 192.684 373.936 190.53C370.393 188.376 369.287 183.783 371.441 180.24L392.531 145.572L381.76 130.633C379.662 127.713 379.945 123.66 382.468 121.08L418.751 83.7201C421.643 80.7431 426.376 80.6871 429.324 83.5781C432.301 86.4411 432.357 91.1751 429.466 94.1511L397.548 127.005L407.328 140.526C409.256 142.907 409.567 146.337 407.895 149.115L384.197 188.035ZM397.888 234.863C393.834 235.799 389.809 233.276 388.874 229.25C387.939 225.225 390.461 221.2 394.487 220.265L419.205 214.482C422.521 213.717 425.867 215.276 427.454 218.139L459.967 268.397L505.321 273.471C509.431 273.925 512.407 277.638 511.954 281.748C511.501 285.858 507.787 288.806 503.677 288.352L454.893 282.881C452.653 282.626 450.613 281.435 449.365 279.508L417.504 230.27L397.888 234.863ZM295.983 76.1231C295.161 80.1771 291.221 82.8131 287.167 82.0191C283.085 81.1971 280.449 77.2571 281.271 73.2041C281.271 73.1191 287.819 42.4201 318.376 47.2671C329.034 48.9401 336.404 49.3081 342.017 47.7781C347.091 46.3891 351.23 43.1291 355.879 37.4311C358.487 34.2281 363.192 33.7461 366.395 36.3541C369.599 38.9621 370.081 43.6671 367.473 46.8711C360.783 55.0351 354.405 59.8821 345.93 62.1781C337.993 64.3611 328.781 64.0491 316.053 62.0081C299.838 59.4561 295.983 76.0951 295.983 76.1231Z" fill="#463D43"/>
<path fill-rule="evenodd" clip-rule="evenodd" d="M255.958 446.158C174.688 445.279 109.066 370.246 109.066 277.837C109.066 239.343 120.292 203.796 139.567 175.563C153.939 154.473 166.581 155.777 184.468 155.777H255.958H327.448C345.335 155.777 357.977 154.473 372.349 175.563C391.624 203.796 402.85 239.343 402.85 277.837C402.849 370.246 337.198 445.279 255.958 446.158Z" fill="#10AC73"/>
<path fill-rule="evenodd" clip-rule="evenodd" d="M255.958 446.158C251.734 446.101 247.567 445.846 243.457 445.421C318.831 437.456 377.848 365.456 377.848 277.836C377.848 239.342 366.623 203.795 347.348 175.562C335.329 157.902 324.5 155.946 310.809 155.776H327.448C345.335 155.776 357.977 154.472 372.349 175.562C391.624 203.795 402.85 239.342 402.85 277.836C402.849 370.246 337.198 445.279 255.958 446.158Z" fill="#0D9764"/>
<path fill-rule="evenodd" clip-rule="evenodd" d="M255.959 446.158C253.436 446.13 250.941 446.016 248.447 445.846V159.604H255.959H263.442V445.847C260.976 446.016 258.482 446.129 255.959 446.158Z" fill="#0D9764"/>
<path fill-rule="evenodd" clip-rule="evenodd" d="M305.706 87.4899C335.64 101.04 355.737 127.034 355.737 159.604H156.178C156.178 127.034 176.276 101.04 206.21 87.4899C210.916 74.9899 231.41 65.6069 255.958 65.6069C280.506 65.6069 300.972 74.9889 305.706 87.4899Z" fill="#463D43"/>
<path fill-rule="evenodd" clip-rule="evenodd" d="M280.704 87.49C309.447 100.501 329.119 124.993 330.65 155.777C330.707 157.024 330.735 158.328 330.735 159.604H355.736C355.736 127.034 335.638 101.04 305.705 87.49C304.118 83.266 300.716 79.412 295.982 76.123C292.211 73.544 287.591 71.304 282.347 69.603C274.637 67.08 265.622 65.606 255.956 65.606C251.647 65.606 247.452 65.918 243.455 66.456C262.222 69.008 276.82 77.2 280.704 87.49Z" fill="#40363D"/>
</g>
<defs>
<clipPath id="clip0_420_246">
<rect width="512" height="512" fill="white"/>
</clipPath>
</defs>
</svg>
