<?xml version="1.0" encoding="UTF-8"?>
<svg width="367px" height="386px" viewBox="0 0 367 386" version="1.1" xmlns="http://www.w3.org/2000/svg" xmlns:xlink="http://www.w3.org/1999/xlink">
    <title>5053197</title>
    <g id="Page-1" stroke="none" stroke-width="1" fill="none" fill-rule="evenodd">
        <g id="5053197" transform="translate(0.682000, 0.969000)">
            <path d="M178.848,33.096 C160.349,52.245 148.821,78.16 148.333,106.767 L148.333,369.965 L194.796,369.965 L194.796,106.767 L194.83,106.767 C195.301,91.019 201.647,76.722 211.749,65.996 L178.848,33.096 Z M178.864,34.526 L210.36,66.023 C200.362,76.967 194.535,91.01 193.867,105.767 L193.796,105.767 L193.796,368.965 L149.333,368.965 L149.333,106.784 C149.794,79.752 160.272,54.132 178.864,34.526 L178.864,34.526 Z" id="Fill-4" fill="#E4E4DE"></path>
            <path d="M255.188,0 C226.581,0.487 200.667,12.019 181.518,30.519 L214.422,63.419 C225.143,53.322 239.44,46.971 255.188,46.501 L255.188,0 Z M254.188,1.022 L254.188,45.538 C239.433,46.206 225.392,52.033 214.447,62.031 L182.948,30.535 C202.309,12.174 227.533,1.725 254.188,1.022 L254.188,1.022 Z" id="Fill-5" fill="#E4E4DE"></path>
            <path d="M257.076,50.156 C256.444,50.156 255.813,50.166 255.188,50.19 C240.483,50.653 227.13,56.578 217.094,66 C216.172,66.855 215.279,67.746 214.422,68.666 C205,78.705 199.074,92.063 198.611,106.767 L198.577,106.767 L198.577,369.965 L315.544,369.965 L315.544,108.655 L315.574,108.655 C315.574,108.023 315.565,107.393 315.544,106.767 C315.077,92.063 309.151,78.709 299.73,68.669 C298.873,67.746 297.984,66.857 297.06,66 C287.025,56.578 273.671,50.653 258.963,50.19 C258.338,50.166 257.708,50.156 257.076,50.156 Z M257.076,51.156 C257.722,51.156 258.345,51.167 258.931,51.189 C272.872,51.628 286.17,57.147 296.38,66.732 C297.279,67.568 298.16,68.449 299.002,69.354 C308.583,79.564 314.102,92.862 314.545,106.801 C314.554,107.085 314.561,107.37 314.566,107.655 L314.544,107.655 L314.544,368.965 L199.577,368.965 L199.577,107.767 L199.581,107.767 L199.611,106.798 C200.05,92.859 205.568,79.56 215.153,69.348 C216.002,68.438 216.884,67.558 217.778,66.729 C227.985,57.147 241.282,51.628 255.226,51.189 C255.806,51.167 256.43,51.156 257.076,51.156 L257.076,51.156 Z" id="Fill-6" fill="#E4E4DE"></path>
            <path d="M258.963,0 L258.963,46.501 C274.715,46.971 289.009,53.322 299.733,63.419 L332.638,30.519 C313.489,12.016 287.574,0.484 258.963,0 Z M259.963,1.021 C286.621,1.722 311.846,12.171 331.208,30.535 L299.707,62.031 C288.76,52.033 274.717,46.206 259.963,45.538 L259.963,1.021 L259.963,1.021 Z" id="Fill-7" fill="#E4E4DE"></path>
            <path d="M335.306,33.096 L302.403,65.996 C312.505,76.722 318.851,91.019 319.324,106.767 L319.324,369.965 L365.822,369.965 L365.822,106.767 C365.335,78.16 353.805,52.245 335.306,33.096 Z M335.291,34.526 C353.883,54.132 364.361,79.752 364.822,106.767 L364.822,368.965 L320.324,368.965 L320.324,106.737 C319.87,91.625 314.008,77.206 303.791,66.023 L335.291,34.526 L335.291,34.526 Z" id="Fill-8" fill="#E4E4DE"></path>
            <polygon id="Fill-9" fill="#E4E4DE" points="94.879 384.063 95.879 384.063 95.879 19.849 94.879 19.849"></polygon>
            <polygon id="Fill-10" fill="#FFFFFE" points="56.843 224.419 84.532 224.419 84.532 211.736 56.843 211.736"></polygon>
            <path d="M56.343,224.919 L85.032,224.919 L85.032,211.236 L56.343,211.236 L56.343,224.919 Z M57.343,223.919 L84.032,223.919 L84.032,212.236 L57.343,212.236 L57.343,223.919 Z" id="Fill-11" fill="#E4E4DE"></path>
            <path d="M85.191,213.518 L56.184,213.518 C55.507,213.518 54.958,212.969 54.958,212.291 L54.958,207.071 C54.958,206.395 55.507,205.845 56.184,205.845 L85.191,205.845 C85.868,205.845 86.417,206.395 86.417,207.071 L86.417,212.291 C86.417,212.969 85.868,213.518 85.191,213.518" id="Fill-12" fill="#E4E4DE"></path>
            <path d="M85.191,213.518 L73.753,213.518 C73.076,213.518 72.527,212.969 72.527,212.291 L72.527,207.071 C72.527,206.395 73.076,205.845 73.753,205.845 L85.191,205.845 C85.868,205.845 86.417,206.395 86.417,207.071 L86.417,212.291 C86.417,212.969 85.868,213.518 85.191,213.518" id="Fill-13" fill="#CFD0CA"></path>
            <polygon id="Fill-14" fill="#E4E4DE" points="56.343 220.353 85.032 220.353 85.032 215.804 56.343 215.804"></polygon>
            <polygon id="Fill-15" fill="#CFD0CA" points="74.189 224.919 85.032 224.919 85.032 211.236 74.189 211.236"></polygon>
            <path d="M100.415,226.538 C88.424,226.538 81.084,217.326 81.084,212.311 C81.084,211.537 81.279,210.909 81.646,210.495 C82.031,210.064 82.614,209.844 83.382,209.844 C86.081,209.844 88.465,210.599 90.99,211.398 C93.815,212.294 96.738,213.22 100.415,213.22 C105.014,213.22 108.511,212.632 111.597,212.113 C114.121,211.69 116.505,211.289 119.073,211.289 C120.614,211.289 120.844,212.67 120.844,213.493 C120.844,215.405 119.577,218.679 116.01,221.612 C113.276,223.859 108.352,226.538 100.415,226.538" id="Fill-16" fill="#FFFFFE"></path>
            <path d="M83.382,209.344 C76.094,209.344 83.489,227.038 100.415,227.038 C120.018,227.038 124.825,210.789 119.073,210.789 C113.321,210.789 108.756,212.72 100.415,212.72 C93.513,212.72 89.186,209.344 83.382,209.344 Z M83.382,210.344 C86.004,210.344 88.352,211.088 90.839,211.875 C93.701,212.782 96.66,213.72 100.415,213.72 C105.055,213.72 108.575,213.128 111.68,212.607 C114.291,212.168 116.547,211.789 119.073,211.789 C119.387,211.789 120.344,211.789 120.344,213.492 C120.344,215.439 118.905,218.584 115.692,221.226 C113.022,223.421 108.204,226.038 100.415,226.038 C87.991,226.038 81.584,216.416 81.584,212.311 C81.584,211.857 81.66,211.232 82.02,210.827 C82.305,210.506 82.763,210.344 83.382,210.344 L83.382,210.344 Z" id="Fill-17" fill="#E4E4DE"></path>
            <path d="M120.745,211.263 C120.299,210.251 118.076,210.334 114.717,210.825 C98.204,213.242 93.738,211.323 87.517,209.784 C84.018,208.918 81.689,208.832 81.133,210.071 C80.584,211.295 85.326,217.04 101.918,217.133 C118.83,217.227 121.344,212.62 120.745,211.263" id="Fill-18" fill="#CFD0CA"></path>
            <path d="M120.745,211.263 L121.203,211.061 C121.003,210.607 120.585,210.327 120.119,210.179 C119.647,210.027 119.089,209.973 118.432,209.972 C117.403,209.973 116.131,210.113 114.644,210.33 C109.006,211.156 104.787,211.472 101.435,211.472 C95,211.47 91.761,210.319 87.637,209.299 C85.951,208.882 84.523,208.638 83.381,208.636 C82.752,208.637 82.205,208.709 81.737,208.897 C81.273,209.08 80.879,209.41 80.677,209.867 C80.615,210.005 80.591,210.149 80.591,210.289 C80.594,210.619 80.711,210.938 80.907,211.281 C81.602,212.462 83.379,213.992 86.723,215.286 C90.067,216.573 94.974,217.594 101.915,217.633 C102.087,217.634 102.256,217.634 102.424,217.634 C110.001,217.633 114.658,216.684 117.471,215.487 C118.877,214.887 119.824,214.224 120.434,213.566 C121.042,212.908 121.321,212.251 121.324,211.666 C121.324,211.451 121.284,211.246 121.203,211.061 L120.745,211.263 L120.288,211.464 C120.306,211.506 120.324,211.573 120.324,211.666 C120.326,211.917 120.188,212.361 119.701,212.886 C118.975,213.673 117.473,214.624 114.737,215.362 C112.003,216.102 108.043,216.635 102.424,216.634 C102.258,216.634 102.09,216.634 101.921,216.633 C94.096,216.59 88.959,215.278 85.806,213.813 C84.23,213.081 83.15,212.31 82.48,211.651 C82.145,211.323 81.913,211.022 81.772,210.779 C81.63,210.538 81.588,210.351 81.591,210.289 L81.593,210.267 L81.551,210.259 L81.589,210.276 L81.593,210.267 L81.551,210.259 L81.589,210.276 C81.679,210.084 81.82,209.946 82.111,209.824 C82.4,209.706 82.832,209.635 83.381,209.636 C84.38,209.635 85.753,209.862 87.397,210.27 C91.454,211.273 94.878,212.475 101.435,212.472 C104.85,212.472 109.116,212.15 114.789,211.32 C116.254,211.105 117.494,210.972 118.432,210.972 C119.029,210.971 119.502,211.029 119.811,211.13 C120.126,211.236 120.237,211.352 120.288,211.465 L120.745,211.263" id="Fill-19" fill="#E4E4DE"></path>
            <polygon id="Fill-20" fill="#FFFFFE" points="88.8 286.266 100.657 286.266 100.657 275.723 88.8 275.723"></polygon>
            <path d="M88.3,286.766 L101.157,286.766 L101.157,275.223 L88.3,275.223 L88.3,286.766 Z M89.3,285.766 L100.157,285.766 L100.157,276.223 L89.3,276.223 L89.3,285.766 Z" id="Fill-21" fill="#E4E4DE"></path>
            <path d="M102.029,279.674 L87.429,279.674 C84.553,279.674 82.222,282.005 82.222,284.88 L82.222,310.644 C82.222,311.429 82.859,312.065 83.644,312.065 L105.813,312.065 C106.598,312.065 107.235,311.429 107.235,310.644 L107.235,284.88 C107.235,282.005 104.904,279.674 102.029,279.674" id="Fill-22" fill="#E4E4DE"></path>
            <path d="M83.644,311.565 C83.136,311.565 82.722,311.152 82.722,310.644 L82.722,284.88 C82.722,282.285 84.834,280.174 87.429,280.174 L93.64,280.174 C96.235,280.174 98.347,282.285 98.347,284.88 L98.347,310.644 C98.347,311.152 97.933,311.565 97.425,311.565 L83.644,311.565" id="Fill-23" fill="#FFFFFE"></path>
            <path d="M93.64,279.674 L87.429,279.674 C84.553,279.674 82.222,282.005 82.222,284.88 L82.222,310.644 C82.222,311.429 82.859,312.065 83.644,312.065 L97.425,312.065 C98.21,312.065 98.847,311.429 98.847,310.644 L98.847,284.88 C98.847,282.005 96.516,279.674 93.64,279.674 Z M93.64,280.674 C95.96,280.674 97.847,282.561 97.847,284.88 L97.847,310.644 C97.847,310.876 97.657,311.065 97.425,311.065 L83.644,311.065 C83.412,311.065 83.222,310.876 83.222,310.644 L83.222,284.88 C83.222,282.561 85.109,280.674 87.429,280.674 L93.64,280.674 L93.64,280.674 Z" id="Fill-24" fill="#E4E4DE"></path>
            <path d="M100.931,277.37 L88.527,277.37 C87.91,277.37 87.41,276.87 87.41,276.253 L87.41,269.612 C87.41,268.995 87.91,268.495 88.527,268.495 L100.931,268.495 C101.547,268.495 102.047,268.995 102.047,269.612 L102.047,276.253 C102.047,276.87 101.547,277.37 100.931,277.37" id="Fill-25" fill="#E4E4DE"></path>
            <polygon id="Fill-26" fill="#E4E4DE" points="86.765 278.417 102.693 278.417 102.693 275.625 86.765 275.625"></polygon>
            <polygon id="Fill-27" fill="#CFD0CA" points="89.531 275.625 90.285 275.625 90.285 270.636 89.531 270.636"></polygon>
            <polygon id="Fill-28" fill="#CFD0CA" points="92.745 275.625 93.499 275.625 93.499 270.636 92.745 270.636"></polygon>
            <polygon id="Fill-29" fill="#CFD0CA" points="95.959 275.625 96.713 275.625 96.713 270.636 95.959 270.636"></polygon>
            <polygon id="Fill-30" fill="#CFD0CA" points="99.174 275.625 99.928 275.625 99.928 270.636 99.174 270.636"></polygon>
            <polygon id="Fill-31" fill="#CFD0CA" points="87.41 275.625 102.047 275.625 102.047 274.636 87.41 274.636"></polygon>
            <polygon id="Fill-32" fill="#E4E4DE" points="82.221 304.468 107.242 304.468 107.242 287.983 82.221 287.983"></polygon>
            <polygon id="Fill-33" fill="#CFD0CA" points="97.639 304.468 107.242 304.468 107.242 287.983 97.639 287.983"></polygon>
            <polygon id="Fill-34" fill="#CFD0CA" points="43.259 233.689 127.517 233.689 127.517 224.772 43.259 224.772"></polygon>
            <polygon id="Fill-35" fill="#E4E4DE" points="25.577 233.689 109.836 233.689 109.836 224.772 25.577 224.772"></polygon>
            <polygon id="Fill-36" fill="#CFD0CA" points="114.085 384.063 120.851 384.063 120.851 233.689 114.085 233.689"></polygon>
            <polygon id="Fill-37" fill="#E4E4DE" points="95.379 384.063 102.145 384.063 102.145 233.689 95.379 233.689"></polygon>
            <polygon id="Fill-38" fill="#CFD0CA" points="51.997 384.063 58.763 384.063 58.763 233.689 51.997 233.689"></polygon>
            <polygon id="Fill-39" fill="#E4E4DE" points="33.291 384.063 40.057 384.063 40.057 233.689 33.291 233.689"></polygon>
            <polygon id="Fill-40" fill="#CFD0CA" points="43.259 320.168 127.517 320.168 127.517 311.251 43.259 311.251"></polygon>
            <polygon id="Fill-41" fill="#E4E4DE" points="25.577 320.168 109.836 320.168 109.836 311.251 25.577 311.251"></polygon>
            <path d="M48.284,194.341 L41.362,194.341 C38.487,194.341 36.157,196.672 36.157,199.547 L36.157,223.35 C36.157,224.135 36.793,224.772 37.578,224.772 L52.067,224.772 C52.853,224.772 53.49,224.135 53.49,223.35 L53.49,199.547 C53.49,196.672 51.159,194.341 48.284,194.341" id="Fill-42" fill="#10AC73"></path>
            <path d="M53.494,223.279 C53.494,224.103 52.826,224.771 52.003,224.771 L37.646,224.771 C36.823,224.771 36.155,224.103 36.155,223.279 L36.155,201.149 C36.155,197.907 38.417,195.193 41.457,194.515 C41.947,194.401 42.45,194.339 42.965,194.339 L46.684,194.339 C50.445,194.339 53.494,197.388 53.494,201.149 L53.494,223.279 Z" id="Fill-43" fill="#099B66"></path>
            <polygon id="Fill-44" fill="#099B66" points="40.368 201.003 49.278 201.003 49.278 190.159 40.368 190.159"></polygon>
            <path d="M49.04,193.012 L40.605,193.012 C39.989,193.012 39.489,192.512 39.489,191.895 L39.489,187.66 C39.489,187.043 39.989,186.543 40.605,186.543 L49.04,186.543 C49.657,186.543 50.157,187.043 50.157,187.66 L50.157,191.895 C50.157,192.512 49.657,193.012 49.04,193.012" id="Fill-45" fill="#263C40"></path>
            <polygon id="Fill-46" fill="#263C40" points="39.018 193.774 50.628 193.774 50.628 191.74 39.018 191.74"></polygon>
            <polygon id="Fill-47" fill="#132529" points="41.034 191.74 41.583 191.74 41.583 188.104 41.034 188.104"></polygon>
            <polygon id="Fill-48" fill="#132529" points="43.377 191.74 43.926 191.74 43.926 188.104 43.377 188.104"></polygon>
            <polygon id="Fill-49" fill="#132529" points="45.72 191.74 46.269 191.74 46.269 188.104 45.72 188.104"></polygon>
            <polygon id="Fill-50" fill="#132529" points="48.063 191.74 48.612 191.74 48.612 188.104 48.063 188.104"></polygon>
            <polygon id="Fill-51" fill="#132529" points="39.489 191.74 50.157 191.74 50.157 191.019 39.489 191.019"></polygon>
            <path d="M46.747,201.149 L46.747,220.574 C46.747,222.892 44.868,224.771 42.551,224.771 L37.646,224.771 C36.823,224.771 36.155,224.103 36.155,223.279 L36.155,201.149 C36.155,198.615 37.537,196.404 39.592,195.235 C40.74,194.582 42.17,194.585 43.316,195.241 C45.366,196.416 46.747,198.625 46.747,201.149" id="Fill-52" fill="#10AC73"></path>
            <polygon id="Fill-53" fill="#E4E4DE" points="36.155 217.634 53.494 217.634 53.494 202.148 36.155 202.148"></polygon>
            <polygon id="Fill-54" fill="#CFD0CA" points="46.839 217.634 53.494 217.634 53.494 202.148 46.839 202.148"></polygon>
            <polygon id="Fill-55" fill="#FFFFFE" points="58.903 290.669 68.522 290.669 68.522 282.135 58.903 282.135"></polygon>
            <path d="M58.403,291.169 L69.022,291.169 L69.022,281.635 L58.403,281.635 L58.403,291.169 Z M59.403,290.169 L68.022,290.169 L68.022,282.635 L59.403,282.635 L59.403,290.169 Z" id="Fill-56" fill="#E4E4DE"></path>
            <path d="M68.836,285.312 L58.589,285.312 C55.714,285.312 53.383,287.643 53.383,290.518 L53.383,310.644 C53.383,311.429 54.02,312.065 54.805,312.065 L72.62,312.065 C73.405,312.065 74.042,311.429 74.042,310.644 L74.042,290.518 C74.042,287.643 71.711,285.312 68.836,285.312" id="Fill-57" fill="#E4E4DE"></path>
            <path d="M54.805,311.565 C54.297,311.565 53.883,311.152 53.883,310.644 L53.883,290.518 C53.883,287.923 55.994,285.812 58.589,285.812 L61.908,285.812 C64.502,285.812 66.614,287.923 66.614,290.518 L66.614,310.644 C66.614,311.152 66.2,311.565 65.692,311.565 L54.805,311.565" id="Fill-58" fill="#FFFFFE"></path>
            <path d="M61.908,285.312 L58.589,285.312 C55.714,285.312 53.383,287.643 53.383,290.518 L53.383,310.644 C53.383,311.429 54.02,312.065 54.805,312.065 L65.692,312.065 C66.477,312.065 67.114,311.429 67.114,310.644 L67.114,290.518 C67.114,287.643 64.783,285.312 61.908,285.312 Z M61.908,286.312 C64.227,286.312 66.114,288.198 66.114,290.518 L66.114,310.644 C66.114,310.876 65.924,311.065 65.692,311.065 L54.805,311.065 C54.573,311.065 54.383,310.876 54.383,310.644 L54.383,290.518 C54.383,288.198 56.27,286.312 58.589,286.312 L61.908,286.312 L61.908,286.312 Z" id="Fill-59" fill="#E4E4DE"></path>
            <path d="M68.64,283.409 L58.785,283.409 C58.168,283.409 57.668,282.909 57.668,282.292 L57.668,277.195 C57.668,276.579 58.168,276.079 58.785,276.079 L68.64,276.079 C69.257,276.079 69.757,276.579 69.757,277.195 L69.757,282.292 C69.757,282.909 69.257,283.409 68.64,283.409" id="Fill-60" fill="#E4E4DE"></path>
            <polygon id="Fill-61" fill="#E4E4DE" points="57.135 284.273 70.291 284.273 70.291 281.967 57.135 281.967"></polygon>
            <polygon id="Fill-62" fill="#CFD0CA" points="59.419 281.967 60.042 281.967 60.042 277.847 59.419 277.847"></polygon>
            <polygon id="Fill-63" fill="#CFD0CA" points="62.074 281.967 62.697 281.967 62.697 277.847 62.074 277.847"></polygon>
            <polygon id="Fill-64" fill="#CFD0CA" points="64.729 281.967 65.351 281.967 65.351 277.847 64.729 277.847"></polygon>
            <polygon id="Fill-65" fill="#CFD0CA" points="67.384 281.967 68.007 281.967 68.007 277.847 67.384 277.847"></polygon>
            <polygon id="Fill-66" fill="#CFD0CA" points="57.668 281.967 69.757 281.967 69.757 281.15 57.668 281.15"></polygon>
            <polygon id="Fill-67" fill="#E4E4DE" points="53.381 305.79 74.048 305.79 74.048 292.175 53.381 292.175"></polygon>
            <polygon id="Fill-68" fill="#CFD0CA" points="66.116 305.79 74.048 305.79 74.048 292.175 66.116 292.175"></polygon>
            <polygon id="Fill-69" fill="#FFFFFE" points="72.735 296.113 79.587 296.113 79.587 290.063 72.735 290.063"></polygon>
            <path d="M72.235,296.613 L80.087,296.613 L80.087,289.563 L72.235,289.563 L72.235,296.613 Z M73.235,295.613 L79.087,295.613 L79.087,290.563 L73.235,290.563 L73.235,295.613 Z" id="Fill-70" fill="#E4E4DE"></path>
            <path d="M78.594,292.282 L73.729,292.282 C70.853,292.282 68.523,294.612 68.523,297.487 L68.523,310.644 C68.523,311.429 69.16,312.065 69.945,312.065 L82.377,312.065 C83.163,312.065 83.8,311.429 83.8,310.644 L83.8,297.487 C83.8,294.612 81.469,292.282 78.594,292.282" id="Fill-71" fill="#E4E4DE"></path>
            <path d="M69.797,311.565 C69.37,311.565 69.023,311.218 69.023,310.791 L69.023,296.948 C69.023,294.651 70.891,292.782 73.189,292.782 L74.01,292.782 C76.307,292.782 78.176,294.651 78.176,296.948 L78.176,310.791 C78.176,311.218 77.829,311.565 77.402,311.565 L69.797,311.565" id="Fill-72" fill="#FFFFFE"></path>
            <path d="M74.01,292.282 L73.189,292.282 C70.612,292.282 68.523,294.371 68.523,296.948 L68.523,310.791 C68.523,311.495 69.094,312.065 69.797,312.065 L77.402,312.065 C78.106,312.065 78.676,311.495 78.676,310.791 L78.676,296.948 C78.676,294.371 76.587,292.282 74.01,292.282 Z M74.01,293.282 C76.032,293.282 77.676,294.927 77.676,296.948 L77.676,310.791 C77.676,310.942 77.553,311.065 77.402,311.065 L69.797,311.065 C69.646,311.065 69.523,310.942 69.523,310.791 L69.523,296.948 C69.523,294.927 71.167,293.282 73.189,293.282 L74.01,293.282 L74.01,293.282 Z" id="Fill-73" fill="#E4E4DE"></path>
            <path d="M79.514,290.874 L72.808,290.874 C72.192,290.874 71.692,290.375 71.692,289.758 L71.692,286.57 C71.692,285.954 72.192,285.454 72.808,285.454 L79.514,285.454 C80.131,285.454 80.631,285.954 80.631,286.57 L80.631,289.758 C80.631,290.375 80.131,290.874 79.514,290.874" id="Fill-74" fill="#E4E4DE"></path>
            <polygon id="Fill-75" fill="#E4E4DE" points="71.297 291.514 81.026 291.514 81.026 289.809 71.297 289.809"></polygon>
            <polygon id="Fill-76" fill="#CFD0CA" points="72.986 289.809 73.447 289.809 73.447 286.762 72.986 286.762"></polygon>
            <polygon id="Fill-77" fill="#CFD0CA" points="74.95 289.809 75.41 289.809 75.41 286.762 74.95 286.762"></polygon>
            <polygon id="Fill-78" fill="#CFD0CA" points="76.913 289.809 77.373 289.809 77.373 286.762 76.913 286.762"></polygon>
            <polygon id="Fill-79" fill="#CFD0CA" points="78.876 289.809 79.337 289.809 79.337 286.762 78.876 286.762"></polygon>
            <polygon id="Fill-80" fill="#CFD0CA" points="71.692 289.809 80.631 289.809 80.631 289.204 71.692 289.204"></polygon>
            <polygon id="Fill-81" fill="#E4E4DE" points="68.522 307.425 83.804 307.425 83.804 297.357 68.522 297.357"></polygon>
            <polygon id="Fill-82" fill="#CFD0CA" points="77.938 307.425 83.804 307.425 83.804 297.357 77.938 297.357"></polygon>
            <polyline id="Fill-83" fill="#263C40" points="216.596 278.82 220.721 278.82 234.732 384.063 230.607 384.063 216.596 278.82"></polyline>
            <polyline id="Fill-84" fill="#263C40" points="194.349 278.82 198.474 278.82 212.486 384.063 208.361 384.063 194.349 278.82"></polyline>
            <polyline id="Fill-85" fill="#263C40" points="132.276 278.82 128.151 278.82 114.139 384.063 118.264 384.063 132.276 278.82"></polyline>
            <polyline id="Fill-86" fill="#263C40" points="154.523 278.82 150.398 278.82 136.386 384.063 140.511 384.063 154.523 278.82"></polyline>
            <path d="M226.505,258.653 L127.613,258.653 C124.782,258.653 122.486,260.948 122.486,263.779 L122.486,275.206 C122.486,278.038 124.782,280.333 127.613,280.333 L226.505,280.333 C229.336,280.333 231.632,278.038 231.632,275.206 L231.632,263.779 C231.632,260.948 229.336,258.653 226.505,258.653" id="Fill-87" fill="#132529"></path>
            <polyline id="Fill-88" fill="#AF5F58" points="119.14 376.005 120.033 338.908 99.849 337.19 99.44 378.781 119.14 376.005"></polyline>
            <path d="M67.568,384.063 L123.559,384.063 C123.698,379.979 123.29,373.64 123.209,370.517 C123.175,369.101 123.859,363.842 122.699,362.925 C120.33,361.067 115.699,367.754 111.763,366.175 C107.955,364.643 107.514,359.094 104.101,356.818 C101.304,354.949 97.391,355.948 94.756,358.037 C92.121,360.139 90.368,363.099 88.232,365.699 C84.784,369.925 80.245,373.245 75.183,375.288 C73.408,375.996 71.55,376.565 69.948,377.61 C68.996,378.225 68.137,379.061 67.568,384.063" id="Fill-89" fill="#132529"></path>
            <polyline id="Fill-90" fill="#AF5F58" points="187.603 374.141 184.958 337.128 164.703 337.34 168.258 378.781 187.603 374.141"></polyline>
            <path d="M136.386,384.063 L192.377,384.063 C192.091,379.979 191.022,373.64 190.617,370.517 C190.434,369.101 190.571,363.842 189.315,362.925 C186.753,361.067 182.818,367.754 178.718,366.175 C174.751,364.643 173.732,359.094 170.082,356.818 C167.089,354.949 163.281,355.948 160.864,358.037 C158.447,360.139 157.003,363.099 155.137,365.699 C152.13,369.925 147.936,373.245 143.088,375.288 C141.385,375.996 139.587,376.565 138.094,377.61 C137.206,378.225 136.434,379.061 136.386,384.063" id="Fill-91" fill="#132529"></path>
            <polyline id="Fill-92" fill="#E4E4DE" points="293.544 377.113 294.313 345.119 276.906 343.637 276.554 379.508 293.544 377.113"></polyline>
            <path d="M249.065,384.063 L297.355,384.063 C297.474,380.54 297.124,375.073 297.054,372.38 C297.023,371.158 297.614,366.623 296.613,365.832 C294.57,364.231 290.576,369.997 287.181,368.636 C283.897,367.314 283.517,362.528 280.574,360.565 C278.161,358.954 274.787,359.815 272.513,361.617 C270.241,363.429 268.729,365.982 266.887,368.225 C263.914,371.869 259.999,374.732 255.634,376.495 C254.101,377.106 252.5,377.597 251.118,378.497 C250.297,379.028 249.556,379.749 249.065,384.063" id="Fill-93" fill="#132529"></path>
            <polyline id="Fill-94" fill="#E4E4DE" points="333.334 370.292 328.759 346.277 311.447 348.626 317.274 376.333 333.334 370.292"></polyline>
            <path d="M291.891,384.063 L340.18,384.063 C339.436,380.54 337.743,375.073 337.012,372.38 C336.681,371.158 336.159,366.623 334.964,365.832 C332.528,364.231 329.949,369.997 326.221,368.636 C322.612,367.314 321.056,362.528 317.632,360.565 C314.823,358.954 311.66,359.815 309.83,361.617 C308.002,363.429 307.117,365.982 305.825,368.225 C303.746,371.869 300.534,374.732 296.601,376.495 C295.22,377.106 293.738,377.597 292.578,378.497 C291.888,379.028 291.323,379.749 291.891,384.063" id="Fill-95" fill="#132529"></path>
            <path d="M282.642,185.18 C280.071,211.75 267.413,225.719 271.949,236.899 C276.485,248.08 298.601,246.58 298.601,246.58 L298.551,186.811 L282.642,185.18" id="Fill-96" fill="#E4E4DE"></path>
            <path d="M271.406,284.694 C270.126,309.981 272.357,351.475 272.357,351.475 L296.476,351.475 L300.883,284.991 L271.406,284.694" id="Fill-97" fill="#263C40"></path>
            <path d="M280.237,228.035 C272.83,249.478 271.406,284.694 271.406,284.694 L300.883,284.991 L310.599,228.035 L280.237,228.035" id="Fill-98" fill="#263C40"></path>
            <path d="M287.227,273.505 C286.944,273.67 286.879,274.053 287.024,274.329 C285.184,281.98 284.247,288.378 284.341,292.464 C284.697,308.002 290.092,322.68 296.915,338.19 L300.883,292.464 L303.006,230.827 C295.749,245.244 290.311,260.967 287.227,273.505" id="Fill-99" fill="#132529"></path>
            <path d="M291.028,285.946 C288.515,302.87 307.474,353.498 307.474,353.498 L331.778,351.475 L319.754,282.72 L291.028,285.946" id="Fill-100" fill="#263C40"></path>
            <path d="M337.155,236.88 C331.357,259.505 315.267,295.115 315.267,295.115 L291.028,285.946 L301.813,222.19 L337.155,236.88" id="Fill-101" fill="#263C40"></path>
            <path d="M304.18,188.621 C283.048,214.148 280.237,228.035 280.237,228.035 L337.155,236.88 C337.155,236.88 350.455,206.61 304.18,188.621" id="Fill-102" fill="#263C40"></path>
            <path d="M275.722,133.927 C264.903,139.445 224.108,181.214 224.108,181.214 L237.549,186.433 C242.189,188.235 247.398,187.823 251.698,185.314 L283.048,167.025 L275.722,133.927" id="Fill-103" fill="#E4E4DE"></path>
            <polyline id="Fill-104" fill="#E4E4DE" points="215.542 155.492 245.056 167.082 235.054 183.359 210.411 172.125 215.542 155.492"></polyline>
            <path d="M227.44,170.432 C231.362,166.539 228.293,161.742 228.293,161.742 L225.449,165.597 L227.44,170.432" id="Fill-105" fill="#263C40"></path>
            <path d="M296.476,127.75 C296.476,127.75 307.705,131.779 319.205,137.591 C326.722,141.392 331.654,148.887 332.137,157.298 C332.875,170.176 333.202,190.777 329.839,210.24 L287.311,211.171 L289.563,180.588 C289.563,180.588 276.74,178.716 274.515,174.705 C270.66,167.753 278.145,150.487 275.722,133.927 L296.476,127.75" id="Fill-106" fill="#E4E4DE"></path>
            <path d="M308.74,137.461 C307.976,142.585 306.919,147.66 306.305,152.808 C306.074,154.75 306.117,157.208 304.69,158.737 C304.114,159.355 303.086,159.521 302.285,159.607 C301.348,159.707 300.374,159.733 299.433,159.686 C298.639,159.645 298.356,160.803 299.042,161.169 C301.057,162.244 303.686,163.892 303.683,166.466 C303.682,167.732 303.076,168.935 302.619,170.086 C302.122,171.338 301.715,172.611 301.873,173.976 C301.996,175.044 303.648,175.098 303.584,173.976 C303.415,171.03 305.959,168.618 305.395,165.589 C305.052,163.737 303.776,162.422 302.301,161.357 C303.401,161.286 304.474,161.057 305.553,160.523 C306.621,159.994 307.342,159.336 307.789,158.21 C308.224,157.11 308.333,155.935 308.459,154.768 C309.077,149.049 309.258,143.315 309.704,137.586 C309.746,137.039 308.823,136.909 308.74,137.461" id="Fill-107" fill="#CFD0CA"></path>
            <path d="M279.635,160.36 L279.635,160.357 C280.25,160.558 280.721,159.619 280.102,159.209 C279.847,159.039 279.591,158.927 279.335,158.857 C278.431,158.241 278.343,156.988 278.151,155.914 C277.868,154.323 277.941,152.627 277.903,151.015 C277.825,147.761 277.627,144.504 277.59,141.251 C277.586,140.894 277.051,140.896 277.038,141.251 C276.905,144.956 276.613,148.664 276.416,152.367 C276.331,153.955 276.045,155.905 276.741,157.401 C277.007,157.971 277.488,158.454 277.899,158.93 C276.573,159.413 275.546,160.967 275.535,162.4 C275.524,163.82 276.162,165.163 276.879,166.352 C277.674,167.671 278.673,169.003 278.757,170.598 C278.804,171.472 280.042,171.462 280.107,170.598 C280.286,168.211 278.704,166.377 277.758,164.331 C277.332,163.412 276.992,162.232 277.561,161.301 C278.003,160.579 278.787,160.051 279.635,160.36" id="Fill-108" fill="#CFD0CA"></path>
            <path d="M283.048,131.747 C281.472,138.613 280.041,163.38 281.445,169.46 C284.528,182.804 289.276,189.215 289.276,189.215 L287.997,211.155 L306.151,210.759 C306.151,210.759 298.28,179.743 296.915,171.472 C295.536,163.119 303.919,130.651 303.919,130.651 L300.2,129.16 L283.048,131.747" id="Fill-109" fill="#9BAFA8"></path>
            <path d="M294.871,204.663 C294.863,202.831 294.755,201.002 294.576,199.177 C294.213,195.472 293.726,191.821 292.875,188.185 C292.04,184.625 290.917,181.169 289.717,177.711 C288.511,174.235 287.355,170.788 287.333,167.091 C287.306,162.702 288.561,158.354 289.966,154.233 C290.106,153.818 289.479,153.523 289.314,153.945 C287.926,157.501 286.35,161.056 285.771,164.851 C285.196,168.619 285.844,172.224 287.167,175.794 C288.474,179.323 289.805,182.799 290.764,186.438 C291.727,190.093 292.43,193.829 292.94,197.565 C293.219,199.598 293.334,201.663 293.436,203.709 C293.544,205.834 293.461,207.998 293.728,210.11 C293.786,210.563 294.445,210.588 294.539,210.144 C294.913,208.358 294.878,206.482 294.871,204.663" id="Fill-110" fill="#73767B"></path>
            <polyline id="Fill-111" fill="#263C40" points="288.488 197.03 303.01 201.401 304.18 214.73 287.085 216.395 288.488 197.03"></polyline>
            <path d="M307.937,211.498 C306.519,211.127 304.931,211.337 303.479,211.392 C302.028,211.447 300.579,211.51 299.129,211.598 C297.679,211.686 296.229,211.773 294.779,211.861 C293.272,211.952 291.783,212.182 290.279,212.29 C289.554,212.343 289.534,213.395 290.259,213.437 C289.33,216.557 288.922,219.784 288.297,222.975 C287.662,226.216 287.143,229.468 286.743,232.745 C286.696,233.127 287.353,233.216 287.416,232.832 C287.953,229.571 288.597,226.319 289.373,223.107 C290.154,219.875 291.413,216.805 292.319,213.609 L292.323,213.552 C293.141,213.606 293.959,213.658 294.779,213.672 C295.184,213.679 295.591,213.686 295.996,213.692 L295.991,213.716 C295.987,216.342 295.986,218.957 296.164,221.578 C296.252,222.886 296.371,224.192 296.508,225.495 C296.598,226.361 296.614,227.593 297.659,227.859 C298.71,228.126 299.26,227.031 299.619,226.251 C300.078,225.252 300.4,224.213 300.535,223.121 C300.671,222.017 300.607,220.987 300.399,219.897 C300.224,218.982 299.99,217.729 299.275,217.08 C299.053,216.878 298.718,217.023 298.699,217.318 C298.647,218.15 299.02,219.012 299.087,219.847 C299.149,220.638 299.095,221.462 299.009,222.251 C298.913,223.118 298.706,223.995 298.422,224.819 C298.324,225.103 298.196,225.373 298.069,225.644 C297.512,221.712 297.171,217.681 297.047,213.716 L297.045,213.709 L299.129,213.743 C300.58,213.768 302.028,213.766 303.479,213.758 C304.93,213.749 306.54,213.898 307.937,213.467 C308.888,213.173 308.953,211.764 307.937,211.498" id="Fill-112" fill="#132529"></path>
            <path d="M297.008,206.088 C296.703,205.637 296.321,205.281 295.876,204.971 C295.418,204.65 294.832,204.437 294.277,204.557 C293.887,204.642 293.656,205.159 293.879,205.502 C294.012,205.704 294.149,205.846 294.342,205.993 C294.196,205.882 294.287,205.953 294.318,205.979 L294.547,206.149 L294.626,206.203 L294.641,206.217 L294.624,206.197 L294.866,206.386 L294.925,206.43 L294.973,206.47 C295.091,206.575 295.209,206.677 295.317,206.793 L295.459,206.958 L295.473,206.974 L295.499,207.016 L295.61,207.198 L295.669,207.311 L295.723,207.465 L295.768,207.654 L295.771,207.711 L295.769,207.814 L295.729,207.999 L295.704,208.082 L295.695,208.107 L295.689,208.113 L295.635,208.216 L295.537,208.367 L295.486,208.423 L295.346,208.556 L295.325,208.565 L295.11,208.68 L295.108,208.682 L295.091,208.684 L295.029,208.699 L294.978,208.706 L294.939,208.707 L294.796,208.674 L294.738,208.653 L294.729,208.648 L294.624,208.587 L294.507,208.502 L294.49,208.488 L294.403,208.406 L294.333,208.336 L294.31,208.301 L294.234,208.169 L294.163,208.018 C294.096,207.836 294.061,207.646 294.05,207.453 C294.02,206.986 294.104,206.551 294.207,206.099 C294.297,205.702 293.724,205.556 293.6,205.94 C293.311,206.827 292.97,207.769 293.233,208.707 C293.355,209.141 293.541,209.55 293.89,209.846 C294.263,210.16 294.728,210.357 295.223,210.329 C296.186,210.275 296.96,209.578 297.313,208.709 C297.666,207.841 297.531,206.863 297.008,206.088" id="Fill-113" fill="#132529"></path>
            <line x1="294.641" y1="206.217" x2="294.641" y2="206.217" id="Fill-114" fill="#132529"></line>
            <path d="M300.883,206.436 C307.165,234.209 316.128,246.063 324.401,246.063 C336.891,246.063 349.104,232.815 349.104,232.815 L327.938,191.598 L296.915,171.472 L300.883,206.436" id="Fill-115" fill="#E4E4DE"></path>
            <path d="M145.316,226.312 L119.896,245.19 L133.757,246.599 C133.757,246.599 160.503,247.698 164.325,230.228 L145.316,226.312" id="Fill-116" fill="#AF5F58"></path>
            <path d="M195.399,271.209 C195.145,271.236 194.904,271.236 194.65,271.236 L159.327,271.236 L176.213,216.018 L207.655,225.223 L218.479,228.395 L220.794,238.107 C224.781,254.766 212.378,270.768 195.399,271.209" id="Fill-117" fill="#10AC73"></path>
            <path d="M163.074,238.295 L156.866,271.236 L131.19,271.236 C131.19,271.236 133.745,303.107 130.427,338.683 C130.066,342.604 129.624,346.577 129.103,350.565 L91.96,347.045 L91.024,338.683 L97.513,338.683 L100.323,257.963 C100.698,246.992 109.702,238.295 120.673,238.295 L163.074,238.295" id="Fill-118" fill="#10AC73"></path>
            <path d="M201.607,238.295 L196.897,263.315 L195.399,271.209 L195.399,271.236 L179.129,271.236 C179.129,271.236 187.117,307.829 188.763,338.683 C188.977,342.777 189.084,346.777 189.044,350.565 L151.915,347.045 L150.965,338.683 L157.454,338.683 L143.205,258.887 C141.291,248.156 149.547,238.295 160.451,238.295 L201.607,238.295" id="Fill-119" fill="#10AC73"></path>
            <polyline id="Fill-120" fill="#9C7352" points="219.045 232.435 170.061 233.802 170.089 234.802 219.073 233.434"></polyline>
            <polyline id="Fill-121" fill="#9C7352" points="211.254 240.555 199.484 238.957 198.183 233.417 197.209 233.646 198.668 239.855 211.119 241.546 211.254 240.555"></polyline>
            <polyline id="Fill-122" fill="#132529" points="220.525 207.457 221.544 242.702 169.402 238.295 171.373 222.971 220.525 207.457"></polyline>
            <polyline id="Fill-123" fill="#AF5F58" points="146.002 196.06 143.753 230.228 164.325 230.228 169.983 196.06 146.002 196.06"></polyline>
            <path d="M213.449,153.493 C220.472,163.512 221.716,179.987 220.078,230.228 L171.216,230.228 C171.216,230.228 169.147,200.498 168.592,198.626 C168.036,196.753 156.097,173.344 153.288,162.576 L175.648,147.482 L213.449,153.493" id="Fill-124" fill="#132529"></path>
            <path d="M232.582,225.08 C230.36,246.568 178.976,240.179 178.976,240.179 L163.077,239.016 L217.081,214.329 L232.582,225.08" id="Fill-125" fill="#AF5F58"></path>
            <path d="M218.016,157.063 C216.557,147.5 208.046,146.15 203.418,155.192 L218.016,157.063" id="Fill-126" fill="#132529"></path>
            <path d="M211.047,157.418 C209.791,148.501 202.465,147.243 198.482,155.674 L211.047,157.418" id="Fill-127" fill="#132529"></path>
            <path d="M191.321,130.755 L189.843,146.897 L189.537,151.425 C189.199,156.424 185.029,160.296 180.018,160.264197 C174.969,160.232 170.832,156.247 170.61,151.203 L169.428,124.364 L191.321,130.755" id="Fill-128" fill="#AF5F58"></path>
            <path d="M190.633,138.262 L189.588,150.669 C177.048,151.178 174.075,142.314 173.29,136.388 C177.551,135.481 181.833,135.607 185.505,136.358 C187.297,136.732 189.038,137.375 190.633,138.262" id="Fill-129" fill="#132529"></path>
            <path d="M203.618,122.757 C203.618,122.757 206.902,111.833 203.123,108.269 C197.182,102.668 176.007,101.693 171.295,104.634 C168.133,106.609 164.372,114.18 166.497,131.36 L203.618,122.757" id="Fill-130" fill="#132529"></path>
            <path d="M203.013,116.481 C202.148,114.281 200.474,112.559 198.368,111.292 C193.004,108.049 184.812,107.76 179.912,110.169 C172.749,113.689 170.026,121.262 170.925,128.599 C171.323,131.974 172.493,135.306 174.353,138.16 C177.608,143.167 183.256,147.097 189.189,146.426 C193.471,145.951 197.267,143.115 199.647,139.514 C203.672,133.431 205.759,123.471 203.013,116.481" id="Fill-131" fill="#AF5F58"></path>
            <path d="M201.588,120.599 C202.309,120.564 203.144,120.674 203.638,121.174 C204.102,121.643 204.084,122.373 203.618,122.757 C203.166,123.13 202.44,123.163 201.775,123.103 C200.982,123.031 198.57,122.797 198.761,121.755 C198.931,120.827 200.691,120.643 201.588,120.599" id="Fill-132" fill="#132529"></path>
            <path d="M183.024,119.074 C183.344,118.921 183.688,118.888 184.022,118.89 C184.941,118.895 185.839,119.158 186.62,119.649 C186.935,119.847 187.267,120.193 187.164,120.621 C187.065,121.035 186.634,121.206 186.275,121.273 C185.27,121.461 184.252,121.439 183.285,121.209 C183.013,121.144 182.737,121.058 182.523,120.863 C181.883,120.283 182.35,119.396 183.024,119.074" id="Fill-133" fill="#132529"></path>
            <path d="M198.474,129.127 C198.395,130.036 197.734,130.749 196.998,130.719 C196.261,130.689 195.727,129.927 195.806,129.018 C195.886,128.108 196.547,127.396 197.283,127.426 C198.02,127.456 198.554,128.217 198.474,129.127" id="Fill-134" fill="#132529"></path>
            <path d="M187.579,127.406 C187.5,128.315 186.839,129.028 186.102,128.998 C185.365,128.968 184.832,128.207 184.911,127.297 C184.99,126.388 185.651,125.675 186.388,125.705 C187.124,125.735 187.658,126.497 187.579,127.406" id="Fill-135" fill="#132529"></path>
            <path d="M194.949,132.081 C194.666,129.785 194.264,127.521 193.841,125.25 C193.8,125.029 193.464,125.048 193.487,125.28 C193.681,127.152 193.892,129.005 194.172,130.869 C194.306,131.771 194.564,132.772 194.351,133.678 C194.174,134.436 193.53,134.869 192.862,135.153 C192.688,135.227 192.653,135.492 192.845,135.572 C193.506,135.852 194.261,135.414 194.606,134.841 C195.103,134.02 195.062,132.997 194.949,132.081" id="Fill-136" fill="#132529"></path>
            <path d="M202.43,133.863 C201.678,135.94 200.736,137.867 199.647,139.514 C197.267,143.115 193.471,145.951 189.189,146.426 C183.696,147.045 178.453,143.725 175.124,139.264 L175.917,130.104 C190.516,130.374 196.213,130.592 202.422,133.852 L202.43,133.863" id="Fill-137" fill="#E4E4DE"></path>
            <polyline id="Fill-138" fill="#E4E4DE" points="171.998 135.372 175.387 139.396 176.152 138.752 172.763 134.728"></polyline>
            <path d="M198.653,136.505 C195.821,135.364 192.817,134.743 189.783,134.472 C188.271,134.337 186.757,134.265 185.239,134.264 C184.502,134.263 183.761,134.261 183.026,134.317 C182.218,134.378 181.417,134.538 180.611,134.592 C180.447,134.603 180.462,134.853 180.626,134.847 C181.393,134.819 182.192,134.92 182.96,134.961 C183.664,134.997 184.37,135.008 185.076,135.044 C186.619,135.122 188.163,135.256 189.697,135.442 C192.669,135.805 195.625,136.294 198.588,136.7 C198.698,136.715 198.768,136.552 198.653,136.505" id="Fill-139" fill="#CFD0CA"></path>
            <path d="M179.033,138.967 C181.844,140.162 184.835,140.839 187.865,141.167 C189.373,141.33 190.886,141.431 192.403,141.461 C193.139,141.475 193.881,141.492 194.617,141.45 C195.426,141.403 196.229,141.259 197.036,141.22 C197.201,141.212 197.19,140.962 197.026,140.965 C196.259,140.978 195.463,140.862 194.695,140.807 C193.991,140.757 193.286,140.732 192.581,140.684 C191.04,140.577 189.498,140.414 187.968,140.198 C185.004,139.78 182.057,139.235 179.102,138.773 C178.993,138.756 178.919,138.919 179.033,138.967" id="Fill-140" fill="#CFD0CA"></path>
            <path d="M169.513,124.381 C170.958,124.795 172.448,126.007 173.72,127.627 C174.995,129.244 176.055,131.255 176.706,133.204 L177.654,132.886 C176.964,130.827 175.86,128.73 174.506,127.009 C173.149,125.291 171.546,123.935 169.792,123.42 L169.513,124.381" id="Fill-141" fill="#E4E4DE"></path>
            <path d="M170.157,123.252 C168.497,122.055 166.12,121.639 164.405,122.754 C162.977,123.683 162.305,125.436 162.07,127.124 C161.766,129.3 162.062,131.596 163.14,133.512 C164.218,135.427 166.124,136.915 168.294,137.258 C170.465,137.602 172.846,136.687 174.043,134.844 C176.34,131.308 173.139,125.401 170.157,123.252" id="Fill-142" fill="#AF5F58"></path>
            <path d="M170.493,131.115 C170.097,130.044 169.428,129.046 168.534,128.328 C168.123,127.998 167.695,127.702 167.221,127.472 C166.747,127.241 166.228,127.106 165.735,126.922 C165.414,126.803 165.15,127.31 165.467,127.475 C165.676,127.584 165.865,127.696 166.041,127.854 C166.217,128.013 166.376,128.191 166.541,128.361 C166.709,128.536 166.874,128.716 167.035,128.897 C167.113,128.985 167.19,129.074 167.261,129.167 C167.331,129.258 167.449,129.373 167.487,129.482 L167.439,129.41 L167.507,129.515 L167.684,129.779 L167.796,129.937 L167.805,129.948 C167.958,130.129 168.07,130.386 168.177,130.595 C168.402,131.035 168.613,131.48 168.772,131.947 C168.847,132.166 169.122,132.368 169.329,132.438 C169.548,132.51 169.843,132.503 170.049,132.392 C170.54,132.126 170.679,131.618 170.493,131.115" id="Fill-143" fill="#132529"></path>
            <path d="M213.449,153.493 C228.572,156.345 233.406,178.113 232.582,225.08 L213.449,216.739 C203.529,179.13 200.426,151.037 213.449,153.493" id="Fill-144" fill="#AF5F58"></path>
            <path d="M169.428,120.137 L170.925,128.599 L174.449,119.872 C174.449,119.872 181.601,116.978 181.796,108.269 L174.075,108.578 L169.428,120.137" id="Fill-145" fill="#132529"></path>
            <path d="M153.288,162.576 C146.252,167.166 143.753,204.152 143.753,204.152 C158.498,209.4 170.76,204.152 170.76,204.152 L173.416,184.53 L153.288,162.576" id="Fill-146" fill="#132529"></path>
            <path d="M132.115,262.765 C134.982,262.734 144.828,262.438 144.846,262.402 L144.875,262.307 L144.946,262.102 L144.98,261.95 C144.973,261.804 144.986,261.811 144.988,261.864 L144.998,261.68 L144.993,261.516 L144.987,261.448 L144.977,261.397 L144.939,261.236 C144.913,261.142 144.862,261.045 144.843,260.949 L144.85,260.982 C144.85,260.982 144.89,261.166 144.85,260.982 C144.826,260.935 134.977,260.518 132.115,260.438 C130.598,260.396 129.082,260.38 127.565,260.361 C126.002,260.343 124.422,260.247 122.865,260.403 C122.658,260.425 122.493,260.49 122.347,260.573 C120.17,258.841 117.948,257.163 115.705,255.52 C115.154,255.115 114.422,256.062 114.969,256.487 C117.499,258.456 119.89,260.585 122.201,262.808 L122.356,262.964 C122.748,267.795 123.361,272.607 123.754,277.44 C124.168,282.544 124.465,287.657 124.622,292.775 C124.936,303.012 124.714,313.266 123.954,323.479 C123.527,329.226 122.931,334.96 122.16,340.671 C122.139,340.827 122.141,340.983 122.162,341.134 C121.4,341.046 120.638,340.958 119.876,340.872 C117.685,340.628 115.496,340.357 113.303,340.14 C108.935,339.705 104.537,339.531 100.156,339.311 C99.597,339.282 99.467,340.19 100.029,340.292 C104.342,341.072 108.658,341.88 113.002,342.469 C115.188,342.765 117.387,342.992 119.577,343.252 C120.623,343.376 121.668,343.498 122.715,343.617 C123.795,343.741 125.065,344.083 126.133,343.84 C127.042,343.633 127.271,342.229 126.399,341.805 C125.821,341.523 125.146,341.428 124.472,341.366 L124.506,341.286 C125.889,331.033 126.754,320.715 127.058,310.372 C127.362,300.039 127.138,289.68 126.325,279.373 C125.959,274.736 125.544,270.066 124.826,265.458 C125.061,265.702 125.297,265.945 125.534,266.188 C126.086,266.755 126.653,267.309 127.206,267.875 C127.789,268.472 128.356,269.17 129.063,269.618 C130.019,270.224 131.169,269.012 130.612,268.068 C130.209,267.386 129.553,266.831 128.988,266.279 C128.391,265.695 127.791,265.11 127.168,264.553 C126.479,263.936 125.77,263.34 125.055,262.751 C125.842,262.762 126.629,262.757 127.413,262.761 C128.981,262.77 130.547,262.781 132.115,262.765" id="Fill-147" fill="#099B66"></path>
            <path d="M213.471,243.644 C212.285,247.302 209.888,250.4 206.966,252.88 C206.677,251.237 206.048,249.601 205.403,248.133 C204.508,246.093 203.264,244.26 201.83,242.561 C201.415,242.069 200.555,242.716 200.923,243.251 C202.1,244.965 203.001,246.873 203.642,248.85 C203.96,249.829 204.206,250.832 204.383,251.846 C204.541,252.751 204.618,253.669 204.753,254.576 C203.975,255.111 203.184,255.622 202.372,256.076 C196.555,259.324 189.841,260.356 183.259,260.518 C181.245,260.567 179.23,260.538 177.217,260.469 C175.114,260.397 172.996,260.171 170.893,260.192 C170.754,260.193 170.629,260.214 170.515,260.247 C169.091,258.988 167.631,257.769 166.159,256.566 C165.671,256.168 164.968,256.838 165.453,257.273 C167.088,258.738 168.547,260.367 169.937,262.062 L169.935,262.11 C171.433,272.249 173.002,282.382 174.292,292.549 C175.579,302.694 176.609,312.879 177.443,323.071 C177.914,328.842 178.307,334.619 178.623,340.4 C178.629,340.507 178.669,340.587 178.695,340.679 C176.942,340.534 175.188,340.411 173.443,340.307 C169.421,340.068 165.382,340.094 161.366,339.81 C160.745,339.766 160.772,340.69 161.366,340.761 C165.357,341.234 169.312,342.02 173.301,342.532 C177.244,343.039 181.248,343.51 185.219,343.728 C186.536,343.8 186.863,341.58 185.518,341.398 C184.014,341.196 182.496,341.033 180.976,340.886 C181.029,340.745 181.058,340.586 181.048,340.4 C180.477,330.088 179.702,319.773 178.593,309.504 C177.488,299.286 176.137,289.089 174.554,278.935 C173.805,274.138 172.917,269.37 171.949,264.615 C172.219,264.967 172.49,265.318 172.764,265.667 C173.555,266.672 174.255,267.757 175.075,268.737 C175.937,269.769 177.648,268.439 176.949,267.31 C176.279,266.228 175.401,265.235 174.582,264.265 C174.13,263.728 173.654,263.217 173.166,262.717 C174.326,262.781 175.489,262.822 176.641,262.864 C178.559,262.935 180.478,262.972 182.398,262.942 C186.259,262.883 190.132,262.555 193.898,261.673 C198.53,260.588 203.073,258.565 206.77,255.52 L206.809,255.485 C207.902,254.581 208.93,253.599 209.851,252.511 C211.996,249.98 213.498,247.081 214.28,243.857 C214.408,243.33 213.637,243.133 213.471,243.644" id="Fill-148" fill="#099B66"></path>
            <path d="M169.457,199.989 C169.374,199.333 169.281,198.678 169.163,198.026 C168.911,196.636 168.623,195.251 168.316,193.871 C167.723,191.202 167.042,188.554 166.26,185.934 C165.476,183.309 164.603,180.717 163.572,178.178 C162.522,175.592 161.312,173.095 160.117,170.576 C159.898,170.114 159.25,170.509 159.438,170.961 C160.71,174.014 161.797,177.176 162.799,180.358 C161.904,180.091 161.047,179.773 160.213,179.306 C159.144,178.707 158.187,177.95 157.349,177.057 C156.875,176.551 156.161,177.293 156.596,177.81 C157.451,178.825 158.465,179.7 159.587,180.409 C160.685,181.103 161.964,181.709 163.244,181.967 L163.303,181.967 C163.764,183.481 164.211,184.996 164.641,186.504 C165.379,189.087 166.042,191.692 166.618,194.316 C166.9,195.606 167.161,196.899 167.402,198.197 C167.522,198.845 167.653,199.49 167.787,200.136 C167.93,200.817 168.014,201.578 168.426,202.155 C168.715,202.56 169.304,202.514 169.466,202.02 C169.681,201.363 169.542,200.661 169.457,199.989" id="Fill-149" fill="#263C40"></path>
            <path d="M204.167,213.535 C203.5,212.773 202.161,212.436 201.24,212.058 C200.223,211.64 199.198,211.247 198.158,210.891 C196.057,210.17 193.917,209.55 191.75,209.061 C187.467,208.095 183.055,207.576 178.667,207.456 C178.185,207.443 178.195,208.165 178.667,208.198 C183.034,208.502 187.312,209.286 191.516,210.499 C193.568,211.091 195.593,211.77 197.579,212.555 C198.582,212.951 199.577,213.372 200.562,213.812 C201.493,214.228 202.53,214.958 203.558,215.004 C204.352,215.039 204.629,214.063 204.167,213.535" id="Fill-150" fill="#263C40"></path>
            <path d="M199.864,152.25 C199.258,153.113 198.786,153.912 198.429,154.914 C198.08,155.89 197.892,156.933 197.829,157.966 C197.708,159.926 197.93,162.099 198.658,163.934 C198.806,164.309 199.328,164.179 199.264,163.774 C198.968,161.869 198.88,160.055 199.271,158.152 C199.456,157.258 199.692,156.382 199.969,155.512 C200.248,154.631 200.544,153.691 200.923,152.851 C201.246,152.135 200.316,151.607 199.864,152.25" id="Fill-151" fill="#263C40"></path>
            <path d="M206.446,152.307 C206.732,151.935 206.149,151.576 205.854,151.909 C203.512,154.552 201.635,157.611 200.842,161.083 C200.455,162.781 200.233,164.494 200.339,166.237 C200.435,167.849 200.564,169.912 201.435,171.316 C201.602,171.584 202.037,171.556 202.068,171.198 C202.135,170.435 201.993,169.665 201.944,168.9 C201.891,168.065 201.881,167.231 201.925,166.395 C202.012,164.726 202.157,163.036 202.519,161.402 C203.239,158.16 204.407,154.96 206.446,152.307" id="Fill-152" fill="#263C40"></path>
            <path d="M216.596,154.416 C219.061,153.276 220.875,154.357 220.875,154.357 C224.075,153.838 224.639,154.401 224.957,155.969 C227.15,155.806 229.287,155.508 228.919,159.38 C228.551,163.252 224.802,168.459 222.682,168.438063 C220.563,168.417 223.465,163.062 223.465,163.062 C223.465,163.062 221.461,166.767 219.75,165.727 C218.038,164.687 220.526,159.654 220.526,159.654 C218.509,160.265 217.959,159.572 218.306,155.456 L216.596,154.416" id="Fill-153" fill="#263C40"></path>
            <path d="M291.636,93.216 C302.268,93.216 307.25,84.772 304.159,79.94 C301.067,75.108 288.68,74.78 286.192,79.94 C283.705,85.1 285.93,93.216 291.636,93.216" id="Fill-154" fill="#132529"></path>
            <path d="M276.74,122.182 L283.061,137.107 L289.835,153.127 C289.835,153.127 296.364,140.857 300.787,131.797 L295.648,109.429 L276.74,122.182" id="Fill-155" fill="#AF5F58"></path>
            <path d="M279.681,129.123 L283.785,138.935 C295.498,133.434 295.737,128.695 295.63,122.058 C291.295,122.491 287.255,123.915 283.986,125.749 C282.392,126.65 280.93,127.792 279.681,129.123" id="Fill-156" fill="#132529"></path>
            <path d="M297.78,93.156 C298.102,93.158 298.419,93.148 298.72,93.12 C300.241,92.982 301.721,92.522 303.017,91.703 C305.627,90.057 307.166,87.118 307.011,84.028 C306.927,82.338 306.36,80.858 305.488,79.425 C305.347,79.194 305.003,79.393 305.124,79.632 C306.582,82.497 305.666,86.426 303.489,88.67 C302.412,89.781 301.042,90.476 299.54,90.812 C298.79,90.979 298.039,91.015 297.271,90.973 C296.487,90.929 295.729,90.677 294.951,90.641 C294.53,90.622 294.184,90.978 294.084,91.375 C289.453,89.659 284.05,89.261 279.269,89.66 C272.418,90.233 266.183,97.536 266.475,106.661 L302.669,118.577 C307.846,104.908 304.305,97.157 297.78,93.156" id="Fill-157" fill="#132529"></path>
            <path d="M268.919,123.707 C270.964,127.508 274.489,130.674 278.711,131.535 C284.559,132.738 290.539,129.333 294.232,124.639 C296.343,121.966 297.808,118.752 298.509,115.427 C300.065,108.201 298.036,100.413 291.221,96.262 C286.557,93.42 278.373,92.969 272.738,95.716 C270.526,96.788 268.704,98.352 267.643,100.465 C264.28,107.178 265.459,117.286 268.919,123.707" id="Fill-158" fill="#AF5F58"></path>
            <path d="M268.692,104.695 C267.976,104.595 267.136,104.629 266.597,105.082 C266.094,105.507 266.046,106.235 266.475,106.661 C266.892,107.073 267.611,107.171 268.28,107.171 C269.076,107.171 271.499,107.156 271.403,106.101 C271.317,105.16 269.581,104.819 268.692,104.695" id="Fill-159" fill="#132529"></path>
            <path d="M286.014,104.85 C285.71,104.669 285.37,104.604 285.037,104.576 C284.121,104.499 283.204,104.679 282.381,105.099 C282.05,105.267 281.687,105.582 281.752,106.017 C281.813,106.439 282.227,106.648 282.578,106.747 C283.562,107.024 284.578,107.094 285.561,106.952 C285.839,106.912 286.121,106.852 286.352,106.677 C287.042,106.157 286.656,105.231 286.014,104.85" id="Fill-160" fill="#132529"></path>
            <path d="M270.256989,112.968 C270.254,113.88 270.847,114.65 271.585,114.687 C272.321,114.723 272.921,114.013 272.92402,113.101 C272.928,112.188 272.333,111.418 271.597,111.381 C270.86,111.345 270.261,112.055 270.256989,112.968" id="Fill-161" fill="#132529"></path>
            <path d="M281.182989,112.761 C281.18,113.674 281.774,114.443 282.511,114.48 C283.247,114.517 283.847,113.807 283.850011,112.894 C283.853,111.981 283.26,111.211 282.522,111.175 C281.786,111.138 281.186,111.848 281.182989,112.761" id="Fill-162" fill="#132529"></path>
            <path d="M274.267,116.728 C274.757,114.467 275.361,112.249 275.988,110.025 C276.049,109.809 276.382,109.858 276.338,110.086 C275.975,111.934 275.597,113.76 275.152,115.591 C274.936,116.477 274.59,117.45 274.72,118.373 C274.828,119.144 275.43,119.633 276.07,119.976 C276.236,120.065 276.247,120.332 276.05,120.395 C275.366,120.613 274.653,120.109 274.36,119.508 C273.939,118.645 274.072,117.63 274.267,116.728" id="Fill-163" fill="#132529"></path>
            <path d="M266.657,117.829 C267.219,119.965 267.982,121.969 268.919,123.707 C270.964,127.508 274.489,130.674 278.711,131.535 C284.126,132.647 289.647,129.813 293.365,125.67 L293.401,116.475 C278.837,115.428 273.143,115.132 266.666,117.818 L266.657,117.829" id="Fill-164" fill="#E4E4DE"></path>
            <polyline id="Fill-165" fill="#E4E4DE" points="296.125 121.366 292.387 125.067 293.091 125.778 296.828 122.077"></polyline>
            <path d="M270.18,120.8 C273.103,119.919 276.151,119.571 279.198,119.576 C280.716,119.578 282.23,119.642 283.742,119.778 C284.475,119.844 285.214,119.908 285.941,120.03 C286.74,120.165 287.523,120.396 288.321,120.523 C288.484,120.548 288.446,120.795 288.283,120.774 C287.522,120.678 286.718,120.707 285.949,120.677 C285.244,120.65 284.54,120.598 283.834,120.57 C282.29,120.508 280.74,120.502 279.196,120.55 C276.204,120.642 273.215,120.863 270.227,121 C270.117,121.005 270.061,120.836 270.18,120.8" id="Fill-166" fill="#CFD0CA"></path>
            <path d="M289.498,125.022 C286.592,125.958 283.552,126.363 280.505,126.416 C278.987,126.443 277.472,126.407 275.958,126.299 C275.223,126.247 274.483,126.197 273.755,126.088 C272.953,125.969 272.165,125.753 271.365,125.642 C271.202,125.619 271.235,125.371 271.398,125.389 C272.161,125.471 272.965,125.427 273.734,125.442 C274.439,125.455 275.144,125.495 275.85,125.509 C277.395,125.542 278.945,125.519 280.489,125.442 C283.478,125.293 286.463,125.016 289.447,124.823 C289.557,124.815 289.616,124.983 289.498,125.022" id="Fill-167" fill="#CFD0CA"></path>
            <path d="M300.105,110.372 C298.311,110.725 296.591,111.932 295.086,113.52 C293.581,115.112 292.293,117.101 291.42,119.09 L292.336,119.491 C293.16,117.61 294.397,115.702 295.812,114.207 C297.226,112.708 298.819,111.636 300.295,111.353 L300.105,110.372" id="Fill-168" fill="#E4E4DE"></path>
            <path d="M300.112,112.14 C302.229,103.869 299.834,94.478 286.141,93.216 C286.141,93.216 287.311,111.149 300.112,112.14" id="Fill-169" fill="#132529"></path>
            <path d="M299.756,110.17 C301.516,109.129 303.921,108.929 305.529,110.194 C306.868,111.248 307.379,113.054 307.461,114.756 C307.566,116.951 307.064,119.211 305.818,121.022 C304.572,122.832 302.54,124.143 300.347,124.289 C298.154,124.435 295.866,123.309 294.84,121.365 C292.871,117.636 296.592,112.043 299.756,110.17" id="Fill-170" fill="#AF5F58"></path>
            <path d="M290.845,91.697 C288.549,101.52 283.684,105.099 278.074,104.833 C279.62,103.044 280.983,100.793 282.213,97.884 C281.873,98.34 281.527,98.784 281.178,99.215 C277.43,103.83 271.568,106.314 265.645,105.803 L265.551,105.794 C261.958,93.216 278.169,81.349 290.845,91.697" id="Fill-171" fill="#132529"></path>
            <polyline id="Fill-172" fill="#AF5F58" points="271.636 177.213 292.936 178.746 295.225 194.818 266.004 186.206 271.636 177.213"></polyline>
            <path d="M270.711,170.722 C268.344,167.934 266.292,169.059 262.243,161.091 C261.106,158.853 257.653,161.197 260.402,166.559 C262.137,169.94 262.239,171.32 262.239,171.32 L270.711,170.722" id="Fill-173" fill="#132529"></path>
            <path d="M270.711,170.722 C272.276,172.461 273.104,176.427 273.697,176.817 C274.289,177.208 279.021,177.327 279.021,177.327 C279.021,177.327 280.946,185.247 273.375,189.228 C266.999,185.763 252.286,183.834 250.727,183.462 C249.17,183.09 242.322,175.652 242.322,175.652 C242.322,175.652 239.416,164.218 239.687,163.318 C239.959,162.417 243.282,163.271 243.991,167.14 L245.929,172.165 L254.314,174.914 L262.475,170.475 L270.711,170.722" id="Fill-174" fill="#132529"></path>
            <path d="M260.439,166.917 C261.245,166.764 261.69,165.544 261.433,164.193 C261.177,162.843 260.315,161.872 259.509,162.025 C258.703,162.178 258.258,163.398 258.514,164.749 C258.771,166.099 259.633,167.07 260.439,166.917" id="Fill-175" fill="#E4E4DE"></path>
            <path d="M259.707,166.915 C259.013,166.915 258.297,166 258.075,164.832 C257.955,164.201 257.988,163.581 258.168,163.087 C258.341,162.616 258.625,162.32 258.971,162.254 L259.116,162.241 C259.81,162.241 260.527,163.156 260.748,164.324 C260.992,165.605 260.591,166.761 259.853,166.901 L259.708,166.915 L259.707,166.915" id="Fill-176" fill="#FFFFFE"></path>
            <path d="M259.116,162.116 L258.947,162.132 C258.14,162.285 257.695,163.504 257.952,164.856 C258.19,166.112 258.953,167.04 259.707,167.04 L259.877,167.024 C260.682,166.871 261.128,165.651 260.872,164.3 C260.633,163.044 259.87,162.116 259.116,162.116 Z M259.116,162.366 C259.752,162.366 260.415,163.236 260.626,164.347 C260.852,165.54 260.488,166.653 259.83,166.778 L259.707,166.79 C259.072,166.79 258.409,165.919 258.197,164.809 C258.082,164.199 258.113,163.603 258.286,163.13 C258.442,162.702 258.693,162.435 258.993,162.377 L259.116,162.366 L259.116,162.366 Z" id="Fill-177" fill="#E4E4DE"></path>
            <path d="M255.045,164.228 L258.951,163.486 L258.953,163.494 C259.304,163.495 259.657,163.926 259.768,164.51 C259.88,165.094 259.709,165.625 259.383,165.755 L259.385,165.763 L255.478,166.505 L255.045,164.228" id="Fill-178" fill="#263C40"></path>
            <path d="M255.979,169.056 C257.196,168.824 257.868,166.984 257.48,164.945 C257.093,162.906 255.792,161.44 254.575,161.672 C253.358,161.903 252.686,163.744 253.074,165.783 C253.462,167.822 254.762,169.287 255.979,169.056" id="Fill-179" fill="#E4E4DE"></path>
            <path d="M255.211,169.052 C254.117,169.052 253.03,167.678 252.684,165.856 C252.501,164.893 252.552,163.945 252.828,163.19 C253.095,162.456 253.542,161.996 254.086,161.893 L254.318,161.871 C255.412,161.871 256.499,163.244 256.845,165.066 C257.219,167.034 256.591,168.813 255.443,169.03 L255.211,169.052" id="Fill-180" fill="#FFFFFE"></path>
            <path d="M254.318,161.745 L254.062,161.77 C252.845,162 252.174,163.841 252.561,165.88 C252.922,167.777 254.072,169.177 255.211,169.177 L255.467,169.153 C256.683,168.922 257.355,167.082 256.968,165.042 C256.607,163.146 255.457,161.745 254.318,161.745 M254.318,161.995 C255.337,161.995 256.392,163.355 256.723,165.089 C257.077,166.957 256.481,168.706 255.42,168.908 L255.211,168.927 C254.192,168.927 253.137,167.568 252.806,165.834 C252.452,163.965 253.049,162.217 254.109,162.015 L254.318,161.995" id="Fill-181" fill="#E4E4DE"></path>
            <path d="M231.961,167.719 L254.137,163.516 L254.176,163.522 C254.766,163.524 255.378,164.309 255.567,165.309 C255.759,166.308 255.477,167.263 254.929,167.482 L254.868,167.506 L232.719,171.705 L231.961,167.719" id="Fill-182" fill="#FFFFFE"></path>
            <path d="M254.173,163.382 L231.814,167.62 L232.619,171.851 L254.977,167.613 L254.974,167.598 C255.579,167.357 255.897,166.371 255.69,165.285 C255.484,164.2 254.827,163.399 254.176,163.396 L254.173,163.382 M254.12,163.646 L254.175,163.647 C254.641,163.648 255.245,164.279 255.445,165.332 C255.645,166.385 255.315,167.193 254.882,167.366 L254.845,167.383 L232.818,171.559 L232.107,167.819 L254.12,163.646" id="Fill-183" fill="#E4E4DE"></path>
            <path d="M232.619,171.851 C233.316,171.718 233.701,170.664 233.479,169.495 C233.258,168.327 232.512,167.487 231.814,167.62 C231.117,167.752 230.732,168.807 230.954,169.975 C231.177,171.144 231.922,171.983 232.619,171.851" id="Fill-184" fill="#E4E4DE"></path>
            <path d="M230.226,168.679 L232.255,168.293 L232.284,168.296 C232.692,168.297 233.116,168.848 233.249,169.549 C233.383,170.251 233.19,170.918 232.811,171.069 L232.77,171.086 L230.756,171.469 L230.226,168.679" id="Fill-185" fill="#FFFFFE"></path>
            <path d="M232.283,168.16 L230.079,168.579 L230.656,171.615 L232.86,171.196 L232.858,171.186 C233.292,171.013 233.52,170.305 233.372,169.526 C233.224,168.748 232.752,168.173 232.285,168.171 L232.283,168.16 Z M232.252,168.421 L232.284,168.421 C232.584,168.422 232.991,168.863 233.127,169.573 C233.262,170.283 233.044,170.842 232.765,170.953 L232.742,170.964 L230.855,171.323 L230.372,168.778 L232.252,168.421 L232.252,168.421 Z" id="Fill-186" fill="#E4E4DE"></path>
            <path d="M230.656,171.615 C231.157,171.52 231.433,170.763 231.274,169.925 C231.114,169.086 230.58,168.484 230.08,168.579 C229.579,168.674 229.303,169.431 229.462,170.269 C229.622,171.107 230.156,171.71 230.656,171.615" id="Fill-187" fill="#E4E4DE"></path>
            <polyline id="Fill-188" fill="#263C40" points="230.39 170.253 224.732 171.364 225.078 171.045 230.341 170.009 230.39 170.253"></polyline>
            <path d="M254.207,166.97 C254.653,166.885 254.899,166.21 254.758,165.462 C254.615,164.715 254.138,164.178 253.692,164.262 C253.246,164.347 252.999,165.022 253.141,165.77 C253.283,166.518 253.761,167.055 254.207,166.97" id="Fill-189" fill="#099B66"></path>
            <polyline id="Fill-190" fill="#099B66" points="253.692 164.262 235.213 167.763 235.727 170.471 254.207 166.97 253.692 164.262"></polyline>
            <path d="M252.395,165.234 C252.348,164.987 252.732,164.914 252.779,165.161 C252.826,165.408 252.442,165.481 252.395,165.234" id="Fill-191" fill="#06794F"></path>
            <polyline id="Fill-192" fill="#06794F" points="253.714 165.806 253.624 165.77 253.558 165.7 253.521 165.614 253.517 165.552 253.559 165.431 253.603 165.382 253.716 165.329 253.728 165.326 253.822 165.329 253.912 165.364 253.977 165.435 254.013 165.521 254.017 165.583 253.976 165.703 253.932 165.752 253.82 165.806 253.806 165.808 253.714 165.806"></polyline>
            <polyline id="Fill-193" fill="#7B9AC3" points="245.089 167.179 245 167.143 244.933 167.073 244.897 166.987 244.893 166.924 244.935 166.804 244.978 166.755 245.091 166.702 245.104 166.699 245.197 166.702 245.287 166.737 245.352 166.807 245.39 166.893 245.393 166.956 245.351 167.076 245.307 167.125 245.195 167.179 245.182 167.181 245.089 167.179"></polyline>
            <polyline id="Fill-194" fill="#06794F" points="240.22 168.224 240.131 168.188 240.065 168.118 240.028 168.032 240.024 167.97 240.066 167.849 240.11 167.8 240.223 167.747 240.235 167.744 240.329 167.747 240.419 167.782 240.484 167.852 240.521 167.938 240.524 168 240.483 168.121 240.439 168.17 240.327 168.224 240.313 168.226 240.22 168.224"></polyline>
            <polyline id="Fill-195" fill="#06794F" points="241.292 168.876 241.202 168.841 241.136 168.771 241.099 168.685 241.096 168.622 241.137 168.502 241.181 168.453 241.294 168.399 241.306 168.397 241.4 168.399 241.49 168.435 241.555 168.505 241.592 168.591 241.595 168.653 241.555 168.774 241.511 168.822 241.398 168.876 241.385 168.878 241.292 168.876"></polyline>
            <polyline id="Fill-196" fill="#06794F" points="252.802 166.857 252.609 166.791 252.531 166.721 252.445 166.541 252.442 166.528 252.446 166.378 252.504 166.235 252.616 166.13 252.753 166.071 252.853 166.065 253.046 166.132 253.124 166.202 253.21 166.382 253.212 166.395 253.208 166.544 253.151 166.688 253.039 166.793 252.901 166.852 252.802 166.857"></polyline>
            <polyline id="Fill-197" fill="#06794F" points="242.571 167.4 242.378 167.333 242.301 167.263 242.215 167.084 242.212 167.07 242.216 166.921 242.272 166.778 242.385 166.672 242.522 166.614 242.622 166.608 242.815 166.675 242.893 166.745 242.979 166.924 242.981 166.938 242.977 167.087 242.921 167.23 242.808 167.336 242.671 167.394 242.571 167.4"></polyline>
            <path d="M235.727,170.471 C236.174,170.386 236.421,169.711 236.278,168.963 C236.137,168.215 235.659,167.678 235.213,167.763 C234.766,167.848 234.52,168.522 234.663,169.271 C234.805,170.018 235.282,170.555 235.727,170.471" id="Fill-198" fill="#099B66"></path>
            <path d="M234.246,170.909 C234.038,170.909 233.852,170.761 233.812,170.549 C233.766,170.309 233.924,170.078 234.164,170.032 L234.882,169.896 C235.077,170.253 235.357,170.479 235.634,170.479 C235.665,170.479 235.696,170.477 235.727,170.471 L254.207,166.97 C254.514,166.912 254.726,166.574 254.783,166.125 L254.95,166.093 C254.978,166.088 255.005,166.085 255.033,166.085 C255.235,166.085 255.416,166.225 255.463,166.428 C255.434,166.582 255.392,166.722 255.34,166.845 C255.28,166.903 255.203,166.945 255.115,166.961 L234.329,170.901 C234.301,170.906 234.273,170.909 234.246,170.909" id="Fill-199" fill="#FFFBFB"></path>
            <path d="M255.34,166.845 C255.392,166.722 255.434,166.582 255.463,166.428 C255.464,166.433 255.465,166.439 255.467,166.445 C255.496,166.597 255.443,166.745 255.34,166.845" id="Fill-200" fill="#F3ECEA"></path>
            <path d="M254.207,166.97 L254.072,166.26 L254.783,166.125 C254.726,166.574 254.514,166.912 254.207,166.97" id="Fill-201" fill="#099B66"></path>
            <path d="M235.727,170.471 C236.034,170.412 236.247,170.075 236.303,169.627 L241.113,168.715 L241.136,168.771 L241.202,168.841 L241.292,168.876 L241.385,168.878 L241.398,168.876 L241.511,168.822 L241.555,168.774 L241.595,168.653 L241.594,168.624 L252.457,166.566 L252.531,166.721 L252.609,166.791 L252.802,166.857 L252.901,166.852 L253.039,166.793 L253.151,166.688 L253.208,166.544 L253.211,166.423 L254.072,166.26 L254.207,166.97 L235.727,170.471" id="Fill-202" fill="#099B66"></path>
            <polyline id="Fill-203" fill="#06794F" points="241.385 168.878 241.292 168.876 241.202 168.841 241.136 168.771 241.113 168.715 241.594 168.624 241.595 168.653 241.555 168.774 241.511 168.822 241.398 168.876 241.385 168.878"></polyline>
            <polyline id="Fill-204" fill="#06794F" points="252.802 166.857 252.609 166.791 252.531 166.721 252.457 166.566 253.211 166.423 253.208 166.544 253.151 166.688 253.039 166.793 252.901 166.852 252.802 166.857"></polyline>
            <path d="M235.634,170.479 C235.357,170.479 235.077,170.253 234.882,169.896 L236.303,169.627 C236.247,170.075 236.034,170.412 235.727,170.471 C235.696,170.477 235.665,170.479 235.634,170.479" id="Fill-205" fill="#099B66"></path>
            <path d="M244.954,174.583 C243.939,173.821 241.726,161.756 242.516,160.442 C243.22,159.274 246.29,161.293 247.775,167.01 C248.156,168.477 249.378,169.574 250.858,169.896 L260.678,172.031 L256.907,179.311 L244.954,174.583" id="Fill-206" fill="#132529"></path>
            <path d="M291.426,178.066 L291.528,205.191 C291.528,205.191 325.471,206.704 332.794,205.984 C340.117,205.265 331.638,152.869 329.624,147.795 C327.61,142.722 308.904,136.975 308.904,136.975 L313.438,179.506 L291.426,178.066" id="Fill-207" fill="#E4E4DE"></path>
            <path d="M312.64,162.694 C312.925,157.904 313.646,153.105 315.263,148.57 C316.157,146.057 317.237,143.534 318.77,141.341 C319.078,140.901 318.426,140.405 318.101,140.838 C316.677,142.742 315.371,144.699 314.349,146.853 C313.319,149.027 312.57,151.33 311.986,153.66 C310.69,158.828 310.513,164.091 310.683,169.392 C310.775,172.234 310.852,175.172 311.29,178 C310.854,178.017 310.431,178.046 309.997,178.109 C309.533,178.177 309.081,178.248 308.622,178.344 C308.151,178.442 307.674,178.551 307.195,178.598 C306.909,178.626 306.919,179.068 307.202,179.098 C307.666,179.146 308.125,179.256 308.582,179.348 C309.044,179.441 309.497,179.527 309.963,179.596 C310.432,179.664 310.883,179.711 311.357,179.73 C311.746,179.745 312.13,179.738 312.512,179.687 C313.358,180.059 314.3,180.293 315.154,180.607 C316.236,181.007 317.305,181.432 318.326,181.972 C320.364,183.052 322.208,184.652 323.712,186.389 C323.875,186.577 324.175,186.35 324.02,186.15 C322.549,184.251 320.843,182.647 318.967,181.153 C318.038,180.413 317.066,179.713 316.029,179.135 C315.496,178.838 314.959,178.57 314.394,178.337 C313.827,178.104 313.205,177.835 312.587,177.793 C312.649,175.501 312.478,173.179 312.437,170.895 C312.387,168.16 312.479,165.425 312.64,162.694" id="Fill-208" fill="#CFD0CA"></path>
            <path d="M300.02,179.685 C299.831,183.872 299.643,188.06 299.48,192.25 C299.401,194.299 299.418,196.356 299.418,198.405 C299.419,200.541 299.374,202.647 299.807,204.749 C299.93,205.348 300.735,205.325 300.854,204.734 C301.272,202.653 301.221,200.574 301.212,198.463 C301.202,196.386 301.208,194.303 301.118,192.228 C300.935,188.044 300.728,183.86 300.52,179.678 C300.506,179.395 300.033,179.399 300.02,179.685" id="Fill-209" fill="#CFD0CA"></path>
            <path d="M328.215,340.527 C322.458,340.47 316.794,341.653 311.223,343.061 C307.506,332.078 304.797,320.8 303.508,309.25 C302.046,296.146 302.263,282.886 303.95,269.814 C304.902,262.443 307.416,249.565 309.47,242.421 C309.568,242.078 309.042,241.942 308.936,242.281 C304.943,255.04 301.432,273.739 300.972,287.114 C300.513,300.461 301.827,313.869 304.816,326.884 C306.106,332.504 307.709,338.042 309.684,343.453 C308.695,343.71 307.709,343.969 306.726,344.229 C305.902,344.445 306.243,345.628 307.056,345.488 C308.127,345.305 309.201,345.14 310.277,344.982 C310.701,346.098 311.113,347.217 311.57,348.319 C311.88,349.065 313.17,348.545 312.889,347.782 C312.521,346.779 312.175,345.77 311.823,344.762 C317.377,343.99 322.97,343.388 328.408,342.023 C329.252,341.813 329.077,340.536 328.215,340.527" id="Fill-210" fill="#132529"></path>
            <path d="M294.989,343.564 C290.129,343.389 285.22,343.345 280.333,343.508 C280.246,338.175 280.139,332.842 280.177,327.507 C280.226,320.443 280.36,313.379 280.593,306.319 C281.056,292.222 282.015,278.114 283.379,264.075 C284.154,256.096 285.167,248.138 286.392,240.216 C286.449,239.853 285.897,239.697 285.832,240.068 C283.36,254.027 281.245,268.076 279.871,282.189 C278.499,296.277 277.874,310.518 278.034,324.671 C278.105,330.971 278.225,337.279 278.583,343.571 C277.036,343.641 275.49,343.724 273.952,343.844 C272.979,343.919 272.979,345.279 273.952,345.356 C275.536,345.479 277.127,345.565 278.72,345.635 C278.787,346.653 278.841,347.672 278.923,348.69 C278.998,349.628 280.416,349.657 280.406,348.69 C280.395,347.69 280.378,346.691 280.363,345.691 C285.24,345.854 290.138,345.81 294.989,345.636 C296.324,345.588 296.325,343.61 294.989,343.564" id="Fill-211" fill="#132529"></path>
            <path d="M332.963,204.445 C332.467,205.301 332.023,205.972 331.049,206.33 C329.969,206.728 328.712,206.574 327.588,206.492 C325.036,206.307 322.486,206.125 319.931,205.985 C317.363,205.844 314.794,205.758 312.222,205.747 C309.597,205.736 306.983,205.94 304.36,205.847 C303.927,205.832 303.938,206.478 304.36,206.513 C307.197,206.747 309.994,207.301 312.826,207.607 C315.694,207.916 318.565,208.127 321.443,208.31 C322.854,208.398 324.264,208.462 325.677,208.524 C326.994,208.583 328.328,208.698 329.64,208.509 C331.472,208.243 334.164,206.945 334.137202,204.755 C334.129,204.129 333.279,203.899 332.963,204.445" id="Fill-212" fill="#CFD0CA"></path>
            <path d="M333.756,211.021 C330.254,212.187 326.925,213.844 323.581,215.408 C320.217,216.982 316.841,218.529 313.465,220.075 C313.174,220.209 313.375,220.714 313.678,220.6 C317.148,219.286 320.62,217.974 324.102,216.689 C326.525,215.793 328.974,214.929 331.356,213.923 C329.946,215.535 328.291,216.917 326.398,217.974 C325.01,218.749 323.537,219.358 322.003,219.785 C320.396,220.232 318.822,220.281 317.183,220.473 C316.356,220.569 316.335,221.701 317.183,221.775 C318.856,221.921 320.728,221.493 322.337,221.059 C323.978,220.614 325.574,219.965 327.064,219.146 C330.099,217.476 332.744,215.098 334.686,212.23 C335.078,211.65 334.413,210.802 333.756,211.021" id="Fill-213" fill="#CFD0CA"></path>
            <polyline id="Fill-220" fill="#ECECE6" points="89.817 84.808 92.128 48.28 86.137 47.901 83.826 84.429 89.817 84.808"></polyline>
            <polyline id="Fill-221" fill="#ECECE6" points="83.847 84.869 86.157 57.31 80.176 56.808 77.865 84.368 83.847 84.869"></polyline>
            <polyline id="Fill-222" fill="#ECECE6" points="79.077 84.871 81.388 43.695 72.399 43.191 70.088 84.367 79.077 84.871"></polyline>
            <polyline id="Fill-223" fill="#ECECE6" points="70.102 84.825 72.412 51.408 66.424 50.994 64.115 84.412 70.102 84.825"></polyline>
            <polyline id="Fill-224" fill="#ECECE6" points="53.295 85.2 62.222 84.038 58.334 54.167 49.407 55.329 53.295 85.2"></polyline>
            <polyline id="Fill-225" fill="#ECECE6" points="44.628 85.159 53.567 84.079 48.28 40.303 39.341 41.383 44.628 85.159"></polyline>
            <polyline id="Fill-226" fill="#ECECE6" points="39.885 85.038 48.842 84.199 40.872 46.761 31.915 47.601 39.885 85.038"></polyline>
            <polyline id="Fill-227" fill="#ECECE6" points="30.756 85.203 39.683 84.035 34.396 43.64 25.469 44.808 30.756 85.203"></polyline>
            <path d="M21.675,72.361 C27.735,56.728 28.392,39.058 23.512,23.018 C21.882,40.07 19.444,57.044 16.21,73.866 L21.675,72.361" id="Fill-228" fill="#099B66"></path>
            <path d="M12.592,68.522 C8.58,55.408 9.785,40.774 15.89,28.494 C11.293,41.927 21.747,56.89 17.772,70.52 L12.592,68.522" id="Fill-229" fill="#099B66"></path>
            <path d="M39.557,36.635 C31.572,45.568 26.854,42.555 23.942,57.409 C23.354,60.408 20.374,71.518 24.222,71.159 C28.094,70.797 29.512,59.28 31.478,53.563 C34.127,45.856 37.312,42.224 39.557,36.635" id="Fill-230" fill="#099B66"></path>
            <path d="M16.154,67.189 C19.26,64.873 20.854,60.968 21.262,57.116 C21.669,53.262 21.037,49.385 20.48,45.551 C19.923,41.717 19.439,37.798 20.137,33.986 C20.923,40.24 24.98,44.968 26.702,51.031 C28.408,57.036 27.263,63.786 23.671,68.892 L16.154,67.189" id="Fill-231" fill="#10AC73"></path>
            <path d="M12.432,71.168 C7.249,61.542 4.432,49.45 8.115,33.986 C11.792,44.443 17.143,70.438 17.143,70.438 L12.432,71.168" id="Fill-232" fill="#10AC73"></path>
            <path d="M29.422,65.633 L27.891,75.463 L26.64,83.548 C26.536,84.21 25.962,84.704 25.292,84.704 L10.973,84.704 C10.288,84.704 9.706,84.194 9.618,83.508 L7.298,65.602 C7.194,64.78 7.832,64.063 8.653,64.063 L28.074,64.063 C28.912,64.063 29.55,64.804 29.422,65.633" id="Fill-233" fill="#E4E4DE"></path>
            <polyline id="Fill-234" fill="#ECECE6" points="6.165 140.078 3.854 103.55 9.845 103.17 12.156 139.698 6.165 140.078"></polyline>
            <polyline id="Fill-235" fill="#ECECE6" points="12.136 140.139 9.825 112.579 15.806 112.078 18.117 139.638 12.136 140.139"></polyline>
            <polyline id="Fill-236" fill="#ECECE6" points="16.905 140.14 14.594 98.965 23.583 98.461 25.894 139.636 16.905 140.14"></polyline>
            <polyline id="Fill-237" fill="#ECECE6" points="25.88 140.095 23.57 106.677 29.558 106.264 31.867 139.682 25.88 140.095"></polyline>
            <polyline id="Fill-238" fill="#ECECE6" points="42.687 140.469 33.76 139.307 37.648 109.437 46.575 110.599 42.687 140.469"></polyline>
            <polyline id="Fill-239" fill="#ECECE6" points="51.354 140.428 42.415 139.348 47.702 95.573 56.641 96.652 51.354 140.428"></polyline>
            <polyline id="Fill-240" fill="#ECECE6" points="56.097 140.308 47.14 139.468 55.11 102.03 64.067 102.87 56.097 140.308"></polyline>
            <polygon id="Fill-241" fill="#E4E4DE" points="59.646 138.182 97.945 138.182 97.945 128.922 59.646 128.922"></polygon>
            <polygon id="Fill-242" fill="#E4E4DE" points="64.067 128.922 92.821 128.922 92.821 120.828 64.067 120.828"></polygon>
            <polygon id="Fill-243" fill="#E4E4DE" points="61.895 121.119 84.738 121.119 84.738 116.263 61.895 116.263"></polygon>
            <polyline id="Fill-244" fill="#ECECE6" points="65.226 140.472 56.299 139.304 61.586 98.909 70.514 100.077 65.226 140.472"></polyline>
            <polygon id="Fill-245" fill="#ECECE6" points="-4.26325641e-14 144.17 101.256 144.17 101.256 137.199 -4.26325641e-14 137.199"></polygon>
            <polygon id="Fill-246" fill="#ECECE6" points="-4.26325641e-14 88.9 101.256 88.9 101.256 81.929 -4.26325641e-14 81.929"></polygon>
            <path d="M142.928,155.267 L142.928,155.267 C141.221,155.267 139.837,153.883 139.837,152.176 L139.837,140.826 C139.837,139.119 141.221,137.735 142.928,137.735 C144.635,137.735 146.019,139.119 146.019,140.826 L146.019,152.176 C146.019,153.883 144.635,155.267 142.928,155.267" id="Fill-247" fill="#CFD0CA"></path>
            <path d="M151.694,146.501 L151.694,146.501 C151.694,148.208 150.31,149.591 148.603,149.591 L137.253,149.591 C135.546,149.591 134.162,148.208 134.162,146.501 C134.162,144.794 135.546,143.41 137.253,143.41 L148.603,143.41 C150.31,143.41 151.694,144.794 151.694,146.501" id="Fill-248" fill="#CFD0CA"></path>
            <path d="M250.731,78.838 L250.731,78.338 L248.647,78.338 L248.647,76.254 C248.647,74.271 247.04,72.663 245.056,72.663 C243.073,72.663 241.466,74.271 241.466,76.254 L241.466,78.338 L239.381,78.338 C237.398,78.339 235.791,79.946 235.791,81.929 C235.791,83.913 237.398,85.52 239.381,85.52 L241.466,85.52 L241.466,87.605 C241.466,89.588 243.073,91.195 245.056,91.195 C247.04,91.195 248.647,89.588 248.647,87.605 L248.647,85.52 L250.731,85.52 C252.715,85.52 254.322,83.913 254.322,81.929 C254.322,79.946 252.715,78.339 250.731,78.338 L250.731,79.338 C252.162,79.341 253.319,80.499 253.322,81.929 C253.319,83.36 252.162,84.517 250.731,84.52 L247.647,84.52 L247.647,87.605 C247.645,89.035 246.487,90.192 245.056,90.195 C243.626,90.192 242.468,89.035 242.466,87.605 L242.466,84.52 L239.381,84.52 C237.951,84.517 236.793,83.36 236.791,81.929 C236.793,80.499 237.951,79.341 239.381,79.338 L242.466,79.338 L242.466,76.254 C242.468,74.823 243.626,73.666 245.056,73.663 C246.487,73.666 247.645,74.823 247.647,76.254 L247.647,79.338 L250.731,79.338 L250.731,78.838" id="Fill-249" fill="#E4E4DE"></path>
            <path d="M342.831,123.018 L340.246,123.018 L340.246,120.433 C340.246,118.726 338.862,117.342 337.155,117.342 C335.448,117.342 334.064,118.726 334.064,120.433 L334.064,123.018 L331.48,123.018 C329.773,123.018 328.389,124.401 328.389,126.108 C328.389,127.815 329.773,129.199 331.48,129.199 L334.064,129.199 L334.064,131.784 C334.064,133.49 335.448,134.874 337.155,134.874 C338.862,134.874 340.246,133.49 340.246,131.784 L340.246,129.199 L342.831,129.199 C344.537,129.199 345.921,127.815 345.921,126.108 C345.921,124.401 344.537,123.018 342.831,123.018" id="Fill-250" fill="#E4E4DE"></path>
        </g>
    </g>
</svg>