<svg width="512" height="512" viewBox="0 0 512 512" fill="none" xmlns="http://www.w3.org/2000/svg">
<g clip-path="url(#clip0_421_260)">
<path fill-rule="evenodd" clip-rule="evenodd" d="M263.028 99.2111C263.028 102.991 259.839 106.179 255.941 106.179C252.162 106.179 248.973 102.991 248.973 99.2111V6.9684C248.973 3.18893 252.162 0 255.941 0C259.839 0 263.028 3.18893 263.028 6.9684V99.2111Z" fill="#1BA552"/>
<path fill-rule="evenodd" clip-rule="evenodd" d="M395.308 183.659C391.883 185.548 387.631 184.367 385.742 181.06C383.852 177.753 385.033 173.501 388.34 171.493L468.181 125.431C471.488 123.541 475.74 124.723 477.63 128.03C479.638 131.337 478.457 135.588 475.15 137.596L395.308 183.659Z" fill="#1BA552"/>
<path fill-rule="evenodd" clip-rule="evenodd" d="M388.34 340.506C385.033 338.499 383.852 334.247 385.742 330.94C387.631 327.633 391.883 326.452 395.308 328.341L475.15 374.404C478.457 376.411 479.638 380.663 477.63 383.97C475.74 387.277 471.488 388.459 468.181 386.569L388.34 340.506Z" fill="#1BA552"/>
<path fill-rule="evenodd" clip-rule="evenodd" d="M248.973 412.789C248.973 408.891 252.162 405.82 255.941 405.82C259.839 405.82 263.028 408.891 263.028 412.789V505.031C263.028 508.811 259.839 512 255.941 512C252.162 512 248.973 508.811 248.973 505.031V412.789Z" fill="#1BA552"/>
<path fill-rule="evenodd" clip-rule="evenodd" d="M116.691 328.341C119.998 326.452 124.368 327.633 126.257 330.94C128.147 334.247 126.966 338.499 123.659 340.506L43.8177 386.569C40.5106 388.459 36.2587 387.277 34.369 383.97C32.3612 380.663 33.5422 376.411 36.8493 374.404L116.691 328.341Z" fill="#1BA552"/>
<path fill-rule="evenodd" clip-rule="evenodd" d="M123.659 171.493C126.966 173.501 128.147 177.753 126.257 181.06C124.368 184.367 119.998 185.548 116.691 183.659L36.8493 137.596C33.5422 135.588 32.3612 131.337 34.369 128.03C36.2587 124.723 40.5106 123.541 43.8177 125.431L123.659 171.493Z" fill="#1BA552"/>
<path fill-rule="evenodd" clip-rule="evenodd" d="M340.507 123.66C338.499 126.967 334.247 128.148 330.94 126.258C327.515 124.25 326.452 119.998 328.341 116.691L362.711 57.2826C364.601 53.8575 368.853 52.7945 372.278 54.6843C375.585 56.574 376.766 60.944 374.758 64.251L340.507 123.66Z" fill="#1BA552"/>
<path fill-rule="evenodd" clip-rule="evenodd" d="M412.789 263.028C408.891 263.028 405.82 259.839 405.82 255.941C405.82 252.162 408.891 248.973 412.789 248.973H481.528C485.307 248.973 488.496 252.162 488.496 255.941C488.496 259.839 485.307 263.028 481.528 263.028H412.789Z" fill="#1BA552"/>
<path fill-rule="evenodd" clip-rule="evenodd" d="M328.341 395.309C326.452 392.002 327.515 387.75 330.94 385.742C334.247 383.852 338.499 384.915 340.507 388.34L374.758 447.749C376.766 451.056 375.585 455.426 372.278 457.316C368.853 459.205 364.601 458.142 362.711 454.717L328.341 395.309Z" fill="#1BA552"/>
<path fill-rule="evenodd" clip-rule="evenodd" d="M171.493 388.34C173.501 384.915 177.753 383.852 181.06 385.742C184.367 387.75 185.548 392.002 183.659 395.309L149.289 454.717C147.399 458.142 143.147 459.205 139.722 457.316C136.415 455.426 135.234 451.056 137.242 447.749L171.493 388.34Z" fill="#1BA552"/>
<path fill-rule="evenodd" clip-rule="evenodd" d="M99.2114 248.973C102.991 248.973 106.18 252.162 106.18 255.941C106.18 259.839 102.991 263.028 99.2114 263.028H30.4723C26.6928 263.028 23.5039 259.839 23.5039 255.941C23.5039 252.162 26.6928 248.973 30.4723 248.973H99.2114Z" fill="#1BA552"/>
<path fill-rule="evenodd" clip-rule="evenodd" d="M183.659 116.691C185.548 119.998 184.367 124.25 181.06 126.258C177.753 128.148 173.501 126.967 171.493 123.66L137.242 64.251C135.234 60.944 136.415 56.574 139.722 54.6843C143.147 52.7945 147.399 53.8575 149.289 57.2826L183.659 116.691Z" fill="#1BA552"/>
<path d="M255.942 412.789C342.566 412.789 412.79 342.565 412.79 255.941C412.79 169.316 342.566 99.0928 255.942 99.0928C169.317 99.0928 99.0938 169.316 99.0938 255.941C99.0938 342.565 169.317 412.789 255.942 412.789Z" fill="#10AC73"/>
<path d="M263.618 221.925C280.969 221.925 295.035 207.86 295.035 190.509C295.035 173.158 280.969 159.092 263.618 159.092C246.267 159.092 232.201 173.158 232.201 190.509C232.201 207.86 246.267 221.925 263.618 221.925Z" fill="#06794F"/>
<path d="M315.233 353.026C332.584 353.026 346.65 338.96 346.65 321.609C346.65 304.258 332.584 290.192 315.233 290.192C297.882 290.192 283.816 304.258 283.816 321.609C283.816 338.96 297.882 353.026 315.233 353.026Z" fill="#06794F"/>
<path d="M179.643 327.16C196.994 327.16 211.06 313.095 211.06 295.743C211.06 278.392 196.994 264.327 179.643 264.327C162.292 264.327 148.227 278.392 148.227 295.743C148.227 313.095 162.292 327.16 179.643 327.16Z" fill="#06794F"/>
<path fill-rule="evenodd" clip-rule="evenodd" d="M328.697 218.501C325.035 217.201 323.264 213.068 324.563 209.524C325.98 205.863 329.996 204.091 333.539 205.39C333.657 205.509 365.192 217.201 346.413 249.799C344.405 253.106 340.153 254.287 336.846 252.398C333.539 250.508 332.358 246.256 334.248 242.831C344.877 224.524 328.697 218.501 328.697 218.501Z" fill="#06794F"/>
<path fill-rule="evenodd" clip-rule="evenodd" d="M187.793 194.997C190.864 192.517 195.234 192.989 197.715 196.06C200.077 199.013 199.604 203.383 196.652 205.863C196.534 205.863 170.668 227.241 151.889 194.643C149.881 191.336 151.062 187.084 154.369 185.194C157.676 183.186 161.928 184.367 163.936 187.674C174.447 205.981 187.793 194.997 187.793 194.997Z" fill="#06794F"/>
<path fill-rule="evenodd" clip-rule="evenodd" d="M231.966 350.309C231.375 346.53 234.092 342.987 237.871 342.396C241.651 341.806 245.312 344.404 245.784 348.302C245.784 348.42 251.335 381.372 213.777 381.372C209.879 381.372 206.809 378.301 206.809 374.403C206.809 370.624 209.879 367.435 213.777 367.435C234.918 367.435 231.966 350.309 231.966 350.309Z" fill="#06794F"/>
<path fill-rule="evenodd" clip-rule="evenodd" d="M263.973 254.051C266.689 251.335 271.059 251.335 273.776 254.051C276.61 256.768 276.61 261.256 273.776 263.972L259.366 278.381C256.65 281.098 252.28 281.098 249.563 278.381C246.729 275.665 246.729 271.177 249.563 268.46L263.973 254.051Z" fill="#06794F"/>
<path fill-rule="evenodd" clip-rule="evenodd" d="M374.876 261.492C377.593 258.775 382.081 258.775 384.797 261.492C387.514 264.327 387.514 268.697 384.797 271.413L370.388 285.822C367.554 288.539 363.184 288.539 360.467 285.822C357.751 283.106 357.751 278.736 360.467 275.901L374.876 261.492Z" fill="#06794F"/>
<path fill-rule="evenodd" clip-rule="evenodd" d="M211.888 128.974C214.723 126.258 219.093 126.258 221.809 128.974C224.526 131.691 224.526 136.179 221.809 138.895L207.4 153.305C204.683 156.021 200.313 156.021 197.479 153.305C194.762 150.588 194.762 146.1 197.479 143.384L211.888 128.974Z" fill="#06794F"/>
<path fill-rule="evenodd" clip-rule="evenodd" d="M136.062 225.115C138.778 222.398 143.266 222.398 145.983 225.115C148.699 227.831 148.699 232.319 145.983 235.036L131.574 249.445C128.739 252.161 124.369 252.161 121.653 249.445C118.936 246.728 118.936 242.24 121.653 239.524L136.062 225.115Z" fill="#06794F"/>
<path fill-rule="evenodd" clip-rule="evenodd" d="M313.106 145.155C309.563 143.856 307.673 139.722 309.09 136.179C310.39 132.518 314.405 130.746 318.067 132.045C318.185 132.163 349.72 143.856 330.822 176.454C328.933 179.761 324.681 180.942 321.374 179.052C318.067 177.163 316.886 172.911 318.775 169.486C329.405 151.179 313.224 145.155 313.106 145.155Z" fill="#06794F"/>
</g>
<defs>
<clipPath id="clip0_421_260">
<rect width="512" height="512" fill="white"/>
</clipPath>
</defs>
</svg>
